/* XPM */
static char *result[] = {
/* columns rows colors chars-per-pixel */
"128 128 39 1 ",
"  c #5F3529",
". c #62362A",
"X c #65392C",
"o c #6C3C2E",
"O c #703D2F",
"+ c #6F3E30",
"@ c #713E31",
"# c #744032",
"$ c #7C4536",
"% c #7D5F56",
"& c #7F6058",
"* c #814737",
"= c #844937",
"- c #814738",
"; c #864A3A",
": c #8C4D3C",
"> c #92513F",
", c #955240",
"< c #A75D48",
"1 c #AA5E4A",
"2 c #83655C",
"3 c #86685F",
"4 c #876960",
"5 c #896B62",
"6 c #A27467",
"7 c #A57669",
"8 c #A7786B",
"9 c #AA7B6E",
"0 c #AD7E71",
"q c #AF8073",
"w c #9D8A84",
"e c #9F8D88",
"r c #A18E89",
"t c #A4928C",
"y c #A8968F",
"u c #A99690",
"i c #AC9A94",
"p c #B19F99",
"a c #B5A39D",
/* pixels */
"11111111111111111111111111117ww61111111111111111111111111111111111111111111111111111111111116ww6<<111111111111111111111111111111",
"11111111111111111111111111117ww61111111111111111111111111111111111111111111111111111111111116ww6<<111111111111111111111111111111",
"11111111111111111111111<11116ww6111111111111111111111111111111111111111111111111111<111111116ww611111111111111111111111111111111",
"11111111111<11111111111<11<$6we7111111111111111111111111111111111111111<11111111111<111111116ww611111111111111111111111111111111",
">>>>>>>>>>>>>>>>,>>>>>>>>,# qaaq1111>>>>>,,,>>,>>>>>>>>>,>>>,>,,>>>>>>>>>>>>,>>>,,,,,,,,,,, 6eeq1111,,,,>>>>>>>>>>>>>>>>>>>,>>>>",
"$$$$$$$$$$$$$$$$$$$$$$$$$$  5aaq1111>$$$$;;$$$$$$$$$$$$$$$$$$;;$$$$$$$$$$$$$$$$$$$#$#$$$$$X &wpq1111,$$$$$$$$$$$$$$$$$$$$$;*$$$$",
"$$$$$$$$$$$$$$$$$$$$$$$$$#  5aaq111<>$$;;;;;$$$$$$$$$$$$$$$$;;;;$$$$$$$$$$$$$$$$$$$$$$$$$#  &taq1111>=$%$$$$$$$$$$$$$$$$*;;;*$$$",
"$$$$$$$$$$$$$$$$$$$$$$$$$#  5aaq111<>$;;;;;;$$$$$$$$$$$$$$$$;;;:;$$$$$$$$$$$$$$$$$$$$$$$$#  &paq1111,===$$$$$$$$$$$$$$$$*;;;$$$$",
"$$$$$$$$$$$$$$$$$$$$$$$$$   5aaq1111>$;;;:;;$$$$$$$$$$$$$$$;;;;;;$$$$$$$$$$$$$$$$$$$$$$$$$  5aaq1111,;;;;;*$$$$$$$$$$$$$$**$$$$$",
"$$$$$$$$$$$$$$$$$$$$$$$$$   5aaq1111>;;;;;$=$$$$$$$$$$$$$;;;;;;;$$$$$$$$$$$$$$$$$$$$$$$$$#  5aaq1111>;;;;:;*$$$$;;;$$$$$$$$$$$$$",
"$$$$$$$$$$$$$$$$$$$$$$$$#   5aaq1111>;;;;$$$$$$$$$$$$;;;;;;;;;;;;$$$$$$$$$$$$$$$$$$$$$$$$#  5aaq1111>*;;;;;$$$$;;;;$$$$$$$$$$$$$",
"$$$$$$$$$$$$$$$$$$$$$$$$#   5aaq1111>;;;;$$$$$$$$$$;;;;;:;;;;:;;*$$$$;;;$$$$$$$$$$$$$$$$$#  5aaq1111>$**;;;$$*;;;;;$$$$$$$$$$$$$",
"$$$$$$;=$$$$$$$$$$$$$$$$#   5aaq1111>;;;;$$$$$$$$;;;;;:;;;;:;;:*$$$$$:;;;;;;$$$$$$$$$$$$$#  5aaq1111>*$$$**$$=;;;;*$$$$$$$$$$$$$",
"$$$$$;;;;$$$$$$$$$$$$$$$    5aaq1111,;;:=$$$$$$$;;:;;;;;;;;;;;;$$$$$$;;;;;;;$$$$$#$$$$$$$#  5aaq1111>*$$$$$$;;;;;*$$$$$$$$$$$$$$",
"$$$$*;;;;*$$$$$$$$$$$$$$    5aaq1111,$;$$$$$$$$$;;;;;;;;;;;;;$$$$$$$;;;;;;;$$$$$$$$$$$$$##  5aaq1111>$$$$$$*;;;;*$$$$$$$$$$$$$$$",
"$$$$$;;;;;*$$$$$$$#$$$$#    5aaq1111>$$$$$$$$$$$;;;;;;;:;;$$$$$$$$$$$$$$;;;$$$$$$$$$$$$$$#  5aaq1111>$$$$$$=;;;;$$$$$$$$$$$$$$$$",
"$$$$$$;;;;;*$$$$$$$$$$$#    5aaq1111>$$$$$$$$$$$;;;;;$$$$$$$$$$$$$$$$$$$$$$$$$$$$$$$$$$$$#  5aaq1111>$$$$$$;;;;$$$$$$$$$$*;;;;$$",
"$$$$$$$;;;;;*$$$$$$$$$$#    5aaq1111>$$$$$$$$$$;;;;$$$$$$$$$$$$$$$$$$$$$$$$$$$$$$$$$$$$$##  5aaq1111>$$$$$;;;;=$$$$$$*;;;;;;;;;$",
"$$$$$$$$;;;;;$$$$$$$$$$#    5aaq1111>$$$$$$$$$$;;;:$$$$$$$$$$$$$$$$$$$$$$$$$$$$$$$$$$$$$$#  5aaq1111>$$$$$;;:;$$$$$$;;;;;;;;;;;$",
"$$$$$$$$*;;;;;$$$$$$$$$$    5aaq1111>$$$$$$$$$$$;:;$$$$$$$$$$$$$$$$$$$$$$$$$$$$$$$$$$$$$$   &aaq11<<>$$$$$;;:$$$$$$;;;;;;;;:;;$$",
"$$$$$$$$$*;;;;;$$$$$$$$$    5aaq1111>$$$$$$$$$;;;;;;;$$$$$$$$;;$$$$$$$$$$$$$$$$$$$$$$$$$$#  5aaq1111>$$$$*;;;$$$$$;;;;;=;;*$$$$$",
"$$$$$$$$$$-;;;;=$$$$$$$$    5aaq1111>$;$$$$$$$;:;;;;;;;$$$$$;;:;$$$$$$$$$$$$$$$$$$$$$$$$$X  5aaq1111>$$$$=;;=$$$$;;;;;$$$$$$$$$$",
"$$$$$$$$$$$;;;;;$$$$$$$$X   5aaq1111,;=;;$$$$$;::;:;;::$$$$$:;;:;;$$$$$$$$$$$$$$$$$$$#$$$   5aaq1111>$$$$;;;:$$$*;;;;*$$$$$$$$$$",
"$$$$$;$****$;;;;;$$$$$$$#   5aaq1111>;:==$$$$$$$$$;$;;;:$$$$$$;$$#X#XXXXXXXXoX#o$$$$$$$$$   5aaq1111,$$$$;;:;$$$;;;;;$$$##$$$$$$",
"#$$$;;;;,$%==;;;;*$$$$$$#   &aaq1111>:$$$$$$$$$#$$#$$$;;$###XX  .                 X###$##   5aaq1111,$$$#=;$$$####          .X##",
" .o#$;;;$$*=;;=*###o#XX.    5ap6111<### XXX #X#X### # #                                #X   5aaq1111,$$$###X                    ",
"      ..    .               5ay611<#                                                        5aaq111<#                           ",
"                            5pw6<<<                                                         5aaq111$                            ",
"%&%%&%%%%%%%&&&&&&&&&&&&&55&5tw65q5q5%%%&&%%%%%%&&&&&%%%&&&&&&%%&&&&&&%%%%%%%%%%&&&&&55555555aaqqqqqq&&&&&&&&&&&%%%%%%%%%%%%&&%%",
"wwwwwwwwwwwwqwwewwwqwwwwaaaapwwwwwewewwwewwwwwwwqwwwqwwwwwqeweqrwwwewwwwwwwwwwwwwwwwpaaaaaaaaaaaaaaywwwqwwwwqwwwwwwwwwwwwwwwwwww",
"wwwwwwwwwwwwwwwwwewwewwwiaaaewwwqweqewwwwwwwwwwwwwewwwwwwwwwwwwwwrqwwwwwwwwwwwwwwwwtaaaaaaaaaaaaaaywwewwwwwwwwwwwwwwwwwwwwwwwwww",
"6666666666666666666666668qq86666q5q65q6666666666q56856q566666ww666666666666666666669qqqqqqqqqqqqqq6665q56856q5666665666666666ww6",
"<<11111111111111111111111111111111111111111111111111111111116ww611111111111111111111111111111111<<111111111111111111111111116ww6",
"<<11111111111111111111111111111111111111111111111111111111116ww611111111111111111111111111111111<<111111111111111111111111116ww6",
"11111111111111111111111111111111111111111111111111<<111111116ww611111111111111111111111111111111<111111111<<11111111111111116ww6",
"1111111111111111111111111111111111111111111111111<<<111111116we51111111111111111111111111111111<1111111111<<11111111111<11116we6",
"1111,,,,>>>,,>>>>>>>>>>,>>>>>>>>>>,,>>>,,,>,>>>>,,,,,,,,,,##qqwq1111>>>>,>>>,>>,,,,,,,,,,,>>,,,,>>,,,,,>,,,,,,,,,,,,,,,,>>=o6ww6",
"1111>$$$$$$$$$$$$$$$$$$$$$$$$$$$$$$$$$;;;;*$$$$$$$#$$$#$$#  %ww51111>$$$$$$$$$$$$::$;;$$$$$$$$$$$$$$$$$$$$$$$$$$$$$$$#$#$#  &we6",
"1111>$$$$$$$$$$$$$$$$$$$$$$$$$$$$$$$$;;;;;$$$$$$$$$$$$$$$X  %wwq1111>$$$$$$$$$;;;;$:;;$$$$$$$$$$$$$$$;;;;$$$$$$$$$$$$$$$$.  &ww6",
"1111,$$$$$$$$$$$$$$$$$$$$$$$$$$$$$$$*;;;;;$$$$$$$$$$$$$$$.  %ww51111>$$$$$$$;;;;::$:;;;$$$$$$$$$$$$$$$;;$$$$$$$$$$$$$$$$#  .&ww6",
"1111,;:;$$$$$;;;;;;$*$$$$$$$$$;;;;;;;;;;;$$$$$$$$$$$$$$$$X  %ww61111>$$$$$;;;:;;$:;$:$;$$$$$$$$$$$;;;;;;;$$$$$$$$$$$$$$$o   %ww6",
"1111,;;;$$$$;;;;;;;;:;;$$$$$:;;;;;:;;;;;$$$$$$$$$#$$$$$$$   %ww61111>$$$$:;;;;;:$$$$$$$$$$$$$$$;;;;;;;;;;$$$$$$$$$$$$$$$.   %wr6",
"1111,;;;$$$$$;;;:;;;;;;;$$;;;;;;;;;;;;;$$$$$$$$$$$$$$$$$$X  %ww61111>$$$$:;;;:$$$$$$$$$$$$$$$;;:;;;;;;;;$$$$$$$$$$$$$$$#    &wq6",
"1111,;;;$$$$$;;;;;;;;;;$$;;;;;;:;;;;;;$$$$$$$$$$$$$$$$$$##  %ww61111>$$$$$;;$$$$$$$$$$$$$$$;:;;;;;;;;:;;$$$$$$$$$$$$$$*O    &ww6",
"1111,;:;$$$$$$$$$$$*$;;$;;;;;;;;:;;;;$$$$$$$$$$$$$$$$$$$$X  &ww61111>$$$$$;$$$$$$$$$$$$$$$$;;;;:;$$$::;;$$$;;$$$$$$$$$$O    &ww6",
"1111,;;;$$$$$$$$$$$$$$$$;;;;:;;;;;:;$$$$$$$$$$$$$$$$$$$$$   &ww61111>$$$$$$$$$$$:;;$$$$$$$:;;;;$$$$$;;;:$$$;;;;$$$$$$$$O    &ww6",
"1111,;;;$$$$$$$$$$$$$$$$$;;;;;;;;;;$$$$$$$$$$$$$$$$$$$$$$   &ww61111>$$$$$$$$$$:;;;;;$$$$:;;;;$$$$$$;;;;$$:;;;$$$$$$$$$#    2ww6",
"1111,;;;;$$$$$$$$$$$$$$$$$$;;;;;;;;$$$$$$$$$$$$$$$$$$$$##   &ww61111>$$$$$$$$:;;;:;;:$$$;;;;;$$$$$$$;;;$$$;;;:;$$$$$$$$$.   %ww6",
"1111,;;;=$$$$$$$$$$;;;$$$$$$;;;;;;$$$$$$$$$$:;$$$$$$$$$$    &ww61111>$$$$$$$:;;;:$::$:$;:;;$$$$$$$$$$$$$$$$,,$$,;*$$$$$$+   &ww6",
"1111>;;;:$$$$==;;:;;;;;$$$$$;;;;$$$$$$$$$$$;;;;;$$$$$$$#    &ww61111>$$$$$;;;;;;$$$:$::$$::$$$$$$$$$$$$$$$$$$$,$;;=*$$$$#   &wr6",
"1111>*;;$$$$$:=:;;;;;;$$$$$$;;;;$$$$$$$$$$$;;;;;;$$$$$$X    &wtq1111>$$$$$:;;;;$$$$:::$,:$$$$$$$$$$$$$$$$$$$$,,$;;;;$$$$$   &ww6",
"1111>$$$$$$$$$;;;;:;;;;$$$$$$;;$$$$$$$$$$$$$;;;;$$$$$$$.    &waq1111>$$$$$;;;;$$$$$$;;:$;:;:$$$$$$$$$$$$$$$$$$$$;;;;$$$$#   &qr6",
"1111>$$$$$$$$$;$;;;$$$$$$$$$$$$$$$$$$$$$$$$$$$:$$$$$$$$.    &paq1111>$$$$;;;;$$$$$$$$:$:;;;;;;$$$$$$$$$$$$$$$$$$;;;;-$$$#   %ww6",
"1111>$$$$$$$$$$$;;;$$$$$$#$$$$$$$$$$$$$$$$$$$$$$$$$$$$$.    &aaq1111>$$$$:;;$$$$$$$$$$$$$:;:;;,$$$$$$$$$$$$$$$$$*;;;*$$$#   %ww6",
"1111>$$$$$$$$$#$:;#########$$$$$$$$$$$$$$$$$$$$$$$$$$$$X    5aaq1111>$$$;:;;$$$$$$$$$$$,:;::;$$$$$$$$$$$##$$$$$$*;;;$$$$X   %ww6",
"1111>$$$$=$$###X              ##$$$$$$$$$$$$$$$$$$$$$$$#    5aaq1111>$$$;;;:$$$$$$$$$;$,;;$$$,$$$$$$$$$#########$;**$$$$X   %ww6",
"1111>$####                        X##$$$$#$$$$$$$$$###oX    5aa61111,$$$;;;=$$$$$$$$$,:$:$$$$$$$$###               XX XX    &ww6",
"1111;                                  X##X#X#X .           5at6111<#X  #####$$$$$$$,$$$$$$$##X                             &ww6",
"1111#                                                       5yw6111$           # X#X###X#X.                                 &ww6",
"1111#                                                  .    &ww611<X                                                        &ww6",
"66666&&&&&&&555555555555555555555555555555555555555555555555&ww6q6666%%%&&&&&%%%&&&%%%%%&&&&&%%%%%%%&&&&&5&&%%%%&%%%%%%%&&&&&ww6",
"wwwwwwwwwqwwtpaaaaaaaaaaaaaaaaaaapaaaaaaaaaaaaaaaaaaaaaaaaaewwwwewwwwwwwqwwwqwwwwwqwwwwwwwwwwwwwwwwwwwiaaaatwwwweewwwwwwqwwwwwww",
"wwwwwwwwwwweweppaaaaaaaaaaaaaaaaaaaaaaaaaaaaaaaaaaaaaaaaaatwwwwwwwwwwwwwwwwwwewwwewwewqwwqwweewqwwwwweaapapwwwwwwwwwwwwwwwwwwwww",
"666666665q56666qqqqqqqqqqqqqqaaqqqqqqqqqqqqqqqqqqqqqqqqqq9666666666666665q6665q566665q6q566q5ww6q56q6qqqqqq6q5666666666666665666",
"1111111111111111111111111111qpaq11111111111111111111111111111111<<<<1111111111111111111111116ww6<<111111111111111111111111111111",
"11111111111111111111111111115ww611111111111111111111111111111111<<1<1111111111111111111111116ww6<<111111111111111111111111111111",
"11111111111111111111111111<1qqw6111111<<111111111111111111111111111111<<1111111111<<111111116ww6<1111111111<11111111111111111111",
"1111111111111111111111111<$#5ww6111111<<111111<<1111111<1111111111111<<<11111111111<111111116weq11111111111<11111111111111111111",
">>>>,,,,,,>>,,,,,,,,,,,,,#  6ww61111>>>>,,,>,>>>>>>>>,>>>>>>>>>>,,,,,,,,,,,,,,,,:,,>>>>>,,##6eaq1111,,,,,,>>,,,,,,,,,,,,>>>>,,>>",
"$$$$$;$$$$$$$$$$$$:$$$$$$X  %ww61111>$$$$$$$$$$$$$$$;;$$$$$$$$$$$$$$$$$$$$$$$$$$$$$$$$$$##  &aaq1111,$$$:$$$$$$$$$:;;:;;$$$$$$$$",
"$$$$;;;;$$$$$$$$$::$$,$$$X  %ww61111>$$$$$$$$$$$$$;;;;=$$$$$$$$$$$$$$$$$$$$$$$$$$$$$$$$$$   5aaq1111,$$$;;$$$$$$$$:;;;;;$$$$$$$$",
"$$$$;;;$$$$$$$$$$$:::$,$$X  &wwq1111>$$$$$$$$$$$$;;;;;;$$$$$$;=;$$$$$$$$$$$$#$$$$$$$$$$$#   5aaq11<<,$;;;:$$$$$$$$$;;;;;$$$$$$$$",
"$$$$:;;;:$$$$$$$$::$:::$$#  %ww51111,$$$$$$$$$$$$;;;;;$$$$$$$:;;;;;;$$$$$$$,$,$$$$$$$$$$#   5aaq1111,$;:;;$$$;$$$$$$$:;;;$$$$$$$",
"$$$:;;;;:$:$$$$$$$$$$$$$$X  %ww61111,$$$$$$$$$$$;;;;;$$$$$$$$;;;:;;;;$$$$$$,:$$$$$$$$$$$#   5aaq1111,;;;;$$$$;:;;$$$$$;;;$$$$$$$",
"$$$;;:;;::::$$$$$$$$$$$$$   %ww61111,$$$$$$$$$$$;;;;$$$$$$$$=;;:;;;;$$$$$$,$;:$$$$$$$$$$    5aaq1111,;;;$$$$;;;;$$$$$$:;;$$$$$$$",
"$$;;;:$$$:$$$$$$$$$$$$$$#   %ww61111,$$$$$$$$$$$$;;;*$$$$$$$$$$$;$;:$$$$$,$:;;$$$$$$$$$$X   5aaq1111,;;;:$$$$;;;$$$$$$$$$$$$$$$$",
"$$:;;;$$::$:$$$$$$$$$$$$#   %ww61111,$$$$$$$$$$;;;;;;$$$$$$$$$$$$$$$$$$$$$$$$$$$$$$$$$$$    5aaq1111,$;;;$$$$:;:$$$$$$$$$$$$$$$$",
"$$;;;$$;$::$$$$$$$$$$$$$X   %ww61111,#$$$$;$;;;;;;:;;;$$$$$$$$$$$$$$$$$$$$$$$$$$$$$$$$$$    5aaq1111,$;;;;$$$;;;$$$$$$$$$$$$$$$$",
";;;;;$$=$:$$$$$$$$$$$$$$    %ww611<1,$$$$;;:;;;:;;;;;;$$$$$$$$$$$$$$$$$$$$$$$$$$$$$$$$$$X   5aaq1111,$;;:;$$:;;;$$$$$$$$$$$$$$$$",
"$$=:$$$;::$$$$$$$$$$$$$$    %ww611<<,$$$$;;;;;;;;;;;;;*$$$$$$$$$$$$$$$$$$$$$$$$$$$$$$$###   5aaq1111,$$:;;:$;;;;$$$$$$$$$$$$$$$$",
"$$$$$$;;;;$$$$$$$$=$$$$#    &qwq1111,#$$$;,$;$;$$:;;;;;$$$$$$$$$:;;$$$$$$$$$$$$$$#$$$$$$#   5aaq1111,$$$::$:$:>$$$$$$$$$$$$;$$$$",
"$$$$$$;;;;$$$$$$$=;$$$$X    &ww51111,$$$;;;;$$$$$=;;;;;;$$$$$$$$;;;;$$$$$$$$$$$$$$$$$$#%$   5aaq1111,$$$$$:$::$:$$$$$$$$$;;;$$$$",
"$$$$$;;;;$$$$$$*;;;;*$$#    &we51111,$$$;,$;$$$$$$:;;;;$$$$$$$$$;;;;$$$$$$$$$$$$$$$$$$$$$   5aaq1111,$$$$,:::$$$$$$$$$$$;;;;$$$$",
"$$$$$;;:;$$$$$*;;;;;*$$#    &we61111,$$$;;;$$$$$$$;;;:;;$$$$$$$$$:;;$$$$$$$$$$$$$$$$$$$=;   5aaq11<<>$$$$$$>$:::$$$$$$$$$:;;;$$$",
"$$$$;;;;*$$$$*;:*;;=$$##    &qeq1111,$$$;;;;$$$$$$==;;==$$$$$$$$$$$$$$$$$$$$$$$$$$$$$$$$$X  5aaq1111>$$$$$$$:$>$$$$$$$$$$;$$$$$$",
"$$$$;;;;$$$$*;;;=%$$$$$#    &weq1111,$$$;;;;$$$$$$$:;;;%;$$#$$$$$$$$$$$$$$$$$$$$$$$$$$$$$   5aaq1111>$$$$$$:$:$$$$$$$$$$$$$$$$$$",
"$$$=;;;;$$$=;;;;$$$$$$$#    %wpq1111,$$$;:;$$#$$#$$=;;$$$#$#$#$$$$$$$$$$$$$$$$$$$$$$$$$$$   5aaq1111>$$$$$$$$:$$$$$#$$$$$$$$$$$$",
"#$$;;;;$$$$;;;;;$$$$$$o#    %iaq1111,#$$;$$##X## #      # X####$$$$$$$$$$$$$$$$#$$$$$$$$$  #5aaq1111>$$$$$$$$$$X#####  X # ####$",
"   XXX  #  # #              &aaq1111%X                          #####$$$$#$$$$$$$#$$#$$##   5aaq11<<#X                          ",
"                            3aaq1111#                                 XX##X##XX##  #        5aaq11<$                            ",
"                            5aaq11<<                                                        5aaq111#                            ",
"                            5aaq11<<#                                                       5aaq111#                            ",
"&%%%%%%%%%%%&&&&%%%%%%&&&&353aaqqqq86&&%&&&&&&&&%%%%%%%%%%%%%%%%%%&&&&%%&&%%%%%%&555555555555aaqqq66q%%%%%%%%%%%%%%%%%%%%%%&&&&&",
"ewwwwwwwwwwwwwwqwwwwwwqwwwaaaaaaaarwwwqwwwwwewwwwwwwwwwewwwwwwwwwwwwwqwwwwwwwwwiaaaaaaaaaaaaaaaapwwwqwwwwwwwwwwwwwwwwwwwwwqwwwwq",
"wwwwwwwwwwwwwwwwwwwwwwwwwiaaaaapaewwwwwwwwqwrwwwqwwqwwqewwwwwwwqwewwwwwwwwwwwwypaaapaaaaaaaaaaaaiwwweewwwwwqwwqwwwwwwwwqwwwwwwww",
"66666666666666q566666668qqqqqqqq666666666666666665qq5q565qq&qwwq56665q6666666qqqqqqqqqqqqqqqqqqq6q6665q55q5q5q5q5qq&qq&q5qq55wwq",
"<<1111111111111111111111111111111111111111111111111111111111qww511111111111111111111111111111111<<11111111111111111111111111qww6",
"<<11111111111111111111111111111111111111111111111111111111116ww611111111111111111111111111111111<<111111111111111111111111116ww6",
"<111111111111111111111111111111111111111111111111111111111<<6ww6111111111111111111111111111111<<<<<1111111<<1111111111<<11116ww6",
"11111111111<11111111111111111111111111111111111111111111111<6ww6111111111111111<1111111<111111<<<<111111111<11111111111<11116ww6",
"1111,,,,>>>>>>>>>>>>>>,,,,>>,>>>,>>>>>>,>>>>>>>>>>>>>>>>,,##qwyq1111>>>>,>,>,>>>>,,,>>>>>>>>>>>>,,,,,,,,,>>>,,,,,,,,:,,:,,$ 6ee6",
"1111,$$$;=$$$$$$$$;;;;;;;;;;*$$$$$$$$$$$$$$$$$$$$$$$$$$$##  &aaq1111>$$$$:;=$$$$$$:::$$$$$$$$$$$#$#$$$$$$$$$$$$$$$$$$$$$$#  &ew6",
"1111,$,$;$$$$$$$;;;;;:;;;;;;:;;*$$$$$$$$$$$$$$$$$$$$$$$$#   &aaq1111>$$$=;;;;$$$$$$::$$$$$$$$$$$$$$$$$$$$$$$$$$$$$$$$$$$$   &pw6",
"1111,$$,:$$$$$;;;;;;;;;;;:;;;;;;;;$$$$$$$$$$$$$$$$$$$$$$#  X&aaq1111>$$$;;;;$$$$$::$$$$$$$$$$$$$$$$$$$$$$$$$$$$$$$$$$$$$#  X5ay6",
"1111,$:;$$$$$:;;;;;:;:;;;;;;;;;;;;;$$$$$$$$$$$$$$$$$$$$$    5aaq1111>$$$$$:;$$$$$::;$$$$$$$$$$$$$$$$$$$$$$$$$$$$$$$$$$$#X   &aaq",
"1111,:;;:$$$;;;;;;;;$$;:;;;;:;;;;;:;;$$$$$$$$$$$$$$$$$$#    5aaq1111>$$$$$$$$$$$$:$:$$$$$$$$$$$$$$$$$$$$$$$$$$$$$$$$$$$#    5apq",
"1111,$:$$$$$$:::$$$$$$$$;;;;;:;:;;;;;;$$$$$$$$$$$$$$$$$X    5aaq1111>$$$$$$$$$$$:;;:$$$$$$$$$$$$$$$$$$$$$$$$$$$$$$$$$$$#    &aaq",
"1111,,$:$$$$$;$$$$$$$$$$;;;;;;;;;;;:;;$$$$$$$$$$$$$$$$$.    5aaq1111>$$$$$$$$$$$;;;$$$$$$$$$$$$$$$$$$$$$$$$$$;:$$$$$$$##    &ap6",
"1111,,$:$$$$$$$$$$$$$$$$;;;;;;;;;;;;;;:$$$$$$$$$$$$$$$$     &aaq1111>$$$$:;;;$$$;;;;:;$$$$$$$$$$$$$$$$$:$,$:$,;$$$$$$$$X    qaaq",
"1111,$:;$$$$$$$$$$$$$$$:;;;;;;;;;;;;;;;:$$$$$$$$$$$$$$$     5aaq1111>$$$$;;;;::;;;;::;$$$$$$$$$$$$$$,$$::$,$:$;:$$$$$$$X    &aeq",
"1111,$:$$$$$$$$$$$$$$$$;;;;;;;;;;;;;;;;$$$$$$$$$$$$$$$$     5aaq1111>$$$;:;;;;;:;;;;;:;$$$$$$$$$$$$$$$,$:$,:$,$$$$$$$$%+    &pwq",
"1111,$$$$$$$$$$$$$$$$$$;;;:;;;;;;:;;;;:$$$$$$$$$$$$$$$$.    5aaq1111>$$$$$;;;:;;;;;;;$;$$$$$$$$$$$$$$:$:$:$$$$$$$$$$###+    5tq5",
"1111,$$$$$$;;;;;,;$$$$;;;;:;;;;;::$:$:;$$$$$$$$$$$$$$$$X    5aaq1111>$$$$$$$$;;::=$$$$$$$$$$$$$$$$$$$%$$$$$$$$$$$$$$$$$#..  &wwq",
"1111,$$$$$;;;;;;$:;;$$;;;;;;;;;;$$:$$$$$$$$$$$$$$$$$$$$#    5aaq1111>$$$$$$$$:;;=$$$$$$$$$$$$$$$$$$$$$$$$$#$$$$$$$$$$$$$.   qww5",
"1111,$$;;;;;;;;;;;;;$$$;;;;;;;;:%$$$$$$$$$$$$$$$$$$$$$$#    5aaq1111>$$$$$$$;;;;$$$$$$$$$$$$$$$$$$$$$$$$$$$$$$$$$$$$$$$$X   &ewq",
"111<,;;;;;;;;;;:$:;;;$$:;;;;;;;$$$$$$$$$$$$$$$$$$$$$$$$$    5aaq1111>$$$$$$;;;;=$$$$$$$$$$$$$$$$$$$$$$$$$$$$$$$$$$$$$$$$#   5tq5",
"1111,;;;;;;;;;;;,$;:$$$;;;$$$$$$$$$$$$$$$:;$$$$$$$$$$$$$X   5aaq1111>$$$$;;;;:;$$$$$$$$$$$$$$$$$$$$$$$$$$$$$$$$$#$$$$$$$X   5yeq",
"1111,;;:;;:;;;;;;;;;:$$$$$$$$$$$$$$$$$$$=::;$$$$$$$$$$$$+   5aaq1111>$$$$;;;;=$$$$$$$$$$$$$$$$$$$$$$$$$$$$$$$$$$$$$$$$$$+   5pwq",
"1111,;;;;;;;;;;;;;;;$$$###$$$$$$$$$$$$$$;:;;:$$$$$$$$$$$+   5aaq1111>$$$$$:;;$$$$$$$$$$$$$$$$$$$$$$$$$$$$$$$$$$$$$$$$$$$X   &iw&",
"1111,$$;$;$---###XX         XX##$$$$$$$$$$;;$$$$$$$$$$$$X   &aaq1111>$$$$$=$;;=;$$$$$$$$$$$$$$$$$$$$$$$$$$$$$$$$$$$$$$$$X   5iqq",
"1111,$$$##+XX                      X+#$$$$$$$$#X$$$##++X    &apq111<2#XX###$;;;;$$%$=$##$$$$$$$######X X         XXXX       5atq",
"1111>o.                                XXXXXXX              5aiq111<=    X     #  .#####X+XXX                               5awq",
"1111$                 ..                                    5aaq11<<#                                                       &awq",
"1111+                 .XX                                   &yeq11<<#                                                       &te&",
"66666%%%%%%%%%%%%&&%2%%%&&&&&&&&%%%%%%%%&%%%%%%%%%%%&&&&%%%%%wqq6q5q&&&%%%%%&%%%%%%%%%%%&%%%%%%%%%%%%%%%%%%%%%%%&%%%%%%%%%%%&eeq",
"wwwwwwwwwwwwwwwwqwwwwwwwwwwqewwwwwwwwwwweeeqwwwwwwwweewwwwwwwwweeqwqwweewwwwqwwwwwwwwwwweeqewwwwwwqwqeeqwwwwwwwwtewwwwwwwwwwtewq",
"wwqwrwwrwwqrrwwwwwwwwwwwwwwrrwwwqwwqwwqwwqewwwwwwwqwwqwwqwwewwqeeewwqwwqwwwwwwwwwwqqwwwweqeeqwwwwwwwwqewqqwwwwwwwqwwqewqwwwwwwww",
"66666666666666767666666666666ww6q5qq&qq&q5qqqq&qq5q&qq5q65q5q565q55qq5q6q566665qqq55qq&qq&qq5wwq5qq5q5qq5q3qq5qq55qq&qq5q&qq&qq5"
};
