/* XPM */
static char *c00794a683154d86d6b5567b888e070f[] = {
/* columns rows colors chars-per-pixel */
"64 64 256 2 ",
"   c gray30",
".  c #4E4E4E",
"X  c #505050",
"o  c #515151",
"O  c gray32",
"+  c #535353",
"@  c gray33",
"#  c #555555",
"$  c #565656",
"%  c gray34",
"&  c #585858",
"*  c gray35",
"=  c #5A5A5A",
"-  c #5B5B5B",
";  c gray36",
":  c #5D5D5D",
">  c gray37",
",  c #5F5F5F",
"<  c #606060",
"1  c gray38",
"2  c #626262",
"3  c gray39",
"4  c #646464",
"5  c #656565",
"6  c gray40",
"7  c #676767",
"8  c #686868",
"9  c DimGray",
"0  c #6A6A6A",
"q  c gray42",
"w  c #6C6C6C",
"e  c #6D6D6D",
"r  c gray43",
"t  c #6F6F6F",
"y  c gray44",
"u  c #717171",
"i  c #727272",
"p  c gray45",
"a  c #747474",
"s  c gray46",
"d  c #767676",
"f  c #777777",
"g  c gray47",
"h  c #797979",
"j  c gray48",
"k  c #7B7B7B",
"l  c #7C7C7C",
"z  c gray49",
"x  c #7E7E7E",
"c  c gray50",
"v  c #808080",
"b  c #818181",
"n  c gray51",
"m  c #838383",
"M  c #848484",
"N  c gray52",
"B  c #868686",
"V  c gray53",
"C  c #888888",
"Z  c #898989",
"A  c gray54",
"S  c #8B8B8B",
"D  c gray55",
"F  c #8D8D8D",
"G  c #8E8E8E",
"H  c gray56",
"J  c #909090",
"K  c gray57",
"L  c #929292",
"P  c #939393",
"I  c gray58",
"U  c #959595",
"Y  c gray59",
"T  c #979797",
"R  c #989898",
"E  c gray60",
"W  c #9A9A9A",
"Q  c #9B9B9B",
"!  c gray61",
"~  c #9D9D9D",
"^  c gray62",
"/  c #9F9F9F",
"(  c #A0A0A0",
")  c gray63",
"_  c #A2A2A2",
"`  c gray64",
"'  c #A4A4A4",
"]  c #A5A5A5",
"[  c gray65",
"{  c #A7A7A7",
"}  c gray66",
"|  c #A9A9A9",
" . c #AAAAAA",
".. c gray67",
"X. c #ACACAC",
"o. c gray68",
"O. c #AEAEAE",
"+. c #AFAFAF",
"@. c gray69",
"#. c gray72",
"$. c gray75",
"%. c black",
"&. c black",
"*. c black",
"=. c black",
"-. c black",
";. c black",
":. c black",
">. c black",
",. c black",
"<. c black",
"1. c black",
"2. c black",
"3. c black",
"4. c black",
"5. c black",
"6. c black",
"7. c black",
"8. c black",
"9. c black",
"0. c black",
"q. c black",
"w. c black",
"e. c black",
"r. c black",
"t. c black",
"y. c black",
"u. c black",
"i. c black",
"p. c black",
"a. c black",
"s. c black",
"d. c black",
"f. c black",
"g. c black",
"h. c black",
"j. c black",
"k. c black",
"l. c black",
"z. c black",
"x. c black",
"c. c black",
"v. c black",
"b. c black",
"n. c black",
"m. c black",
"M. c black",
"N. c black",
"B. c black",
"V. c black",
"C. c black",
"Z. c black",
"A. c black",
"S. c black",
"D. c black",
"F. c black",
"G. c black",
"H. c black",
"J. c black",
"K. c black",
"L. c black",
"P. c black",
"I. c black",
"U. c black",
"Y. c black",
"T. c black",
"R. c black",
"E. c black",
"W. c black",
"Q. c black",
"!. c black",
"~. c black",
"^. c black",
"/. c black",
"(. c black",
"). c black",
"_. c black",
"`. c black",
"'. c black",
"]. c black",
"[. c black",
"{. c black",
"}. c black",
"|. c black",
" X c black",
".X c black",
"XX c black",
"oX c black",
"OX c black",
"+X c black",
"@X c black",
"#X c black",
"$X c black",
"%X c black",
"&X c black",
"*X c black",
"=X c black",
"-X c black",
";X c black",
":X c black",
">X c black",
",X c black",
"<X c black",
"1X c black",
"2X c black",
"3X c black",
"4X c black",
"5X c black",
"6X c black",
"7X c black",
"8X c black",
"9X c black",
"0X c black",
"qX c black",
"wX c black",
"eX c black",
"rX c black",
"tX c black",
"yX c black",
"uX c black",
"iX c black",
"pX c black",
"aX c black",
"sX c black",
"dX c black",
"fX c black",
"gX c black",
"hX c black",
"jX c black",
"kX c black",
"lX c black",
"zX c black",
"xX c black",
"cX c black",
"vX c black",
"bX c black",
"nX c black",
"mX c black",
"MX c black",
"NX c black",
"BX c black",
"VX c black",
"CX c black",
"ZX c black",
"AX c black",
"SX c black",
"DX c black",
"FX c black",
"GX c black",
"HX c black",
"JX c black",
"KX c black",
"LX c black",
"PX c black",
"IX c black",
"UX c black",
/* pixels */
"| B z z z z @ = = = 2 2 2 b b V V V b b c c 7 7 $ $ 2 y H ` | ` _ _ ! x x x a = = > = = O e b | | | | | F F b b ` ` [ [ $.$.@.@.",
"E z z z z z = = 2 2 2 b @.@.@.! ! ! c c c c 7 O $ $ 2 y ! | | | _ _ _ ! x x x a = 4 > = O O e b | | F F F b e b ` ` [ $.$.@.@._ ",
"S z z z b 2 > > 2 7 b @.@.$.| X.@.! ! c c j 6 # 3 y y _ $.| H _ @.@._ _ ! B x a a = = 4 > = O O e b b b e e b ` [ [ $.$._ _ _ _ ",
"m Z Z z b + > 2 7 b @.$.$.@.X.X.@.! V V c c + , t y _ $.| ! B H ! @._ _ ! B x x x a = 4 = = O O O O = = e b ` ` [ $.@.@._ _ Z Z ",
"B Z Z Z b = 2 7 b X.$.$.X.X.| ( ! V V V c l = : 8 ! | | ! H B B H ! $.@.! B B F N N = 2 = 2 2 2 2 > = = ` ` [ [ _ _ H H H H H c ",
"Z Z Z Z 2 = 2 b X.$.$.$.X.X.( ( V V V V c a , 9 R | | ! H B B B B H @.$.! B F F N N a = $ = 2 2 2 2 = b T ` [ [ E H c c m m c c ",
"Z Z Z z 2 = | | $.$.$.X.| ! ! V V V c c B p < u ! | ! H B B B B B B ! H F F F F G B N 2 $ $ = 2 3 3 = x L T _ _ H H H H c c m m ",
"Z Z z z = b | | | $.X.! ! ! V j j V c c j w < y ! ! H B B B B B B B H B F F F F G G N 2 $ $ $ = 3 3 < w m P T _ _ H H c c c m m ",
"Z c b = b | X.( ! X.! ! V V j j c c c c i = y c ! | | H H B B B B H c c c H H N N H G a X $ $ $ 4 4 2 2 t x H T _ _ m m m m m Z ",
"c c = = b | ( ( ! ! V c V j j j c c c x t # y c ! | | | ! H H L H H c c c c N N N N G G X $ $ $ * 2 2 2 , a C I ) _ H m m m Z Z ",
"b + 2 2 O b ! ! ( V V z j j c c j j i p 8 @ y c ! | _ ! L ! ! L N N b j c c c H G G N 2 X X # $ * 2 4 4 2 5 b H Y R T H m m m m ",
"+ + 2 < * b ! ! ( V z z j j c j j h i e $ O $ c ! | _ _ L L L L N j j j c c c c G G N # o X # % % 1 2 2 2 2 h v L L J H T H m m ",
"= 2 2 2 3 7 l W Q Q V j j j z z j f t 7 O O $ c j | ! ! b b b b j j j N N c c c c c 2 + O $ $ ; z N N m h y q 9 z S b h b = = = ",
"= 2 2 2 2 2 8 c Y Q V V j j z z h a r @ O O $ y j | ! b b b b b b j j j N N c c c 4 = $ = 6 s K ` ] ] ~ D g 0 3 2 7 d ; + + = = ",
"> > > > > < 4 9 a J Q V V j j j p y O O @ @ # r c ! c c j b b b b b j j c c c c 1 3 6 q z E _ ] ] ] ] ` ~ H z 7 2 2 2 2 2 2 = = ",
"> b b b c u 5 ; $ 2 F U B n j d > O O O * % $ & l c c c j j b b b b b j c c 2 < * w x E | ] ] ] ] ] ] ] ^ N v g 8 2 2 2 2 2 2 2 ",
"E E _ _ Q D u % $ $ & - , 3 5 & + + O > > ; * * > 2 j j c c c c c c j j 2 & # e Z ^ [ X.#.| | | W W W F c c c x g e 4 2 > t t t ",
"E E _ | | ^ x < & $ $ $ $ $ $ $ w w O O > > ; - : > u j c c c c c c j 2 + 7 e ~ | | $.| | | W W R F c c c c c b B k r 4 t t w b ",
"E | +.+. .| ) n 7 $ > > > > > w N N N > > > > 3 1 1 > < j j j j 2 2 o o < r | | | $. .| Q W W K S c c c c c c c c m x 7 r t E E ",
"| +.+.+.| | Q C 7 $ > > w N N ! ! ! H H H N 8 8 8 6 < & , g j 2 X X X * 7 Q | $.$.o.../ ! G M n c c c c c c c c c v K a 8 u E E ",
"+.+.+.+.E E n v y - q N H H O.O._ _ _ _ _ _ H V a 6 < : = $ $ $ # @ % 4 W | $.$.$.o.) / J c c c c V V V H V c c c H G c 4 b E +.",
"+.+.+.E E b l k s 9 k H _ O.$.O.$.O.O._ _ o.! Q D k 6 6 = $ $ $ # # 2 B | $.$.$.o.( ^ F c c c c V V V V H H V c V V V Z 6 b +.+.",
"+.+.E E b l g d u w ^ H O.$.O._ O.O.! ! o.! H ! v n l 8 8 $ > $ 8 8 $ W $.$.$.| ^ ^ F c V V V H H V V V V V K K V V V G 6 c b +.",
"+.E E n l j s j 6 l _ _ O.O._ _ O.! ! ! H H H H x c v j 6 ; < 8 8 > $ N $.| | ^ ^ F c c V V H H H H V V V H K K H V H V 8 g s / ",
"E E l l g p h 2 4 N ! O.O._ _ _ ! ! H n n n j j j j l x f 8 > , 2 2 2 2 N W | W F c V V V H F F C H F F K K H C V H W g q < q p ",
"E b l k y r < - 2 7 ! _ _ _ _ E H H n n n j j j j j x z p 7 , & 2 2 2 2 * n F F c c V V H H F F C C F F K K C H V H N @ > : 4 u ",
"f f f d 7 = ; & > > N ! ! ! H H N n n n j j j j j x x x 2 & = , > 1 2 2 2 < m F c V V F F F C C F F F F H C K K Y S q 5 ; = = x ",
"f f b r * * - > 7 > 3 N ! ! ! ! n n n j j j j j x x M = $ $ 1 , 4 7 q w 5 2 6 f z c D F F F C H F F F F C J L J p 1 , : - - = = ",
"b b s & * - y f a a a a 3 w N ! ! H H x x x x x N s & $ $ 2 w N b B Z x k d 6 4 9 a S Y E W C C C H H C Y I N y , : > > 6 7 7 > ",
"= = % - , 7 f f b b a a + o   3 q 0 m N n k 4 + - % $ $ w c m C C C ! L m b w q 5 7 w e e C H C C C C G M 3 # + ; : > 7 7 7 7 7 ",
"> > > 2 p f b F F _ _ F u , % $ $ * < , * $ $ $ $ $ q Z ! R D D I Y ] [ Y Y N b c h 9 < 2 3 w w 2 2 2 > 5 : : : > > 7 7 7 7 7 7 ",
"> > > > f b F _ _ _ _ _ R z w , = * = % $ $ $ $ % w Z Z Z Z F W Q ^ ] | [ ^ Q n b b b w w 3 + 3 3 w w w : : : : > 7 7 7 7 7 7 7 ",
"2 2 > > b _ _ _ | $.$.$._ R S m l k 3 : : : : : Z Z Z ! ! Z ! ( { ] } | | | ! ! C J J b c c a w a D D D D w : : 5 5 5 5 2 2 7 7 ",
"2 2 > > F _ _ $.$.$.| | _ _ ) Q G Z N 8 , : : w Z Z X.X.X.! ! | | .. ...| | | ! L J J J c c a c Q Q D D D D w : 5 5 5 2 2 2 7 7 ",
"2 2 2 b _ _ $.$.| | | | ! ! | ! A m m M y 3 : w w Z Z Z Y Y T | |  .X.X.X...| { W L Z c w b a H Q Q Q Q K F D D = - 2 2 2 2 2 2 ",
"2 2 2 b _ _ | | | | | | ! ! ! V b b b B f w , : w w Z Z I S I E [ | X.X.X.X. .| ! J Z c a w D F L E Q Q Q A m 9 = ; 7 2 k b b b ",
"b > > b ! ! ! ! | | | ! ! V V c c c V F x 9 , - o w w u p n Z E Q { ..X. . .| ( ~ S Z b c c D D G L A f w 9 = = = ; b K K ! | | ",
"b > > V b ! ! ! ! ! V V V V c c c V F S s - , 1 = o w w w w C S Y Q  .X. .| _ ^ G C b a c c c D D F i @ o o = = b K K ! | | | ! ",
"b b 2 2 V c V V V V V V c c c V V F V b 4 # > 2 2 = & $ % 8 u N A S D R ! ^ ! V V V a w a b c c w 1 o o o 2 K K b K ! | | | ! K ",
"b b + 6 j c c c c c V c c c V V F V h j + : > 2 2 2 = * @ # 5 0 m B V A Y Q S Z Z c b a w a c c 1 . o o 2 b K ! ! +.| | | | K n ",
"b b O % , h B V V V c c c V V F V z g * ; : : 2 2 2 1 1 ; & = ; q w f B C Z Z a c c c c c c w 1 o o o 1 K K ! +.| | | | ! ! n n ",
"b b O @ & 6 c B V V c c V V D B k h ; # : : 2 2 2 2 2 2 9 7 6 ; % & 8 u z c a a c c c c c c 1 X o o 1 b ! +.+.+.| | | ! ! K n n ",
"b b O O + ; 8 i k c c c c j j d h = O : : 2 2 2 2 2 4 6 8 9 9 9 - = + 6 a a c c c c a a w 1 o o 1 1 b K +.+.| | ! ! ! ! C n n c ",
"b 7 O $ O # = , 9 u b v j l u r o X : : 2 2 2 b b c l g u y q 9 = = O $ q w w c c c a 1 X X = = 1 b K ! +.+.| ! ! ! ! K n n n c ",
"b = $ $ O * * & * & * w x 9 @ o X : : 2 2 2 n _ _ O.W F x z z z a ; $ $ @ o w w w w = = = = 2 2 K K ! +.| | ! ! C K K K n n c c ",
"7 = $ = $ = = = & @ + - : @ O + : : 2 2 2 n _ _ _ _  ./ L B n c z z ; * # + o o = = = = = = 2 b K +.+.+.| ! ! M K K K n n c c c ",
"7 7 $ O + < O : $ $ $ # * = = = : 2 2 2 _ _ _ _ E O.O.X.` Q M b x j a M e , # O o o = 2 2 2 K K ! +.+.+.! ! C N K K M M c c c j ",
"+ $ $ $ - < n n n n n d * * = = = 2 2 b _ _ _ _ o.O.O.O. .{ E n v z b F Q C g d 2 & < 2 2 b K ! +.+.+.+.! ! N N M K M M K c j j ",
"+ @ > > s F ^ ^ E E E K p r 4 = * * * b z n _ ^ ' ' O.O.) ` E J D Y W W ( R C B u 2 2 2 2 c K ! | | | ! ! K M M M M K K c j b 7 ",
"@ & 1 k R ^ ^ E E E E E F v h 6 = * * ; z z M F ( ` o.E E E J H E .. . .{ [ ' ^ V 8 4 2 2 j K K | | | | K M M M M M K K j j % % ",
", 2 ! ~ ^ ^ E E E ^ E E T J B v 2 * * * + s z x P ~ ~ W E H H H E ! ......( / ) ) N t 7 2 6 B K P Q | | K M M M M M K c b 9 < - ",
"2 n ^ ^ E E E E ^ ^ E E T T I C i - * * % = u l m U R E I K H J R W L | ! ! ! ! ~ ! v g 9 4 f A K L { | C M M M M K c c b 9 : * ",
"A _ _ _ [ [ [ [ T G G T T V V C a 7 = * * % ; i g p s n V Z N v V Z D E G E E E E C x d 9 4 0 h M V C ! C C C C c c c j r , $ 5 ",
"~ _ _ _ [ [ [ [ _ T G G V V V n h r 8 = $ = + = , 7 9 9 u a a d z b F B G G E E M M f p w 5 , 9 i l v C C C C c c c h f 6 % 4 b ",
"U / [ [ _ _ E _ _ _ T G G G V g g s t 7 1 % $ $ O o 4 q 0 u a a d d l f m M M M M z z e q 7 > - 1 g z l k j c c c f i & * = 5 b ",
"Z Y ` ( ( _ E E _ _ _ T G G f f c l s p f 6 $ # # X @ : 1 4 y p w q i s s b M M z z z l y r 9 > - < d k k z c c a 6 $ = = 2 5 5 ",
"q n R ! I D D T E _ _ _ T c c c V S h x z k y 8 : $ * & O @ 2 7 5 < : 8 y a z c c c a a a a 0 4 < < 1 y d z M j * % = = 2 5 5 5 ",
"6 6 v S H D D D E E _ _ E c f D D E D c c c z h y > $ * o X o @ @ @ O % 7 i a c c a a a a 6 ; : , 4 < ; 4 0 8 1 = $ = = 5 5 5 5 ",
"2 2 7 N N c g f D E E E c c D D E E D f c c h h h a > % = ; : : ; ; * * * 4 6 6 a a a a 6 = 2 2 2 1 3 - = < 3 4 < = = 2 2 2 2 2 ",
"n z 2 : k x g f f D E f c c f c D D f c c x f d u 0 = $ ; : : : a a = = o + # @ 3 r a 6 = = 2 2 h c b n 2 5 5 4 5 2 2 2 2 5 e z ",
"B B z z 6 7 8 V f f f f c c f D c c c x g h z i = - 6 3 6 7 M Q c c a a ; ; & & O 4 6 X > 9 2 k F U ! _ F n 2 2 2 2 2 5 b ` H B ",
"B B B B z 7 = 7 f f f f f c f f c c c l h a : $ $ 7 7 7 7 H ` ` c c c c a ; = = X X X X 9 9 n ) ` ` X.` F F n 2 2 2 2 n ` _ _ H ",
"b b B B z z 7 2 = 7 7 7 7 c V V V 7 1 0 3 4 6 $ 7 7 7 7 H ` ` ` ! c c c c a = = = = = = 2 2 ` ` @.@.@.` _ n F F 2 5 n ` ` @._ H ",
"H b B B z z 2 @ @ @ = = @ 7 7 = = = 6 j c 7 7 7 7 = 7 7 H ` | ` ! ! c c c a > > > = = = 2 n ` @.@.@.` _ _ _ F F n n ` ` $.@.@._ "
};
