/* XPM */
static char *result[] = {
/* columns rows colors chars-per-pixel */
"64 64 106 2 ",
"   c #14100A",
".  c #16120B",
"X  c #1A150D",
"o  c #261F13",
"O  c #282015",
"+  c #4F3F26",
"@  c #5E4A2D",
"#  c #614D2E",
"$  c #624E2F",
"%  c #634F30",
"&  c #624E32",
"*  c #644F30",
"=  c #654F30",
"-  c #645030",
";  c #655030",
":  c #665231",
">  c #675332",
",  c #695433",
"<  c #6A5634",
"1  c #6B5634",
"2  c #6C5534",
"3  c #6C5735",
"4  c #6C5835",
"5  c #6E5936",
"6  c #6E5938",
"7  c #705937",
"8  c #715B36",
"9  c #725A38",
"0  c #735B39",
"q  c #755C3A",
"w  c #7C653B",
"e  c #7B623D",
"r  c #7F673D",
"t  c #8C4E2E",
"y  c #8F542F",
"u  c #90522F",
"i  c #905232",
"p  c #935534",
"a  c #955A35",
"s  c #985C37",
"d  c #955A38",
"f  c #9D5D3B",
"g  c #80643F",
"h  c #80693D",
"j  c #846C3F",
"k  c #9E623D",
"l  c #A0603E",
"z  c #AD633D",
"x  c #B1663D",
"c  c #876F41",
"v  c #896A43",
"b  c #8B6F46",
"n  c #8D6D45",
"m  c #8C6F45",
"M  c #887041",
"N  c #8A7142",
"B  c #8C7343",
"V  c #8D7444",
"C  c #8E7248",
"Z  c #917347",
"A  c #907745",
"S  c #927846",
"D  c #927946",
"F  c #95744A",
"G  c #95774A",
"H  c #97784A",
"J  c #967C48",
"K  c #977D49",
"L  c #96784C",
"P  c #997A4B",
"I  c #9C7C4D",
"U  c #9D7D4E",
"Y  c #9C7D50",
"T  c #B26842",
"R  c #B46940",
"E  c #B56B45",
"W  c #B96E45",
"Q  c #BC7148",
"!  c #BE734B",
"~  c #C0754C",
"^  c #C57849",
"/  c #CA7C4D",
"(  c #9A804A",
")  c #9E834C",
"_  c #9F844D",
"`  c #A18050",
"'  c #A38251",
"]  c #A48351",
"[  c #A38354",
"{  c #A88754",
"}  c #AA8754",
"|  c #A98857",
" . c #AE8B57",
".. c #AA8958",
"X. c #AF8E5B",
"o. c #B28F59",
"O. c #B18E5B",
"+. c #B4905A",
"@. c #B6935E",
"#. c #BA9761",
"$. c #BC9862",
"%. c #CD804E",
"&. c #D18250",
"*. c #D08253",
"=. c #D48553",
"-. c #D88957",
/* pixels */
"o o o o o o o o o o o o o o o o o o o E W W E E W E E E x W E W E W E W E E E E W E E E o o o o o o o o o o o o o o o o o o o o ",
"o m G V V V V V V V V V V B M r 8 o W W W W W E R W W W Q ! Q W Q E W W W W ! E W W Q R W O e C Y I U U [ [ [ [ [ [ [ U U c h o ",
"o G ` } K } K K } K K K J D N w o E E ! W Q W ! ! Q W W Q W E W E E ! x E E W Q ! ! Q W W W O b P ] J } } O.O.O.O.O.O.} K ` c X ",
"o U } +.+.+.+._ +.+._ o.( S j o W W W ! W Q W Q E E W ! E W E E E E E W E W E W Q W W ! W ! ! o Z ' ( ) +.+.$.$.$.$.$.+._ K V X ",
"o U O.+.+.+.+.+.+.+.o. .n 6 X E W W ! W Q Q W W ! E E ! W W W E W E W E E W E E E ! Q W ! E E W o j S ( o.+.$.+.$.$.$.$.+.K V o ",
"o U } $.$.$.$.+.$.o. .S & . E E W E W W W W W E E E E W E E E E Q W W W E W E W E W E E W ! Q Q ! o j S  .o.+.+.+.$.$.+.+.K V X ",
"o U O.$.$.$.$.$.#.@.' g . E E E W ! W W W W E E E W W E E E ! ! Q W ! ! W ! E ! E Q E E W W W W E W o Z ' @.o.$.$.$.$.$.$.} V X ",
"o U } $.$.$.$.o. .' Z o E E T W E ! ! W W W E E E E W ! E ! E W W E E W W W E W Q Q E x W E E ! ! W x o Z '  .o.$.$.$.+.$.} V X ",
"o U O.$.$.$.o. .' j o E W W W E E W E E E E W W W W W W W W ! Q ! W E E E W Q ! W W E Q E W ! W E E E E o Z ' @.#.$.+.+.$.} V o ",
"o U O.$.+.o. .' Z o E ! W E E W E E E E E W W W ! E Q E E W E E E E E W ! ! ! E W W ! ! W W Q E E W W E W o Z ' @.o._ +.+.} V o ",
"o U O.+.o. .' Z o x E W E E Q ! E E W W W E W E Q W ! Q Q W Q W E T E E E Q ! W ! W W W E ! ! W E E E E W ! o Z '  .) +._ } V X ",
"o U } o.( ' j o E E E W W W ! Q E W E E E W ! W W E W E E W Q E z T E x E E x ! ! E W E W W ! E E W E W W W W o j S ( o._ } V X ",
"o V { ( S j o W E E E W a p f p a a p a p s f l a a a s a p f p p p p p s p p p f s p a p a p f f E E W E E W W o j S ( ) } V X ",
"o B D S j o W W E x E E p W E E E W W E W E W x a E E E E W W W ! W E E p W E E E W E E W x E E p =.E E E ! ! E W o j S ( J v o ",
". % * $ . T E E E E E x p E T E E z T E E E E W p E E E E z E E T E E E p E E E T T E T T T E T p *.T E E z T E E E X , 5 5 3 X ",
". # # . E E T E z z T E p E E E E E E z E T T T a z E E E T E E E E z E a T E z T z T z z T T E d / E z z z E E T z E X , 1 < X ",
"o 8 o E W W ! W E ! E E p E E x E E x E W W E E a E E E E E E E E W W E a ! E W ! W E W E x E x p =.W E E E E E W E E E o w r o ",
"O O ! ! ! x E E E W E W p W W E E E W W E E E E k ! W ! ! W W E E W E E a W W E E W E W E z E E p &.E E W ! W E E ! W W W O e O ",
"O W W ! ! E W E W E E ! a W E W E E E E E W Q E f W W Q W ! W E W W E W s E ! E W ! E E z T T E a =.! W E W E W E E W ! ! Q O O ",
"E W E E W E x E E E E E p E ! E W E E E ! ! W ! a E W Q E W E E E ! ! W f ! E E E W W E E E E E p =.! W W W W W ! W E ! W Q E o ",
"E E E W E W W W E E T W s E E W W W E E ! E E W f ! W Q ! ! W W E ! ! W k ! E ! Q E W W E E E E a *.! E E W E E W E x E E E E E ",
"E E W E W E W W E E T z p W W E W Q W ! ! W E E a W Q W ! W W E E ! ! W s Q E W E ! W W E ! E ! f / W x E E E W E W W W E E T W ",
"W W E E E W W E z z T E a Q ~ W W E Q W W W E W f W E W ! E E E ! E W Q f W W E W Q W W E W W ! f =.E ! E E W E W E W W E E T z ",
"E E W Q W W ! E E E z W p W E E W Q W W ! W E ! f W E W W E W E E ! W W a Q W E E ! E W W W W W p =.W ! W W E E E W W E z z T E ",
"W Q Q W Q Q W E W W ! W s f a f f f f k f s s f a a f f k f f f a k a f a a f a a a p a a a a f s =.E E E E W Q W W ! E E E z W ",
"W W Q ! Q Q W ! Q W W ! s ! ! W W W ! W E Q W E a E x W Q ! E E W Q W x a W W W E z T E E W W ! f =.W W W Q Q W Q Q W E W W ! W ",
"W W W Q W Q ! W Q E W W s W ! E ! W ! Q W E W W f E E W W E ! W ! ! E W a W W E T z T E W E W W s =.! ! E W E E W E x E E E E E ",
"W W ! W Q W W E Q ! W W f W ! W E Q W E E E W E s x E E E ! W E E W E E a E W E E T T E E W E W p &.W E E E E W E W W W E E T W ",
"W E E W E W E E E E E W p W Q E x E E W E E E E a W E E E E W E ! W W E a ! W E E E W W E ! W ! a *.W E E E W E W E W W E E T z ",
"E E E W E E E E E W E E p W E E E E W W E x ! W a W W W ! W E E W E W W a W W W W E E x E E ! E p %.E E W W E E E W W E z z T E ",
"E E E E z E z T E E z E p E E E T T T z T T z E a T E E E E E E E E E E p z x E E E E E T T E E p =.T E E E W Q W W ! E E E z W ",
"z z z T E z E T T z T T i E T E z T E z z T E E p E E z z E E x E T E E a T T T z T z T z T z z p ^ z z W Q Q W Q Q W E W W ! W ",
"E E E E E W E x E E E W p E E E E W E E ! E E E a W E E W E E E E E E W a E E E E E W E E ! W E u =.W E W W Q ! Q Q W ! Q W W ! ",
"E W E ! Q E E W W W W E f ! W W E W E W z E E E a W W E Q W ! ! Q ! W E k W W W W W ! E W Q E W f =.Q W W W W Q W Q ! W Q E W W ",
"E W W W W W E Q ! ! W E p Q ! E E E E E z T T T a W E E W ! E W ~ ! ! W f E W W E W W W W E W W p -.! ! W W ! W Q W W E Q ! W W ",
"E Q W Q ! W W ! W W W E u ! W x W W E E x E z E p E E W ! W E W E Q W E s ! W W Q Q W W E E W W p =.W W W E E W E W E E E E E W ",
"W W W E ! W W E W W W E s p f a a f a a p a f a f s f f f k k f f a f a s a k k a a a a a a a a f &.! W E E E W E E E E E W E E ",
"W W E W E E ! ! E W W E a ! W W E W ! W ! E W Q k E Q E Q Q Q ! W W ! W a E E W E W E E T E T E a =.W E E E E E z E z T E E z E ",
"E W W W E E W W E E W E f ! W E ! W ! ! W ! E E a E W W W W W W E ! E E a W E ! E ! W x z E E E p =.W E z z z T E z E T T z T T ",
"E W W E W W E E W Q W W s W ! W Q W W W W W ! E s W W W E W E W E E E E a E E E E W W ! W T x E f =.! ! E E E E E W E x E E E W ",
"W W W W E E ! W W W E ! p W E W W ! E ! Q Q W W s E E W E W E E E E W E a W E E E Q Q E E W E W f =.W W E W E ! Q E E W W W W E ",
"! x Q W E E E E W Q W ! p W ! ! E E W W W E W W f ! W W E ! E E W E E W a W W W E W W W E W W Q s =.W W E W W W W W E Q ! ! W E ",
"W Q W Q Q E W W W W W W p E W W W E W E Q E E W a E E W E W W E E ! W E a E E E W E W E E Q ! ! f =.! E E Q W Q ! W W ! W W W E ",
"E E ! W W E W E W E W W s Q E E W W W ! E E E W y x E E E W W W W W ! Q a W W E E E ! W W W E ! s =.E W W W W E ! W W E W W W E ",
"x W W W W E E W W W Q E s E E W E W W E E E E W f E W ! ! E E E E E W ! a E W E E ! W E W E W E f =.W E E W E E W E W E E W E X ",
"o W E W E E W W ! W W ! p E E W E ! E E E W E E a W x E E E ! W E W W W a W E E E W E W E E W W p *.W E W W W E E E E E ! W o o ",
"X X E E E E T T x E z E p E E E E z E E E E z T a T E T x E T T z E z z a E T E z E E E E E T E p / T E z z T z z E E E T X $ X ",
"X $ X z E E T z x T E T t T T z z z z z z z E T d z T T E z x E E E E E p E E z T E T E E E E E p / T T T z E z T E E T X : > X ",
"o r w o E E W E E W x E p u a p p a p p f a f p f a f f s a p p p p s s p i t a a a a p f a p s f =.E W W E W E E E E o j N M o ",
"o H P Z o ! R Q W E W W E =.=.=.=./ =.=.%./ =.*.=.&.=.=.=./ / =.%.=./ / *./ / ^ =.=.%.=.*.=.%./ =.=.E E E E W E E ! o Z ' ] I o ",
"o I ..' L O W W E W W E ! W W ! ! Q ! W E Q E W W W W W W E W W E W ! E E T T z E W ! E W W W E Q Q E E W ! W W E o Z S ( J U O ",
"o [ X.@.| Z o W W E E E W W W W ! E ! E W E ! E Q W ! W E E E z W W E E W E z E Q W E ! W E E W E W ! W W W E E o L |  .) K V o ",
"o U } o. .S j o W z E E W ! W E E E W E E Q E ! W W E W E W W W ! W E E Q W Q Q W E W W W E E W W E W W ! E x o j '  .) _ K V o ",
"O U } _ ) ( S j . T z x E E ! ! W W W W E E W W W W W E W E E E E ! W W ! W ! ! W E E E W Q E E E W Q E E E o j S ( ) _ _ K U o ",
"o U } _ _ ) ( n & . E E E W W ! W Q W Q W E E ! E ! W W E E W E E W ! ! E E Q E W W W Q E W W E W E E E W o j S ( ) _ _ _ } [ o ",
"o [ } +._ _ ) F q & . E E ! W E W W W W E W W ! ! E E E W E E E E ! ! W E W E W W Q W Q Q E ! Q W W E E o j S ( ) _ _ _ +.} U O ",
"o [ O.$.+._ _ ) F q g o W E W E W W E E E E E ! E E E W x ! E E W ! ! W ! E W ! ! E E W ! E Q ! W W E o j S ( ) _ _ +.+.$.O.[ O ",
"o U O.$.$.+._ _ ) F S j o E E E W W E E E W E ! E W W E E E E E W W W W E E ! W W E E E Q W Q W W ! o j S ( ) _ +.+.$.$.$.O.[ O ",
"o [ } +.+._ _ _ _ ) ( S j o E ! W E E W E W W E x E W E W E E E E E W E W ! ! E E E E E W W E E W o Z S  .) _ +.$.$.$.$.$.O.[ O ",
"o U } _ _ _ _ _ _ _ ) ( S j o ! E E ! E W E E E E W E W E E E E E W W E W W E W W E E E W ! W W o Z '  .o.+.+.+.+.+.+.+.+.} U o ",
"o V K _ _ _ _ _ _ _ _ ) ( S j o W E E W E E E E E E E W ! W E E E E E W E E ~ W E E E E W E E o j S ( ) _ _ _ _ _ _ _ _ _ K V o ",
"o c A K K K K K K K K K J D N w o W E E E W E W E E E W W E E T ! W E E x E E ! E E W E W W o w N D J K K K K K K K K K K A c o ",
"X > < 4 4 4 0 0 0 0 0 0 0 9 7 2 = X E T E E E E T E E E z E E E T E E E x E z E E E E E E X @ # % - + + ; ; ; ; 0 0 0 0 0 < > X ",
"X . . . . . . . . . . . . . X X . . . E E E T T z E E E E T T z E T E E z T T E E T E E . . . .         . . . . . . . . X X X X "
};
