/* XPM */
static char *_5dff3b421414e9dfb32b4ceca9c8edb[] = {
/* columns rows colors chars-per-pixel */
"16 16 53 1 ",
"  c #0E0B06",
". c #120E09",
"X c #18130B",
"o c #19130B",
"O c #19140C",
"+ c #1C170F",
"@ c #251E11",
"# c #261F12",
"$ c #272113",
"% c #2B2315",
"& c #2C2417",
"* c #422515",
"= c #432716",
"- c #492113",
"; c #4A2A18",
": c #4B2B18",
"> c #4D2D19",
", c #502616",
"< c #4A311C",
"1 c #4C321D",
"2 c #523521",
"3 c #533622",
"4 c #533722",
"5 c #543723",
"6 c #543823",
"7 c #553824",
"8 c #583B27",
"9 c #8B4D2C",
"0 c #8D502D",
"q c #91542F",
"w c #985B33",
"e c #9E5932",
"r c #A35E34",
"t c #9D6639",
"y c #9F683B",
"u c #A0683C",
"i c #A16A3E",
"p c #A26B3E",
"a c #A36B3F",
"s c #A36C3F",
"d c #A46D41",
"f c #A96C41",
"g c #AB6E42",
"h c #A77043",
"j c #AE7145",
"k c #AF7347",
"l c #B07347",
"z c #B17448",
"x c #B18D57",
"c c #B28E58",
"v c #B4905A",
"b c #B6925C",
"n c #BA9660",
/* pixels */
"OO Ooo   oo oOO+",
"Ovx%jlljgjjj&nvo",
" b#istiihsiss$vO",
"O%d3>636>:634s& ",
".ji3er3jj>ez4sjo",
" ji6js=qd<0e4iko",
" js63<66>31:3sj ",
" zi8js6jj6sg4sk+",
"olw5li5lk6sj6yzo",
"ol9>3<65>6156ijO",
"ojs>ei1i0=iz7szO",
" ji6el3jj3ez4djo",
" %s66>5665337s% ",
" c@siiisiiddh$c ",
".vv%llggllgj%vvO",
"oo oo,-,,,:O   O"
};
