/* XPM */
static char *_6f932d44d1342afd161a9034d2b4409[] = {
/* columns rows colors chars-per-pixel */
"64 64 145 2 ",
"   c #5D5D5D",
".  c #646464",
"X  c #6B6B6B",
"o  c #757575",
"O  c #7C7C7C",
"+  c #6DBFE6",
"@  c #76BEE3",
"#  c #53D4DD",
"$  c #5CD1DF",
"%  c #5CD7E5",
"&  c #57DDE6",
"*  c #5ADAE7",
"=  c #5FD7E9",
"-  c #5BDDEA",
";  c #6AC2E4",
":  c #6FC3EC",
">  c #6BCDED",
",  c #72C1E6",
"<  c #71C5EE",
"1  c #79C7ED",
"2  c #73C9EC",
"3  c #60D3E4",
"4  c #64D4ED",
"5  c #6BD4EC",
"6  c #63DAED",
"7  c #6DDAED",
"8  c #76D4EE",
"9  c #7AD5EF",
"0  c #72DAEC",
"q  c #7DD9ED",
"w  c #6BCFF0",
"e  c #71C7F1",
"r  c #74CCF4",
"t  c #7BCDF4",
"y  c #7ECFF8",
"u  c #66D5F1",
"i  c #6BD4F3",
"p  c #64DCF2",
"a  c #6CDBF5",
"s  c #6ED5F9",
"d  c #6CD8F8",
"f  c #74D3F5",
"g  c #7BD5F5",
"h  c #73DBF4",
"j  c #7BDCF4",
"k  c #74D2F9",
"l  c #7DD2FA",
"z  c #76DBF9",
"x  c #7CDBF9",
"c  c #5AE2EC",
"v  c #5DE4F1",
"b  c #61E1ED",
"n  c #63E2F4",
"m  c #6DE3F4",
"M  c #72E2F3",
"N  c #7BE2F3",
"B  c #75E1F9",
"V  c #7CE0F8",
"C  c #838383",
"Z  c #8B8B8B",
"A  c #959595",
"S  c #9A9A9A",
"D  c #A0A0A0",
"F  c #83CAEF",
"G  c #8BCDED",
"H  c #84D5EE",
"J  c #84CDF3",
"K  c #89CCF0",
"L  c #84D4F6",
"P  c #8CD3F5",
"I  c #84DBF5",
"U  c #8BDBF5",
"Y  c #83D3FA",
"T  c #8DD5F9",
"R  c #85DAF9",
"E  c #8ADAF9",
"W  c #94D4F5",
"Q  c #99D4F4",
"!  c #93DAF5",
"~  c #9BDBF5",
"^  c #92D5FA",
"/  c #98D7F8",
"(  c #94DBFA",
")  c #9DD9FA",
"_  c #A3D2EF",
"`  c #ABD6EF",
"'  c #B4D7EF",
"]  c #B4D8EF",
"[  c #BDD9EE",
"{  c #A4DAF5",
"}  c #ACDBF6",
"|  c #A4DCFA",
" . c #ABDDFA",
".. c #B4DCF4",
"X. c #BBDDF4",
"o. c #B3DFF9",
"O. c #80E2F6",
"+. c #88E0F9",
"@. c #97E3F6",
"#. c #9CE2F7",
"$. c #94E2F9",
"%. c #9CE0FA",
"&. c #A5E3F5",
"*. c #ACE3F6",
"=. c #A5E1FB",
"-. c #ABE4FB",
";. c #AAE8FA",
":. c #B4E1F6",
">. c #BDE1F6",
",. c #B4E2FA",
"<. c #BBE4FA",
"1. c #BFEAFB",
"2. c #C2DBEE",
"3. c #D8DFE4",
"4. c #C3DEF2",
"5. c #D8E1E7",
"6. c #D5E2EA",
"7. c #DAE6ED",
"8. c #C4E3F6",
"9. c #CBE4F4",
"0. c #C3E5FA",
"q. c #CCE6F9",
"w. c #C6E8FC",
"e. c #CBEAFD",
"r. c #D2E6F4",
"t. c #D8E6F0",
"y. c #D4E9F5",
"u. c #DDEBF5",
"i. c #D5EBFA",
"p. c #DCEEFA",
"a. c #CFF1FB",
"s. c #DCF1FB",
"d. c #E6E6E6",
"f. c #E3EAEE",
"g. c #EFEFEF",
"h. c #E2EDF5",
"j. c #E9EFF4",
"k. c #E0EEF8",
"l. c #E6F0F7",
"z. c #EEF2F5",
"x. c #E3F1FA",
"c. c #E8F3FB",
"v. c #F2F2F2",
"b. c #F2F7FA",
"n. c #F5F8F8",
/* pixels */
"C O o C O o o o o o o O C C C o o o o o o o o o o o o o o O O o o o o o o o X X o o o o o o Z A Z O C O C O O O O C C O C C Z Z ",
"o O C O O o o Z C C o C C C C o O O O O O o o o o o o o o O C O C o o o o X X . X o o o o o o C Z Z C C O O O O O o X . o o o o ",
"o C C O o O O C A Z Z Z C Z Z Z Z C C O O O o o o o o o O O C C O o O o X X X X X o o o o o O O O O O O O O O O C O O o X X o o ",
"O O O O C O O C C C C C C O O C C C Z O o o o o o o O O C O C C C O C O o o o . . X . o o o o o o o o O O O O o o O O O o o O O ",
"C O O O C O C Z Z o O O O o C O O o o o o o o C Z Z Z C C C O O C C C O C O O O O X X X X . o o O O O O O O O o O O O O O O O C ",
"O O O C C O O o o C O o O O O O o o o o o C O O Z Z Z C O O O C C C C C O O O o O o o o X X . X X X X X o o o o O O o O o o o o ",
"O O o O o O O O o C O O O o o o . . X C O O O C C C C Z Z C C O C O C O C O O C C O O O O X X . X X X X X o o o O o O o o O O O ",
"O C C O o O O o o o o o o o o . ' G 2 . o o O C C Z C C C O C C C O O O O O C O O O O O o X X . . . . .   . o o O o o o O O O O ",
"o o o o o o o o o X X . X X   9...| y > A o o o O O O o O o o o o o O O O O O O O o o o o o o X P ~ ..Q 5 < . o o O O O o O O O ",
"X o o o o o X X . X X . X   6...{ W g r % o o o o o X X o o o o o X X . . X X o o o o O O C X [ :.U I ^ f i 4 X O O O O X X . X ",
"o o X X X X o o o o X o o o   G W L f h % Z o o o o o o X     . . . o o o o o o o o O C Z Z X [ >.X.U f f u 5 ; S O O O O o o o ",
"o o . X X X X o o o o O C C o A 1 r 5 H A o o o o o X     K J J P W . o o o o o O O C Z Z Z Z S ] { W f p 6 % S O O O O o o o o ",
"Z C o O o o C O C C Z Z Z Z C C A S S S o o o O o o . j.y.} ^ P W / ~ . o o o O O O C C C C Z Z S S 0 7 * A S C O o O o o o o o ",
"C O O C o C Z C C O Z Z Z A Z C O C Z Z Z A Z Z O . t.u.8.8./ ^ T / ! ` S Z Z O O O O O C C C C C C S S S O O O O O O C Z Z Z C ",
"Z Z O C C O C O Z Z Z Z Z Z Z Z Z C C Z Z A C C O C A 4.9.,.,.W T g U 9 S Z Z Z C O o O O O O C O C O C O O O o O O C C C Z C Z ",
"A C O O O o C O Z Z Z Z Z C C C C C Z C C Z Z C C O O S ..9.| } T g h 0 D C C C O O o o o O O O C O O O o o o o o o O C Z Z Z Z ",
"C O O o O O o o o O O O O C Z O O o o o o o o o O o o o A { 8.*.| P 4 S O o o o o o o o o O O O O o o O o O o o o O C C Z Z Z C ",
"C C O O O o o O o O O O o O o o o o o o o o o O o o O o o S H ..{ U S O O o O O O O O O O O o o o O C C C C C O C Z Z Z A Z C C ",
"O C O C C O o o o o o o o o o o o o o o C O O O X o O o C C S S S S O C C Z Z Z Z Z Z Z C Z C C C O C C C C C X Z Z Z Z Z C C C ",
"O O O O O O O O O O o o o o o o o o O O O O             O O O C Z C C O O O C C Z Z o X X X X Z Z C Z Z C Z . @ . . C C O O C O ",
"O C C O C O O Z C O O O O O O O O O O C C . h...<.X...H   O O O O O C O O O O o o . 0.r.o.X.' . O o o O O . ~ r : A o O O O O O ",
"o o o O O O O O C Z Z C C O O C O C O O . j.e.y.T ,.,.{ g   O o o o o o o o o o   o.) ) o.{ ..' A X X X . , l 6 A X o o o o o o ",
"O O O O O O C C O O O O O Z O O O O X . h.p.i.0.0.s o.) L 2   O O O O O O O O   8.i.Y y R ) U { A X X X X A Z A o o o o O O C O ",
"O O C C O O O C C C O O X X X X X X y.y. .0.0.<. .-.h ^ Y f > . O O O C O O O   q.)  .k k g P I 8 A o . X X X o o o O O O C O O ",
"A Z Z C Z Z C O C C Z X d.g.h.>.u.<.0.o.) ^ =.,.1.E E h l s a 0 D A Z C o o o . X.) Y y i i g ~ 6 A X X o o o o C O O o o o C Z ",
"o Z C C Z Z O O o O C O S v.v.b.h.o./  .T Y ( ( | =.z f d p p 6 S o o o o o o . } ^ y r s p p j S o O O o O O O C O O o o o o o ",
"C O C O o O O O O C C Z Z S j.c.9...P y W k U @.#.( U p p p c - A O o o o o . 9.K / P r w i v * A O o o o o O C O O O O o o o o ",
"O o o o O o o C O C O o O O S S X.W J r ~ f #.h $.O.j h - c - S o C Z C C . 5.' F J W 1 u 4 * A o o C O C C C O O O O O C C C Z ",
"O O O o o X X X o X o o o o X X A Z A A A A u ( 6 I A A Z A A o C O O Z Z Z D S A A A A A A S o o o o O O O O o O O O C Z Z C C ",
"C O o o o o X X X X X o X X X X X o X o X X A Z A A o o o o o o O O O O O O O C o o o o o o o o o O o O O o O O o o C O o C O O ",
"C O o o o o       X X X X . X X X o o o X X . X o o o o o o o O O C C O O o o o o o o o o o o o O O C O O C O O o o o o O O O C ",
"C C Z C X . } ..` . .   X X X o o o o X X X X o o o o o O O Z C C C     X       o o o o o o o O C O O O O O o O o o o o o Z C C ",
"Z Z C X }  . .P J t < + A O O C C C C C o o o O O O O O O C C C X X 1.z.c.u.>.H   O O O O O C O C O O O O O C C O O C O o O C O ",
"O C X [ { P ! L l f r : O O O C C C O C O C O C C C C C C Z Z X y.k.1.<.x.p.0.*.0 X C C C O O O O O C O C C O O O O C Z O C O C ",
"Z A X ' } H g L u u r S C C Z C C C C O C C C C C C C Z Z Z o r.l.p.i.$.;.w.,.@.N c X Z Z Z O C O C O C C O C O O O C O C O C Z ",
"O C Z D ` L 9 f 5 4 D Z C O C C C C O O C Z Z Z Z Z C C Z o r.i.p.p.,.<.N %.%.E &.0 c S Z Z Z C C C C Z Z C O O O C O C Z Z C C ",
"Z Z C Z D S 7 3 S S S Z C O O C O O C O C Z Z Z Z C O C X h.k.<.e.e.p.E ( M V B n ;.N c S C C Z Z Z C C C C O O C C O O O O C C ",
"O C C O C C S S . ; . O O O C O O C C O C C C Z C Z C X y.k.q.0.^ o.| i.d z B n n v *.0 D C C O C Z A Z Z Z C C Z C C O O o C C ",
"C C O C C C C . G < $ C Z C C O O O O O O C C Z C Z C . 4.4.y.,.,.L -.R 1.v v v c c n S Z Z Z Z Z Z Z Z Z A Z O O O Z C O O C C ",
"O O o C C O . @ , % S Z C C C O . . . . O O O C C C O C A X...X.L ,.I ,.h ( v v c c S o O O C C O C C C Z Z O O O C C O O O O O ",
"O O o o o X o o A A O O O O O   . _ 1 :   o o O o O o o X S A A A W ! I @.6 S S A A O O O O O C O O O C C C O O O O O O O O o O ",
"o O o o o o X X o o o o o O O . _ / Y r : . o X X o X X X o o o O A A A S A O O O O o O O C C O C C C O O O o O O o o o o o o o ",
"o O o o o o o o X X o o o o O . F J y r e + A o X X X X X o o o o O O o o O O O o O o O o O O C Z C C C O O O o O O o o o o o O ",
"o O O X o o o o o o O o O O O . e e r J e A o X o o o X o o X C O o o O O o o O O O C O C X . X X X X X C O O O o O o o o O O o ",
"O O O O O O O O O O O C O C O O A e e J A O o O O O C C O o o O O O O O C O O C C Z Z X X z.c.y.:.{ 6 * X O O O O C O Z Z C O O ",
"O O O O O O O O Z C O O C C C O C D + + D C O Z C C O C C O C O O O O C C O C C Z C o l.k.R p.0. .I a n c X Z O O C O C C O O O ",
"O O O O O O O C C O C C C O o O C Z S S C C O A o o C O O O O O O O C C Z Z O X X X z.l.8.1.R  .( R h p c c X O O C C Z Z O O O ",
"O C C C O O O O O O O O C O O O O O C O O O O C C C O O C O . X X . X X X X X z.l.y.x.s.,.) E z Y k E h b v c . O O O Z O O O C ",
"C Z Z C O O o O O o o O O C O O O C O O C C Z Z Z C O O C . 3.4.4.9.p.i.a.n.b.b.c.0.,.,.w.) l k s k s R I n c c . o o O o C Z O ",
"O Z Z o o o o O O o C O O C . . . . O Z Z Z Z Z C Z C O O o A t.0.9.i.x.;.a.x.s.s.w./ ^ T ,.E k k s d d z d c c   o O O C Z O Z ",
"Z o o o o O o o o o C O o . ~ 9...' . . C C A Z O O O O C o o A 4.8.e.i.c.O.a.;.<.,.( Y 0.Y ^ f s p n n v p v c & A O O o o o Z ",
"o o o o o O o o O O O o X r.p.f ,.W { H .   O C C O O O O o o o A X.0.0.w.e.m ,.B s.x 1.k ,.f k p p - v v v p v Z o o O O o o o ",
"o o o o O O O Z C o o . f.h.} <.j / f l 5 % A C C Z O O O O O o o A 4.X.| | ( M V m =.z  .i ,.p k A A A A A A A o o o o o o o o ",
"o o o o O C O Z Z Z O O . y.8.P P L f 6 p - A o o o O o O o o o o o A ..} g z h n n B z j g i A S o o O o o o o o o O o o o o o ",
"O o O o O C C Z Z Z Z Z C A W } r l s p 0 S O o o O C O O o O O O O O A A W u n v v v m p f S O X X o X o o o O O o o o o o O O ",
"o o o O O C C C O O C Z C O A Q P > p - A o o o O o o O O O o o o o o o o A A - c c c & O S o X X X X O o o C O O O O Z O o o o ",
"O o O O O O O O O O O o O O o A S S = - S O O C O O O O O O O O O o O o o O O S A A A A O O O o o o O C O Z Z Z O C Z Z O o o O ",
"o o o o O o o o O o O o O O O o o O A # S O C C C O O C O C o o o o o o o X o o o O o O O o O O C C Z Z Z Z Z C Z Z Z O o X o o ",
"o o o o o O O C O O O O o O O o o C C A O O O O O C C O O o o o o o X o o C o o O o o o o C C O O C C Z Z Z A Z Z Z Z C O O o o ",
"o . X X O C O O O O O O C C O O C O O O C C C O O O o O o o X X X X o o o o o o o O O O O O O O O O C O Z A Z Z Z Z Z C o o o X ",
"O O O o O O o O O O O O O O O C C O O O O C O C C O O o o o o O O C O O O Z Z C C O O O O O O o O O O O O C Z Z Z Z C C Z O O O ",
"O C C C O O O O O O O O O C O C O O C O O O O o o O o o o O C C C O O C C C C Z Z Z Z C O Z Z C O o O o O O O Z O C Z Z C O O C ",
"Z Z Z O O O O O O O O O o O O O O C C o o o o o o o O O o O C C Z Z Z C C O O C C Z A Z Z C o o o o O o o O O O O C O O O O C Z ",
"C O O O O o o C C C O O o O O O O O O O O o o o o o o o o o O O C O O O C O O o C Z Z Z A Z C C O O C O C O o o O O O O O C C O "
};
