/* XPM */
static char *e3271b9732314568c1da9301b543f918[] = {
/* columns rows colors chars-per-pixel */
"16 16 41 1 ",
"  c #00AC9F",
". c #00ADA0",
"X c #00B2A6",
"o c #00B8AD",
"O c #00BBB0",
"+ c #00BDB3",
"@ c #00BFB5",
"# c #00C1B7",
"$ c #00C3B9",
"% c #00C4BA",
"& c #00C5BC",
"* c #00C8BF",
"= c #05C9C1",
"- c #0ACAC2",
"; c #0FCBC3",
": c #19CEC6",
"> c #1ECFC7",
", c #23D0C8",
"< c #2DD2CB",
"1 c #32D3CC",
"2 c #3CD5CF",
"3 c #46D7D1",
"4 c #50DAD4",
"5 c #55DBD5",
"6 c #5ADCD6",
"7 c #5FDDD7",
"8 c #64DED9",
"9 c #69DFDA",
"0 c #6EE0DB",
"q c #73E1DC",
"w c #78E2DE",
"e c #7DE3DF",
"r c #82E4E0",
"t c #87E5E1",
"y c #8CE7E3",
"u c #91E8E4",
"i c #96E9E5",
"p c #9BEAE6",
"a c #A0EBE8",
"s c #A5ECE9",
"d c #AAEDEA",
/* pixels */
".....+#@++$&-:>@",
"+880rtrreerrewq@",
"$yyyuyyyttytw96@",
"&uuyyupiutrreee@",
"%iyutiuuuurewqq$",
"%pu99rrttttttee$",
"%utrrqrrttrtte0#",
"%pyr999990qerq7@",
"&iara9999999952O",
"&isriiuiiippiyr#",
"&sddsassaapapt8o",
"*ddddddsappt72,X",
"&sspsddaiyw4:=*X",
"=siuaaapyw3<>;;X",
"&iyertrew01;%$# ",
"$##$#$&$$=&&&$@o"
};
