/* XPM */
static char *_09e9bc91bce4197e61184c5e3e9662a[] = {
/* columns rows colors chars-per-pixel */
"64 64 169 2 ",
"   c #005D00",
".  c #006405",
"X  c #006708",
"o  c #006B0B",
"O  c #00710F",
"+  c #176C17",
"@  c #017513",
"#  c #017A16",
"$  c #0F741B",
"%  c #027D19",
"&  c #666666",
"*  c #6B6B6B",
"=  c #747474",
"-  c #7C7C7C",
";  c #02821D",
":  c #048721",
">  c #028C23",
",  c #0A8E28",
"<  c #009527",
"1  c #05942A",
"2  c #019D2D",
"3  c #0C922B",
"4  c #0A9D32",
"5  c #01A432",
"6  c #09A336",
"7  c #0BA639",
"8  c #03AD3A",
"9  c #0BAB3C",
"0  c #12A33B",
"q  c #02B33D",
"w  c #00B93F",
"e  c #0EB443",
"r  c #00BD43",
"t  c #0DB946",
"y  c #0DBD4A",
"u  c #11B144",
"i  c #10B847",
"p  c #15B449",
"a  c #13BC4C",
"s  c #19B94D",
"d  c #24A54A",
"f  c #26B452",
"g  c #01C146",
"h  c #05C54A",
"j  c #08C44D",
"k  c #09C94F",
"l  c #10C24E",
"z  c #0DCB53",
"x  c #14C753",
"c  c #1BC355",
"v  c #13CB56",
"b  c #1DC759",
"n  c #16CF59",
"m  c #1CCB5B",
"M  c #15D45B",
"N  c #1BD25E",
"B  c #22C65A",
"V  c #22CC5E",
"C  c #1CD462",
"Z  c #16DA60",
"A  c #1BDD66",
"S  c #24CC60",
"D  c #2ACD63",
"F  c #32C765",
"G  c #32CA66",
"H  c #3ECB6E",
"J  c #22D565",
"K  c #28D064",
"L  c #24D66A",
"P  c #2DD46B",
"I  c #24DD6B",
"U  c #29DF6F",
"Y  c #31D86F",
"T  c #3DCE70",
"R  c #2EDC72",
"E  c #36D676",
"W  c #38D374",
"Q  c #3BD975",
"!  c #3CD57A",
"~  c #30DD79",
"^  c #36DB73",
"/  c #2BE376",
"(  c #31E175",
")  c #34E37B",
"_  c #3EE27D",
"`  c #45C971",
"'  c #45D679",
"]  c #4BD27B",
"[  c #43DD7C",
"{  c #36E480",
"}  c #3CE684",
"|  c #5DCF85",
" . c #41DF82",
".. c #4EDB82",
"X. c #56D482",
"o. c #59DD8A",
"O. c #44E583",
"+. c #48E384",
"@. c #43E78A",
"#. c #4DE689",
"$. c #45EC8E",
"%. c #4BE98C",
"&. c #53E68B",
"*. c #49EE94",
"=. c #4EEF98",
"-. c #5EE592",
";. c #5BE892",
":. c #5EE59E",
">. c #56EF9E",
",. c #5AEB9A",
"<. c #4CF097",
"1. c #52F29D",
"2. c #62E997",
"3. c #6EE69C",
"4. c #64EB9B",
"5. c #6DEB9E",
"6. c #56F3A1",
"7. c #5EF2A3",
"8. c #5EF6A9",
"9. c #73ECA3",
"0. c #7BEBA6",
"q. c #77EEA9",
"w. c #7BEEA8",
"e. c #69F7AF",
"r. c #63F8AD",
"t. c #72F3AD",
"y. c #6CFAB3",
"u. c #73FEBD",
"i. c #838383",
"p. c #8C8C8C",
"a. c #949494",
"s. c #9B9B9B",
"d. c #A1A1A1",
"f. c #82EDAC",
"g. c #85F0AF",
"h. c #90EFB5",
"j. c #80F2B3",
"k. c #8CF0B4",
"l. c #81F6BA",
"z. c #92F1B8",
"x. c #9BF3BF",
"c. c #80FCC0",
"v. c #9CF2C0",
"b. c #A3F3C3",
"n. c #AAF4C7",
"m. c #A5F7CA",
"M. c #ABF5C9",
"N. c #A6FACF",
"B. c #A8FACF",
"V. c #B3F7CF",
"C. c #B6F7D2",
"Z. c #B5F9D4",
"A. c #BBF9D5",
"S. c #BEFCDC",
"D. c #D3E4D4",
"F. c #CBF7DD",
"G. c #C4FADB",
"H. c #CBF9DE",
"J. c #C7FEE3",
"K. c #CBFCE2",
"L. c #D4FAE4",
"P. c #D6FEEA",
"I. c #DCFDEB",
"U. c #E2FDED",
"Y. c #E6FEF1",
"T. c #EAFEF3",
"R. c #F2FEF7",
"E. c #F6FFFA",
"W. c #FEFFFE",
/* pixels */
"i.- = i.i.= = = = = = - i.i.- = = = = = = = = = = = = = = i.- = = = = = = = & & = = = = = = p.p.a.i.i.- i.= i.- - - i.i.i.i.p.p.",
"= - i.- - = = p.i.i.= i.p.i.i.= - - - - - = = = = = = = = - - i.- = = = = = & * * * = = = = = p.p.i.- i.- i.- i.- = * * = * = = ",
"= i.i.- - = - i.p.a.p.p.i.p.p.p.i.i.i.i.i.- = = = = = = = i.i.i.i.= = = * * * * = = = = = = - - i.= i.- - - - i.i.- = = * * = = ",
"- - - - i.- - i.i.i.- i.- - - i.i.i.p.- = = = = = = & & & & i.i.i.- i.- = = = & & & & = = = = = = = = - - - = = = - i.= = = = i.",
"i.- - - i.- i.p.p.= - i.- - i.- - = = = = = = - p.* K.S.u.1.& - i.i.i.- i.- - = - = * * * & = = - - - - - = = - i.- - - - i.- i.",
"- - - i.i.- - = = - - = - - = - = = = = = - i.i.= T.V.X.| / <.& i.i.i.i.i.- - = = = = = * * & & * * & = = = = = = - - - = = = = ",
"- - = - = - - - - - - = - = = = = = - - - i.- * W.A.P.Q l c 0 ; s.- i.- i.- i.i.i.- - - = = & * & & * * = = = = - = - = = = - - ",
"- i.i.- = - - = = = - = = = = = = = = = = = = * W.T.M.O.M 9 ; @ s.- - - - - i.- - - - - = * * & = = = = = = = = = = = = - - - - ",
"= = = = = = = = = * * * & * * * = = = = = = = & W.f.5./ M n 6   a.= - - - = - - = = = - = = = i.- i.i.- - - - - - - - = - - - - ",
"* = = = = = * = * * & * * * * = * = = = = = = & W.%.2.' f @ .   p.* * & & * = = = = = - = i.i.i.i.i.p.p.p.i.- - - - i.- * * * & ",
"= = * * * * = = = * = = = = = = * * * & & & = = & u.~ y 2 %   p.= = = = = = = = = = - i.p.p.i.p.p.i.p.p.p.i.- - i.- - - = = = = ",
"= = & & * * * = = = = = i.i.= = = * = = = = = = = p.C r r > p.* = = = = = = = = = - i.p.p.p.p.i.i.i.* = = = p.- - - - = = = = = ",
"p.i.= - = = i.= i.i.i.p.p.p.i.i.- - - i.= = = - = = p.p.p.p.- = i.p.= = = = = - i.- i.i.i.p.p.p.p.= E.Z.6.r.* - i.= = = = = = = ",
"i.- - i.- i.p.i.i.i.p.p.a.p.p.i.- i.p.p.a.p.a.p.i.- - i.- - i.- i.i.i.p.p.p.p.- i.- = i.i.i.i.i.* T.H.W V =.Q * - - - p.a.p.p.i.",
"a.p.i.- - - i.- p.p.p.p.p.p.p.p.p.- - p.p.p.i.i.- i.- - - i.i.i.p.a.i.i.i.a.p.p.i.- = - = - - = W.G.;.C 9 i , ; a.= i.i.i.p.i.p.",
"p.i.- - - - - i.i.p.p.p.p.i.i.i.i.p.= = = = p.i.i.- - - - - - - - p.p.p.i.i.i.- = - = = = - - * E.L.k.U Z 1 o o a.= = i.p.p.p.p.",
"i.- - = - - = = = - - i.i.i.i.- - * T.S.R 7.& = = = - = = = = - - - - i.- = = = - = = = = = = * F.F.9.;.M e o   a.= - i.p.p.p.i.",
"i.i.- - - = = i.- = - - = = = = * L.H.[ b I :.* - = = = = i.- i.i.i.- = - = - = i.- = - i.- = * 4.h._ K w.u , . s.p.p.a.a.p.i.i.",
"- i.- i.i.- = = = = - = = = = & T.z.G.;.J v ;   & = = = i.i.- - i.i.i.i.i.p.p.p.p.p.p.p.p.p.i.i.s._ C z < @ o s.p.p.p.p.p.i.p.- ",
"- - - - - i.- = - - = = = = = * P.I.w.&.x 9 1 X a.= & * * * = p.p.i.- i.- - i.p.i.p.p.p.p.p.p.i.i.d.k h < % s.p.i.i.i.i.- - i.- ",
"- i.i.i.- - = p.i.i.= = - = - * n.L.4.2.b 1 7 . a.& T.K.r.8.* - - i.- - - = - = = = = = = - = = = - a.a.a.a.= = = = = i.- = i.- ",
"= = = - - i.- i.i.i.p.i.i.i.- * I.1.+.( 1 @ % + * E.A.x.P =.! & = = = = = = = = * = = = = = = * * * * * = = = * * * = = = = = = ",
"- - = - - - i.i.i.- i.- i.i.= i.a.u.) h 8 ;   * D.U.3.S S 9 ! $ s.- - i.i.- = i.= = = = = = = = = * * * * = * = = = = = - - i.- ",
"- - i.i.- - - i.- i.- - i.p.p.p.i.s.k h ; % d.= T.b.b.D e a %   a.- - - - - - - - = = = * * & = = = = * * * * * = = - - - i.- - ",
"a.p.p.i.a.p.i.- i.i.p.p.p.p.a.a.p.p.s.s.a.s.- * F.2.0.] G 9 ; o d.a.p.i.= = = = = = = = = - - i.* * * * = = = = i.- - = = = i.p.",
"= p.i.i.p.p.= - = = i.i.i.p.p.p.a.p.p.p.p.i.p.* W.) #.B 4 : @   s.= = = = = = = = = = = = = = i.- = i.- = - i.- i.- - = = = = = ",
"i.- i.- = i.- - i.i.i.i.p.i.i.i.i.p.p.- = = = = * ( ) m 8 O . a.- - = = = = = = = = = = = = = = = = = = = = i.- - = i.- = = = = ",
"- = = = = = = - - - - - - i.= = - - = = = = = = = p.g h q   a.= = i.p.i.i.- - - - = = = = = = = = = - - i.i.- - - - - - i.i.i.p.",
"- - - = = = * = = * = = = * * = * * * = = = * = = = i.i.p.a.= - - - i.p.p.a.p.= * = = = = = = = = = = i.- - - - - - - i.p.p.i.i.",
"i.- = = = = * & * * = * * * & * * = = = * & * & = = = = = = = = - i.= - - - - - = = = = = = = = = - - - i.= = - = = i.- = i.- - ",
"i.- = = = = * = * * = * * * * * * = = = & & * * = = = = = = = - i.i.i.- i.= = = = = = = = = = = - - - i.- i.- - = = = = - - - i.",
"i.i.p.i.= = = = = * & * * * * = = = = * * * * = = = * * * * p.i.i.i.i.i.p.= = = = = = = = = - - - i.= - - = - - = = = = = p.i.i.",
"p.p.i.i.- p.p.i.- = = = = = - i.i.i.i.i.= = = = - * G.B.$.1.= i.i.p.- i.- = = = = = - - - - i.- - - - - - - i.i.- - i.= = i.- i.",
"- i.p.p.p.i.- p.p.p.- - - i.- - i.- i.i.i.- i.i.= I.C.y.M 1.y.s.i.i.i.- i.- - i.- p.p.i.i.i.- - i.- i.- i.i.- - - - p.i.- i.- - ",
"p.a.p.p.p.p.p.p.p.p.i.i.i.i.p.i.i.i.i.- i.i.i.= W.Z.w.' Y m e d d.a.p.i.i.p.p.i.- i.i.p.p.p.- - - i.- i.- - i.- - i.i.i.i.- i.p.",
"- i.p.p.p.p.i.p.p.p.p.p.i.- i.p.i.i.- - - p.p.= W.M.2.U x i 4 o s.- i.i.p.p.p.i.p.i.= = = = p.i.i.i.i.p.p.p.- = = i.- i.p.p.i.i.",
"p.p.i.p.i.i.i.i.i.p.p.i.i.- - - - - i.- - p.p.= U.R.&.U [ 9 @ o d.i.i.i.- i.- - = * T.r.,.u.= p.p.p.i.i.i.i.- i.i.i.- - - - i.i.",
"- i.i.- i.i.i.- i.- i.- - - - i.- i.i.- p.i.i.= L.q.O.J ` e % X s.i.- i.- = = - * W.Z.k.e.K ,.= - p.p.a.p.p.i.i.a.i.i.- = - i.i.",
"i.i.- i.i.p.i.= - i.i.i.p.i.i.i.- i.- - i.i.i.p.s.( C j.V % . s.i.i.i.i.- = - * T.C.9.] T A 4   s.p.p.p.p.a.p.- - - i.i.= - i.i.",
"i.= = i.i.- i.i.i.i.- p.i.i.i.- - - - = = - - i.i.s.h v 5 o s.= - - - - i.- i.* T.M.f.[ b 4 % o s.i.i.i.p.p.* * & = i.i.i.- i.= ",
"- - = = = * = = = = = - - - - = = = = - = = = = = = a.a.p.a.= i.- - = = = i.- = F.&.m.&.s 4 @ o s.- - i.i.* J.u.>.6.* - - - = - ",
"= = = = = = * * = * = = - - - - = = = = = = = = = = = * * * = = = = = - - = = * T.9.} _ 7 9 ;   s.i.i.- * W.U. .B V @.& = = - = ",
"- = = = = = = = = = = = = = = = - = = * = - = = * * * * * = = = = - - = = - - - * } *.B 0 @   s.i.i.i.* W.L._ x j n a # a.= = = ",
"= - i.* = = = = = = = = - - - - = = = - - - = * * = = = = = & * * & = - i.= = = = s.L k r   a.- p.p.p.= T.I.Z.5.N v : X a.- - = ",
"i.- - = - - - - - - - - - - - - - p.i.- = = - - - - i.i.= * P.B.c.6.a.- - - - i.i.p.d.d.d.s.p.i.p.a.p.= W.L.#.I m 6 4 @ d.i.- - ",
"- - - - - - - - p.i.- i.i.p.i.i.- i.i.- p.i.- p.i.i.- i.* E.H.t.J <.*.s.i.i.i.i.i.p.p.p.i.i.i.p.p.p.a.= m.4.5.( H 4 ; . s.- - - ",
"- - - - - - - i.i.- i.i.i.- = = i.p.p.- i.i.i.p.* = i.* E.G.&.j m p e 3 s.p.i.i.i.i.i.i.i.i.i.i.p.a.p.p.s.) ^ k D 1 X d.p.- - - ",
"- i.i.i.- i.- - - - - - i.- - - - - - - - i.- i.p.i.- * T.L.x.M 9 l t o d.i.p.i.i.i.- - - - i.- - i.i.p.i.s.r y 8 # a.p.- i.- - ",
"i.p.p.i.- - = = - = = = - - - - - - - - p.- a.p.i.- - * W.h.q.9.j ; % o s.p.i.i.i.- - i.- = = * - - = = = - a.a.a.a.= - - - p.i.",
"- p.i.= = = = - - - i.- i.p.- - - i.- p.a.p.p.p.i.p.i.* W.) 9.F 7 1 X   s.i.i.- - i.- = = & & * * & & * * = = = * = i.- i.p.- i.",
"p.= = = = - = = = = i.- = - = = - i.i.p.- i.a.p.- - - - s.} $.q 7 o   a.= i.p.p.p.i.- - = * = & * & & * * * = = = = - = = = = p.",
"= = = = = = * * * * i.= = = = = = - - i.- - - i.i.- - - = a.v r q o a.= = - i.p.p.p.a.= = = = = = * * & * * * = = * = - - = = = ",
"= = = - - * W.l.6.u.a.= = = = = = = = = - = = - i.p.- - = - s.a.a.p.= = = - - = = - i.p.p.= - = * * = * = = = = = = = = = = - = ",
"= = = = * L.F.j.i P R s.- - = = = = = = = = = = = - - - - = = = = = = = = = = - - = = = = = i.- - = = = = = = = = = - = = = = = ",
"- - = * E.v.&.P x 7 C o s.i.- = = = = = - - - - = - - - i.- = = - - - - = = = = = - i.i.i.- - - = * * * = = = = - = = = = = - - ",
"= = = * W.T.Q ( a y @ @ s.- = - - - = = = = = = = - = - - = - = = = = = = = = = - i.- = - - = * * * * i.= = i.- - - - p.- = = = ",
"- = - * W.n.o.H s e X   a.- = - - - - - - - - i.- - - - - - = - - = = = = = - - - - - = - - - = = = - i.i.p.p.p.i.i.p.p.- = = = ",
"= = = & b.f.P 0 : o X o a.- = = = - - i.- i.i.i.i.- - i.- i.= = = = = = = = = = = - = - - = - - i.i.p.p.p.p.p.i.i.p.p.- = = = = ",
"= = = = & 5.L D 7 ;   a.= = - - - i.- - - - - - - i.i.- - = = = = = * = - - = = = = = = = i.i.- - i.i.p.p.p.p.p.p.p.p.i.- = = = ",
"* * * = = * r r 5 % a.i.i.i.- i.- - i.- i.i.i.- - - = = - = * * * = = = = = = = = - - - i.- - - - - - i.p.p.p.p.p.p.p.i.= = = = ",
"- i.- = - - a.a.a.s.- i.i.- - i.i.- - i.- i.- - i.- - = = = = - - i.- - - p.p.i.- - i.i.- i.= = - - - - - i.a.p.p.p.i.i.a.- - - ",
"- i.i.i.- i.- - - - = - - i.- - - - i.- i.- - - = - = - = - i.p.i.- - - - i.i.p.p.p.i.i.- p.p.i.- = - = = i.- p.i.i.p.i.- - i.- ",
"p.p.i.i.- - - - - - i.= = - - - i.- - = = = = = = = - = = - - p.p.p.p.i.i.= - i.- a.p.a.a.i.= = = = = - = - - - - - i.- = - i.p.",
"- i.- - - = = i.i.i.i.= = - - - - - - - - = = = = = = = = = - - - i.i.- i.i.= - i.p.p.p.p.p.i.i.- - i.i.i.- = = - - i.= i.i.i.- "
};
