/* XPM */
static char *result[] = {
/* columns rows colors chars-per-pixel */
"64 64 160 2 ",
"   c #006600",
".  c #006901",
"X  c #006E09",
"o  c #00730B",
"O  c #00780E",
"+  c #007711",
"@  c #007C14",
"#  c #007518",
"$  c #008216",
"%  c #00821A",
"&  c #00881E",
"*  c #008722",
"=  c #018C24",
"-  c #0A8D2C",
";  c #019523",
":  c #009922",
">  c #05942B",
",  c #0E912F",
"<  c #0C9B2E",
"1  c #0E8A31",
"2  c #188D35",
"3  c #0D9330",
"4  c #0D9E32",
"5  c #149235",
"6  c #169B33",
"7  c #159738",
"8  c #1C953C",
"9  c #20953F",
"0  c #16A035",
"q  c #18A036",
"w  c #14A339",
"e  c #1CA53D",
"r  c #17A83E",
"t  c #1CA83F",
"y  c #16B13A",
"u  c #2B9949",
"i  c #309C4F",
"p  c #1DAC41",
"a  c #22A442",
"s  c #20AE45",
"d  c #26A149",
"f  c #2BA14C",
"g  c #23AD49",
"h  c #2DAB4E",
"j  c #21B344",
"k  c #24B34A",
"l  c #25B94B",
"z  c #2FB94E",
"x  c #30B74C",
"c  c #31BA4E",
"v  c #30A150",
"b  c #38A256",
"n  c #34AD55",
"m  c #3FA35B",
"M  c #39AE58",
"N  c #2FB254",
"B  c #2EBC53",
"V  c #32B355",
"C  c #33BE53",
"Z  c #38BF56",
"A  c #3DB55E",
"S  c #36BD5C",
"D  c #38BC59",
"F  c #3FB661",
"G  c #3FB861",
"H  c #41A15C",
"J  c #40B25F",
"K  c #47A361",
"L  c #42B462",
"P  c #43B864",
"I  c #4AB769",
"U  c #4BB96A",
"Y  c #51BB6F",
"T  c #54BB71",
"R  c #59BB75",
"E  c #60BC7A",
"W  c #2FCB54",
"Q  c #34C155",
"!  c #36C559",
"~  c #3AC55C",
"^  c #36CD5B",
"/  c #3ACB5D",
"(  c #37D15F",
")  c #38D15F",
"_  c #3FC562",
"`  c #3DCC61",
"'  c #3DD263",
"]  c #3ED668",
"[  c #3ED86A",
"{  c #45C363",
"}  c #42CF65",
"|  c #43CB6A",
" . c #4ACD6E",
".. c #41D265",
"X. c #44D46A",
"o. c #4AD66E",
"O. c #44D86D",
"+. c #49D96F",
"@. c #4ECF73",
"#. c #52CD75",
"$. c #59CF76",
"%. c #56CF79",
"&. c #5BCF79",
"*. c #47D770",
"=. c #4DD671",
"-. c #47DD71",
";. c #4BDC73",
":. c #4FDF78",
">. c #51DC77",
",. c #5BD17B",
"<. c #54DE7A",
"1. c #59DE7E",
"2. c #60DC7F",
"3. c #4CE176",
"4. c #4FE479",
"5. c #54E37C",
"6. c #58E07F",
"7. c #55E87E",
"8. c #5FD380",
"9. c #5FDE83",
"0. c #63D283",
"q. c #65DD84",
"w. c #6BD389",
"e. c #71D48E",
"r. c #79D593",
"t. c #57E780",
"y. c #5BE582",
"u. c #57E980",
"i. c #5CE984",
"p. c #61E686",
"a. c #61E987",
"s. c #66E78A",
"d. c #6BE58D",
"f. c #64E98A",
"g. c #69EA8E",
"h. c #6EEB92",
"j. c #73E491",
"k. c #71EA94",
"l. c #77EA98",
"z. c #7AEC9A",
"x. c #6BFD94",
"c. c #7BF29D",
"v. c #75FD9B",
"b. c #7EFFA2",
"n. c #80EC9F",
"m. c #85EDA2",
"M. c #88ECA7",
"N. c #8BEDA8",
"B. c #91EFAC",
"V. c #83FDA6",
"C. c #87FFA9",
"Z. c #8AFFAA",
"A. c #90FFAF",
"S. c #8FFFB1",
"D. c #94FFB3",
"F. c #98FFB6",
"G. c #9DFFBC",
"H. c #A2FFBD",
"J. c #A4FFC1",
"K. c #ABFFC9",
/* pixels */
"K K K K K K K K K m b b b v f u u d d d d 5 * $   2 K K K K K K K K K 2 o . * 9 H H H H H H H H H H H b i u i u v i i i i i i i ",
"K T U U U U U U Y U U P P F G G D A D V h e < = h L R R R R R T T T T n w 6 $ a M I Y I I I I I I I I L A A P F F P F F L n u 1 ",
"K U @.@.@.@.@.#.,.8.%.%.@. .*. .o.@.@._ C j : { r.e.w.w.w.w.w.0.&.,.,.@.} B t < c { 2.2.#.#.#.$.#.#.$.#. .@.@.@.@.@.#.#.@.S > # ",
"K U @.p.y.y.y.y.i.i.p.y.t.t.9.t.5.6.<.o./ Z q.j.G.F.A.Z.k.h.j.h.s.g.g.i.t.=./ ` j o.=.2.p.p.2.6.p.p.i.y.9.y.y.i.i.p.i.y.1.B > # ",
"K U @.y.4.4.4.4.4.4.4.4.4.3.-.-.+.o.o.` r 2.B.G.F.A.c.g.i.p.i.y.i.u.y.t.t.3.X./ Q y / +.2.7.3.<.;.4.5.3.5.5.7.7.c.c.t.:.-.k > @ ",
"K U @.y.4.4.4.5.4.4.4.3.;.;.-.-.o.X...D 2.j.G.F.A.k.f.p.y.t.t.t.6.6.i.t.y.6.>.X.~ ^ y X.3.>.7.7.4.>.7.;.4.4.5.6.t.c.t.:.*.g = o ",
"K U =.y.:.4.4.4.4.:.4.:.-.-.-.*.o.} j 2.B.H.F.A.c.f.t.t.t.7.6.7.7.i.y.i.u.7.u.=.} ~ Z y ) +.7.7.5.5.4.5.:.5.5.7.t.t.u.:.-.s & . ",
"m P @.y.4.4.:.4.4.:.3.;.-.*.*.] / D q.Z.G.F.c.k.g.p.t.6.y.6.7.5.5.5.7.5.5.5.7.+...} / / y ..+.>.7.4.;.4.3.3.;.4.5.4.<.*.} a & . ",
"b P #.y.4.4.4.3.4.;.-.-.-.o.o.` r 2.B.G.F.A.c.g.i.i.u.6.7.4.4.3.3.3.3.3.3.3.3.3.O.' ' ^ Q y ^ +.t.7.3.:.3.:.3.3.;.;.;.| ` p @ X ",
"b P @.y.4.4.4.3.3.-.-.-.o.X.} D 2.j.D.D.A.Z.h.f.i.t.u.6.7.4.3.3.3.3.3.3.3.3.3.3.O.] ..} / ~ y ..-.;.4.:.3.3.:.3.-.;.*.X.` p % . ",
"b P @.t.4.4.3.3.-.-.-.o.o.} j q.B.F.Z.Z.C.h.g.p.p.y.t.7.7.5.3.3.-.3.3.3.4.3.4.i.X.o.....} / Q j ^ *.t.5.-.3.3.;.;.;.;.| ` e % . ",
"b P @.t.5.3.3.3.-.-.*.X./ D q.j.F.Z.C.C.Z.g.g.g.i.t.7.5.5.3.3.3.-.3.-.-.-.-.-.7.X...+...} / Q W p ' -.-.3.:.;.;.;.*.;.] _ e * . ",
"b P @.t.3.3.+.-.+.o.o./ y 2.B.F.Z.Z.C.Z.c.h.h.h.y.i.y.5.4.3.3.3.3.-.-.-.-.-.-.3.o........./ / ~ Q j ( ..3.-.*.;.;.;.*.X.` e % . ",
"b P @.6.3.3.3.O.+.X.} D 2.j.F.Z.C.C.C.C.c.h.g.p.p.t.7.5.3.3.3.3.3.-.-.-.-.-.-.3.+.X.+......./ ^ ! ! y ' O.O.;.;.;.*.*.X.` e & . ",
"b P @.6.-.-.3.o.o...j q.B.D.Z.Z.C.C.C.c.g.h.g.a.i.y.y.5.3.3.3.3.-.-.-.-.-.-.-.3...+.....X...} / / ! Q j ^ O.3.-.;.;.-.X./ e % . ",
"b P =.6.+.+.+...` D q.j.F.A.Z.Z.C.C.C.c.g.h.d.h.i.t.7.5.3.3.3.3.-.-.-.-.-.-.-.O.+...X.+.X.X...} ) ! ! ! p ' [ *.;.;.*.X.{ e & . ",
"b P @.6.-.+.o./ r 1.B.D.Z.Z.Z.Z.C.c.c.g.g.h.d.g.h.i.t.4.4.:.3.-.3.-.-.-.-.-.-.3...+...+.X.X.+...} / / ! Q y / X.3.+.+.../ e $ . ",
"b P @.<.o.X...D 9.j.F.A.Z.Z.Z.c.c.h.h.h.k.g.g.v.h.y.t.7.4.3.3.3.-.-.-.-.3.-.-.3.X...+.X.+.X.X.....} ) ^ W ~ j ) X.+.3.X.} e & . ",
"b P @.1.o.} j q.B.F.C.Z.c.c.c.g.g.g.g.g.g.g.g.h.y.y.t.5.3.3.3.-.-.-.-.-.-.-.-.3.+...+.....X.+...o...} / / ~ Z y ) X.3.X.} e % . ",
"b A _ o.` D q.j.F.S.Z.c.k.k.k.k.g.g.f.f.f.f.f.h.y.t.t.4.3.3.3.3.-.-.-.-.-.-.-.3...+...+...+.X...X.....} / ^ ~ W y ......~ t & . ",
"b n C ` y 2.B.F.C.Z.b.k.h.h.h.g.f.a.i.a.f.f.f.h.i.t.t.5.3.3.3.;.3.-.-.-.-.-.-.-.X.o...X...+...+.X.X.X...../ / ~ Q p ) / / t $ . ",
"8 a k C 2.j.F.A.C.z.z.k.h.g.g.g.i.a.a.a.a.f.f.d.i.t.t.4.3.3.3.-.-.-.-.3.3.-.-.O.+.....+.+...+...X.X.+.....' ) / W ! p ~ { t & . ",
"& < : 2.B.F.Z.c.b.d.h.k.h.g.f.i.f.i.i.f.a.a.a.a.y.t.t.4.3.3.:.-.3.4.3.3.3.-.+.X.X.X.+.....+.X...X.o.X.X.X...../ / ! Q p / t % . ",
"- , { j.F.c.g.j.i.h.h.g.g.g.g.i.i.h.k.h.h.j.i.g.d.h.h.s.g.f.s.i.7.7.7.7.2.7.7.3.+.+.+.3.4.+.X.O.X.X...X.....' / / / ~ ~ p t % . ",
"# J r.F.c.h.g.h.g.g.i.g.f.f.f.i.i.i.i.i.i.i.i.h.K.K.K.K.K.K.K.J.H.H.G.G.G.A.v.6.X.O.O.( O.] O.X.O.O.X.X...' ' ) ) / / ^ Q $ $ . ",
"u I w.c.h.g.g.g.g.i.h.i.i.i.i.i.y.i.i.t.u.u.t.h.K.D.S.S.Z.C.S.C.C.C.n.k.g.f.v.5.O.O.X.O.O.O.+.O.] O.( X.....) ) ) ) / Q Q q $ . ",
"K Y ,.k.g.g.g.g.f.f.i.k.i.i.u.u.t.t.t.t.u.u.u.g.K.S.S.c.b.l.h.h.h.h.h.g.f.a.x.3.O.O.O.O.X.O.O.] ] ] ] ) [ ) ) ) ) / / Q Q q % . ",
"K Y ,.g.g.g.i.i.i.i.i.i.h.i.7.u.u.4.t.u.4.7.7.a.K.S.c.h.f.g.g.g.g.g.g.s.a.i.x.3.O.O.O.O.O.] X...] ' ..] ] ( ( ( ) ) / ^ Z q % . ",
"K Y ,.h.g.i.u.u.u.u.i.i.i.k.i.7.4.4.7.4.4.4.4.x.K.c.g.g.a.f.f.f.f.f.f.a.i.7.x.3.O.O.O.] [ ] ..] ' ' ] ' ( ( ( ( ) / / ! Z q $ . ",
"K Y ,.g.i.i.u.u.u.u.x.i.i.i.k.i.4.4.4.4.7.7.4.x.G.h.h.g.f.f.f.f.f.a.a.a.i.7.x.3.O.O.O.] ] ' ] ] ..] ..) ( ) ( ( ) ) / ! C q % . ",
"K Y ,.f.u.u.u.u.u.u.u.h.a.a.i.i.4.4.4.4.4.4.4.u.S.h.h.g.f.f.f.f.f.a.a.i.a.7.x.3.-.] -.] ] ] ..] ......) ) ) ) ) ) ) ! ! Q q $   ",
"m U ,.f.u.u.u.u.i.u.u.i.x.i.i.u.u.u.4.7.4.4.4.u.V.h.g.f.f.f.f.f.a.a.a.a.7.i.x.3.[ [ ] ] ....] ' ..) ..) ) ) ) ) } ) / ! Q 6 %   ",
"b U ,.f.u.u.u.u.i.i.i.u.u.x.i.u.7.7.7.4.4.4.7.i.V.g.g.f.f.f.f.a.a.a.a.i.u.u.x.3.[ [ [ X.] ] ' ' ' ' ' ` ` ' ' ' ( ^ / ! C q % . ",
"b U ,.f.u.u.u.i.i.i.i.t.u.u.x.i.i.7.7.7.7.4.4.i.V.g.g.f.f.a.a.a.i.a.i.i.i.u.x.3.[ [ [ ' ' ] ] ] ' ` ' ' ' ' ` ( ' ^ / ! Q 6 % . ",
"b U ,.f.u.u.u.u.i.i.i.y.i.i.i.h.a.i.i.7.4.4.7.i.b.g.g.f.f.a.a.a.a.i.a.i.i.u.x.3.[ [ [ ] ....] ' ` ' ` ' ' ` ' ` ' ^ ^ ! Q q %   ",
", N #.p.y.i.u.i.i.u.i.i.i.t.6.7.g.i.7.7.7.7.7.f.C.g.g.g.f.a.a.a.a.a.a.a.a.i.x.-.[ [ ' ..' ` ' ` ` ' ` ` ` ` ` ` ( ^ ^ ! Q 6 %   ",
". w | p.p.y.i.i.i.i.i.i.q.6.6.6.7.d.a.7.i.7.i.f.Z.g.g.f.f.a.f.a.a.f.a.f.f.a.v.>.] ..' ` / { / } ` ` ` ` _ ` ` ~ ) ) ! ! Z q %   ",
"5 - B =.<.6.p.y.i.i.i.i.p.y.1.6.5.7.g.a.i.7.i.f.Z.k.k.f.a.f.a.a.a.a.a.f.a.a.v.>...' / ` ` / / / / ` ` ` ` _ ` ` / / ! C z q = o ",
"K n : ' =.<.9.i.i.i.i.i.y.y.p.6.6.5.6.6.7.f.a.g.Z.Z.Z.V.v.v.v.v.v.v.v.v.v.v.v.=.....` / / / / { ` ` ` ~ _ ` ` ` ` ! Z z 6 e 5 # ",
"K M ~ C ' *.1.9.y.y.i.i.a.i.p.i.i.i.6.i.7.6.a.6.p.2.p.6.<.5.6.<.<.5.<.5.5.>.>...o.;....._ ~ ~ _ ~ ~ ~ ` ~ ~ ! S Q D c q ~ a > O ",
"K T ,.>.t ' o.6.2.p.2.i.7.y.6.y.6.6.6.<.<.<.<.>.;.;.>.;.=.=.=.=.o.o.=.o.*.[ _ *.X.` ~ ` ~ ~ / ~ ~ { ~ { / ~ C C c x 6 Q } g = o ",
"K R w.d.>.C ' o.<.6.p.2.6.p.y.6.y.y.6.6.6.5.>.:.>.;.=.=.=.=.=.=.o.o.o.X.] ' ` -./ Q ~ ~ ~ ~ _ ~ ~ ~ ~ ~ ~ Z C c x { ,. .X.p = o ",
"K E r.m.l.>.y ' ;.6.2.2.p.p.q.p.6.6.6.p.t.9.6.4.>.;.>.;.=.>.=.o.=.X.....' ` ` ' ~ Q Q ~ ~ { ~ ~ ~ { ~ Z D C c x 6 &.N.q.] s = + ",
"K E r.G.n.d.>.Q ' o.5.6.<.<.>.>.5.6.5.6.9.9.t.>.4.;.=.=.=.;.=.o.X.X.X...` ` ` ' ~ Q Q Q Z ~ _ ~ ~ ~ ~ D C c x { 2.z.D.q.} g = o ",
"H E n.H.H.n.n.>.y ' =.+.=.;.;.=.;.;.3.t.9.9.9.5.q.;.;.;.>.;.=.*.X.O.[ ` _ ` ` ` _ Q Z Z Z Q ~ ~ ~ Z Z Z C x 6 &.M.F.V.9.` g = + ",
"K E e.H.H.H.n.d.>.Q ' ..X.o.=.;.>.;.;.>.5.t.9.4.i.;.;.=.=.=.=.X.X.X.*.` ` ` ` ` _ ~ ~ Q Z ~ ~ ~ ~ Z Z c x { &.c.D.V.y.:.X.p = + ",
"K E r.n.H.H.H.n.z.>.W ^ } ..;.=.=.=.=.;.:.:.4.:.p.=.;.=.=.=.=.o.X.| *.` ` ` ` _ ~ ~ ~ ~ Q Q Q Q J Z c x 6 ,.M.D.Z.i.4.*.] g = o ",
"K R w.z.n.n.n.n.k.5...l ) ) ..+.=.=.;.;.;.:.4.3.p.3.;.=.=.=.=.*.[ ] ] ` ` ` _ _ ~ ~ ~ ~ Q Q Q c Q c x { &.z.D.V.p.y.:.X.` p = o ",
"K T &.n.l.h.h.k.h.y.9.] W ^ ' ] >.o.o.;.=.3.4.3.2.3.3.;.=.=.=.X.[ ' ' ` ` _ ` / ! ~ ! ! Q C C C c x 6 $.N.F.Z.i.:.4.3.X./ p = o ",
"K T &.d.y.i.i.p.s.y.i.;.' ^ ^ ` X.o.>.o.=.;.=.3.4.3.3.=.=.o.+.X.[ ' ' ^ ` ` ` ~ ~ ! ! ! Q C C c x { $.n.F.V.p.6.4.;.=.X.~ p = o ",
"K Y ,.d.t.<.9.t.9.y.h.9.+.) y ^ ) ..=.o.;.=.=.3.>.4.>.;.;.+...O.[ ] ' ` ` ` ` ~ ~ ~ ! ! C c c x 6 $.B.A.Z.p.3.:.;.;.=.| ~ p = o ",
"H J  .2.<.4.4.:.4.t.y.:.+.X.) ( ( ' X.+.=.+.+.>.>.=.3.+.X.O.....] ` ' ` ^ ` ` / ~ Q Q Q C c x { 2.n.D.V.y.t.3.:.4.*.X.` _ p = o ",
"f V Q :.t.:.<.:.:.4.5.3.-.;.+.) W ^ ' ..;.+.=.o.=.3.3.+.X.X.....` ` ' ` ' / ` ~ ~ Q Q z c x 6 &.n.D.Z.2.4.4.:.4.3.O.` / ! p * X ",
"f V ! 4.4.9.t.5.4.3.;.;.-.*.-...^ ^ ^ ' ..O.=.+.o.;.3.O.X.....] ` ` ' ^ ` / / ! W Q Q c z { $.c.A.V.a.6.3.4.4.>.;.X.` / ^ p = X ",
"f V Q ;.4.:.t.:.:.;.;.;.;.-.;.X.' ^ W ^ ' X.*.+.=.3.3.O.....X...' ` ' ^ / / / Q Q Q x x 6 &.M.D.A.a.3.5.3.5.4.;.=...^ ` G p = X ",
"7 k ! :.<.t.:.:.;.;.;.-.;.;.;.O...) ^ ^ ^ ' X.X.+.+.+.o...X.] ) ( ( ( ` / ! / Q z x x ~ $.c.S.V.2.6.3.3.3.3.;.*.X...` _ ! p = X ",
"* p ! 3.5.5.5.:.;.;.;.-.;.;.;.-.+.X.` ^ W ^ ' ' O.X.O.[ ] ' ' ' ( ( ( ^ ` ` ! B c z 6 $.n.A.Z.p.4.3.3.4.3.=.>.X.` ` / } ~ e & X ",
"* p ! ;.6.>.:.;.;.;.;.;.;.-.;.-.*.X...' ^ ^ ^ ' ` X.O.X.' ] ' ' ( ( ( ` ! ! Q B z { $.c.A.V.p.6.;.3.4.;.;.o.} ..) } / / ~ q & X ",
"= r S :.5.:.;.;.-.;.;.;.;.;.;.;.;.-.*.X.' ^ W ( ' ] X.X.] ' ' ' ( ^ ` ! ! C B z 6 $.M.S.Z.p.;.4.4.4.3.;.>...` / ` } ` / ! e & X ",
"= r ! ;.;.-.-.X.*.O.O.X.[ *.| [ O.| X.X.` ^ ^ ! ! ~ ' / ^ ^ / W ! ! ! W Q C z q S @.9.9.1.>.*.X.X.X.X.....{ / ~ ~ / / ~ ! a * o ",
"= r ! O.X.X.X.X.] ` } ` _ *.` ] ` ` ` ` | ` } Q h C ! Q Q Q z Q z Q Q Q Q z 6 ! X.` X.X.} [ X.` ~ ~ ~ ! ~ ~ ~ S ! S ~ S ~ e = o ",
"& w l l k k k g g g p g p p p p s p g p p p s r 6 e e q 0 6 0 0 0 0 0 6 0 q e a s g p p p g p p p r p p e p r p e p p p e e = o ",
"; 4 > > > ; = = = = = = = = = = = = = = = = = = = % $ % % % % % $ % % % % = 3 - = = = = = = = = = = * = = = = = * = = = = = * X ",
"= $ @ $ @ + o o o + o o o + X # o o o o o o o o o X   . .     . . .   . . o # + + o o o o # o o + o o X o o o o o X o X X o X o "
};
