/* XPM */
static char *result[] = {
/* columns rows colors chars-per-pixel */
"64 64 17 1 ",
"  c #4C0000",
". c #550000",
"X c #581716",
"o c #6B0000",
"O c #7F0709",
"+ c #7C0C0A",
"@ c #741E1D",
"# c #1B7B6B",
"$ c #911919",
"% c #A22B29",
"& c #209581",
"* c #2CCDB1",
"= c #67CAB9",
"- c #3CDFC3",
"; c #4AEDD1",
": c #A2F6E7",
"> c white",
/* pixels */
"#####&&&&&&&#&&   .oooooooooooooooooooooooooo..  &&#&&&&&&&#####",
"##&&&&=====&&&** .oo++ooo+++++++++oo+oooo+oooo. **&&&=====&&&&##",
"#&&&==========--.o+++++++++++++++$+++++++++++oo.--==========&&&#",
"#&&===>>:::===--o++++$++++$++$++$$$+++$++$$++++o--===:::>>===&&#",
"#&==>>>::::::=;;OOO$$$$$$$$$$$$$$$$$$$$$$$$$$OOO;;=::::::>>>==&#",
"&&==>>::::::::;;OO$$$$$%%%%%$$%%$%%$%%%%%%%$$$OO;;::::::::>>==&&",
"&==>>:::::::::;;OO$$$%%%%%%%%$%%%%%%%%%%%%%%$$$O;;:::::::::>>==&",
"&==>::::::::::;;O$$$$%%%%%%%%%%%%%%%%%%%%%%%$$OO;;::::::::::>==&",
"&==:::::::::::;;OO$$%%%%%%@@@@@@@@@@@@%%%%%%$$OO;;:::::::::::==&",
"&==:::::::::::;;O$$$%%%%@@@@XXXXXXXX@@@@%%%%$$OO;;:::::::::::==&",
"&==::::::::::;;;OO$$%@@@XXXXXXXXXXXXXXXX@@@%$$$O;;;::::::::::==&",
"&&=::::::::::;;;OO$$@@XXXXXXXXXXXXXXXXXXXX@@$$OO;;;::::::::::=&&",
"#&==::::::::;;;OO@@@XXXXXXXXXXXXXXXXXXXXXXXX@@@OO;;;::::::::==&#",
"&&===:::::;;;;;O@@XXXXXXXXXXXXXXXXXXXXXXXXXXXX@@O;;;;;:::::===&&",
"&*--;;;;;;;;;;O@@XXXXXXXXXXXXXXXXXXXXXXXXXXXXXX@@O;;;;;;;;;;--*&",
" *--;;;;;;;;OO@@XXXXXXXXXXXXXXXXXXXXXXXXXXXXXXXX@@OO;;;;;;;;--* ",
"  .oOOOOOOOOO@@XXXXXXXXXXXXXXXXXXXXXXXXXXXXXXXXXX@@OOOOOOOOOo.  ",
"..o+OOOO$OOO@@XXXXXXXXXXXXXXXXXXXXXXXXXXXXXXXXXXXX@@OO$O$OOO+o. ",
".oo+O$$$$$$$@XXXXXXXXXXXXXXXXXXXXXXXXXXXXXXXXXXXXXX@$$$$$$$O++o.",
"oo++$$$$$$$$@XXXXXXXXXXXXXXXXXXXXXXXXXXXXXXXXXXXXXX@$$$$$$$$++oo",
"oo++$$$$%$%@XXXXXXXXXXXXXXXXXXXXXXXXXXXXXXXXXXXXXXXX@%%$%$$$$++o",
"oo+$$$$%%%@@XXXXXXXXXXXXXXXXXXXXXXXXXXXXXXXXXXXXXXXX@@%%%%$$+++o",
"o++$$$%%%%@XXXXXXXXXXXXXXXXXXXXXXXXXXXXXXXXXXXXXXXXXX@%%%%%$++oo",
"oo++$$%%%%@XXXXXXXXXXXXXXXXXXXXXXXXXXXXXXXXXXXXXXXXXX@%%%%%$++oo",
"oo+$$%%%%@XXXXXXXXXXXXXXXXXXXXXXXXXXXXXXXXXXXXXXXXXXXX@%%%$$++oo",
"oo++$%%%%@XXXXXXXXXXXXXXXXXXXXXXXXXXXXXXXXXXXXXXXXXXXX@%%%%$+++o",
"oo++$$%%@@XXXXXXXXXXXXXXXXXXXXXXXXXXXXXXXXXXXXXXXXXXXX@@%%%$+++o",
"o+++$$$%@@XXXXXXXXXXXXXXXXXXXXXXXXXXXXXXXXXXXXXXXXXXXX@@%%%$+++o",
"oo++$%%%@XXXXXXXXXXXXXXXXXXXXXXXXXXXXXXXXXXXXXXXXXXXXXX@%%$$$++o",
"oo++$%%%@XXXXXXXXXXXXXXXXXXXXXXXXXXXXXXXXXXXXXXXXXXXXXX@%%$$$++o",
"o++$$%%%@XXXXXXXXXXXXXXXXXXXXXXXXXXXXXXXXXXXXXXXXXXXXXX@%$$$$$+o",
"o+$$$%%%@XXXXXXXXXXXXXXXXXXXXXXXXXXXXXXXXXXXXXXXXXXXXXX@%%$$$++o",
"o++$$$%%@XXXXXXXXXXXXXXXXXXXXXXXXXXXXXXXXXXXXXXXXXXXXXX@%$$$$++o",
"o+++$$$%@XXXXXXXXXXXXXXXXXXXXXXXXXXXXXXXXXXXXXXXXXXXXXX@%%$$+++o",
"o+++$$%%@XXXXXXXXXXXXXXXXXXXXXXXXXXXXXXXXXXXXXXXXXXXXXX@%%%$++oo",
"o+++$%%%@XXXXXXXXXXXXXXXXXXXXXXXXXXXXXXXXXXXXXXXXXXXXXX@%%%$++oo",
"o++$$%%%@@XXXXXXXXXXXXXXXXXXXXXXXXXXXXXXXXXXXXXXXXXXXX@@%%$$$++o",
"o+++$$%%@@XXXXXXXXXXXXXXXXXXXXXXXXXXXXXXXXXXXXXXXXXXXX@@%%$$$+oo",
"o+++$%%%%@XXXXXXXXXXXXXXXXXXXXXXXXXXXXXXXXXXXXXXXXXXXX@%%%$$++oo",
"oo++$$%%%@XXXXXXXXXXXXXXXXXXXXXXXXXXXXXXXXXXXXXXXXXXXX@%%%%$++oo",
"oo++$%%%%%@XXXXXXXXXXXXXXXXXXXXXXXXXXXXXXXXXXXXXXXXXX@%%%%%$++oo",
"oo++$%%%%%@XXXXXXXXXXXXXXXXXXXXXXXXXXXXXXXXXXXXXXXXXX@%%%%%$+++o",
"o+++$$%%%%@@XXXXXXXXXXXXXXXXXXXXXXXXXXXXXXXXXXXXXXXX@@%%$%$$$+oo",
"o+++$$$%%%$@XXXXXXXXXXXXXXXXXXXXXXXXXXXXXXXXXXXXXXXX@%%$$$$$++oo",
"oo++$$$$$$$$@XXXXXXXXXXXXXXXXXXXXXXXXXXXXXXXXXXXXXX@$$$$$$$$++oo",
".o++O$$$$$$$@XXXXXXXXXXXXXXXXXXXXXXXXXXXXXXXXXXXXXX@$$$$$$$O+oo.",
" .o+OOO$O$OO@@XXXXXXXXXXXXXXXXXXXXXXXXXXXXXXXXXXXX@@OO$OO$OO+o..",
"  .oOOOOOOOOO@@XXXXXXXXXXXXXXXXXXXXXXXXXXXXXXXXXX@@OOOOOOOOOo.  ",
" *--;;;;;;;;OO@@XXXXXXXXXXXXXXXXXXXXXXXXXXXXXXXX@@OO;;;;;;;;--* ",
"&*--;;;;;;;;;;O@@XXXXXXXXXXXXXXXXXXXXXXXXXXXXXX@@O;;;;;;;;;;--*&",
"&&===:::::;;;;;O@@XXXXXXXXXXXXXXXXXXXXXXXXXXXX@@O;;;;;:::::===&&",
"#&==::::::::;;;OO@@@XXXXXXXXXXXXXXXXXXXXXXXX@@@OO;;;::::::::==&#",
"&&=::::::::::;;;OO$$@@XXXXXXXXXXXXXXXXXXXX@@$$OO;;;::::::::::=&&",
"&==::::::::::;;;OO$$%@@XXXXXXXXXXXXXXXXX@@@%$$OO;;;::::::::::==&",
"&==:::::::::::;;O$$$%%%%@@@@XXXXXXXX@@@@%%%%$$OO;;:::::::::::==&",
"&==:::::::::::;;OO$$%%%%%%@@@@@@@@@@@@%%%%%%$$OO;;:::::::::::==&",
"&==>::::::::::;;OO$$$%%%%%%%%%%%%%%%%%%%%%%%$$$O;;::::::::::>==&",
"&==>>:::::::::;;OO$$%%%%%%$%%%%%%%%%%%$%%%%$$$OO;;:::::::::>>==&",
"&&==>>::::::::;;O$$$$%%%%$$$%%%$%$%%%$$%$%%$$$OO;;::::::::>>==&&",
"#&==>>>::::::=;;OO+$$$$$$$$$$$$$$$$$$$$$$$$$$+OO;;=::::::>>>==&#",
"#&&===>>:::===--o++++++++++++++++++++++++++++++o--===:::>>===&&#",
"#&&&==========--.o+++++++++++++++++++++++++++oo.--==========&&&#",
"##&&&&=====&&&** .oo++ooo+++++++++oo+oooo+oooo. **&&&=====&&&&##",
"#####&&&&&&&#&&   .oooooooooooooooooooooooooo..  &&#&&&&&&&#####"
};
