/* XPM */
static char *result[] = {
/* columns rows colors chars-per-pixel */
"64 64 165 2 ",
"   c #34241A",
".  c #38271C",
"X  c #3D2B1E",
"o  c #3F2C20",
"O  c #412E20",
"+  c #453122",
"@  c #4B3525",
"#  c #4F3827",
"$  c #503A27",
"%  c #533B29",
"&  c #593E2C",
"*  c #2E5315",
"=  c #305717",
"-  c #315917",
";  c #325719",
":  c #365C1D",
">  c #356119",
",  c #38641B",
"<  c #3C6C1C",
"1  c #395E21",
"2  c #3B6222",
"3  c #3F6823",
"4  c #41761F",
"5  c #57432B",
"6  c #5D422E",
"7  c #42403F",
"8  c #60432F",
"9  c #634632",
"0  c #664832",
"q  c #6C4C35",
"w  c #6F4E38",
"e  c #714F37",
"r  c #704F38",
"t  c #6A5134",
"y  c #74523A",
"u  c #79563C",
"i  c #765A3A",
"p  c #7C583D",
"a  c #426E25",
"s  c #416629",
"d  c #446B2A",
"f  c #447226",
"g  c #457D21",
"h  c #46712A",
"j  c #49742E",
"k  c #4A7A2B",
"l  c #496E31",
"z  c #4D7433",
"x  c #517D35",
"c  c #5B7A3C",
"v  c #7D603E",
"b  c gray27",
"n  c #56514C",
"m  c #535353",
"M  c #5A5A5A",
"N  c #7F5B40",
"B  c #5E7B41",
"V  c #70655D",
"C  c #626262",
"Z  c #6E6D6D",
"A  c #736B64",
"S  c #716F6D",
"D  c #727272",
"F  c #797572",
"G  c #7C7C7C",
"H  c #805B3F",
"J  c #80633F",
"K  c #855F42",
"L  c #866043",
"P  c #896245",
"I  c #8A6A45",
"U  c #906747",
"Y  c #916F47",
"T  c #916748",
"R  c #966C4B",
"E  c #996E4C",
"W  c #947249",
"Q  c #9E734E",
"!  c #9D794F",
"~  c #A0724F",
"^  c #A37451",
"/  c #A67F52",
"(  c #A97954",
")  c #82776F",
"_  c #847C75",
"`  c #857D76",
"'  c #478122",
"]  c #488122",
"[  c #4D8B24",
"{  c #4E822C",
"}  c #51862D",
"|  c #52892E",
" . c #548434",
".. c #568B33",
"X. c #598E36",
"o. c #578738",
"O. c #59863B",
"+. c #5D8E3D",
"@. c #579131",
"#. c #5A9434",
"$. c #5E9D35",
"%. c #5D933A",
"&. c #609F37",
"*. c #60953E",
"=. c #629A3D",
"-. c #61A137",
";. c #64A33B",
":. c #68A73F",
">. c #69A93F",
",. c #5F8F40",
"<. c #648344",
"1. c #6C8D4A",
"2. c #619241",
"3. c #669B43",
"4. c #689C45",
"5. c #6B9A4D",
"6. c #71944D",
"7. c #759E4C",
"8. c #759851",
"9. c #789E52",
"0. c #6AA543",
"q. c #6CAC42",
"w. c #6DA449",
"e. c #6FA949",
"r. c #70AF47",
"t. c #71AA4B",
"y. c #7CA94E",
"u. c #71B047",
"i. c #74B44A",
"p. c #7DA455",
"a. c #75AE51",
"s. c #79A953",
"d. c #77B151",
"f. c #7AB454",
"g. c #7EBD54",
"h. c #7EB25C",
"j. c #7EAE60",
"k. c #A98153",
"l. c #B48259",
"z. c #B8845B",
"x. c #B68A5A",
"c. c #81AF51",
"v. c #81A759",
"b. c #83AC59",
"n. c #82B152",
"m. c #80B35E",
"M. c #83BC5D",
"N. c #8EBD5F",
"B. c #84817E",
"V. c #918378",
"C. c #83B761",
"Z. c #88B367",
"A. c #85B962",
"S. c #89BC65",
"D. c #8BBB6C",
"F. c #90BE62",
"G. c #8FBE72",
"H. c #90BF72",
"J. c #C39460",
"K. c #8DC06C",
"L. c #95C365",
"P. c #94C375",
"I. c #99C574",
"U. c #9AC97C",
"Y. c #858585",
/* pixels */
"D.D.D.S.H.H.U.U.P.P.D.D.D.D.D.D.D.D.D.D.I.I.Z.Z.G.G.D.D.G.D.P.P.P.P.S.D.D.D.D.S.D.D.K.P.P.P.P.P.D.D.D.D.D.G.D.D.D.G.D.D.D.D.D.D.",
"h.h.h.C.C.D.K.D.C.M.h.h.f.h.h.h.f.m.m.m.D.j.5.s.j.w.j.h.h.h.h.D.S.S.K.h.f.h.h.h.h.h.A.A.A.D.D.S.S.h.h.h.h.h.h.h.m.h.m.h.m.m.m.m.",
"a.i.a.a.s.f.Z.f.t.a.t.e.d.i.w.e.t.t.t.r.h.5.+.3.%.%.e.e.%.w.e.f.K.f.f.f.f.e.w.e.e.f.i.f.f.g.I.f.f.a.w.e.t.t.e.e.t.f.f.t.t.t.t.t.",
";.q.0.0.0.3.*.7.0.;.;.-.>.>.$.$.-.;.;.u.q.%.k } [ &.&.$.' ' &.-.i.i.>.q.q.q.$.$.q.>.q.q.i.g.g.L.q.%.#.$.-.-.-.-.q.q.q.q.-.-.-.-.",
"q.q.;.@.%...o.+.q.r.;.;.q.q.y.-.-.-.u.u.*.} k k &.&.$.@.{ < ] $.q.q.f.i.q.>.>.>.>.>.>.q.g.g.g.i.=.{ X.$.$.&.q.q.q.i.u.q.;.-.-.>.",
"q.0.@... .x  .o.w.e.;.$.0.0.y.n.-.r.>.>.#.f - k #.$.$.g g { < [ $.q.i.i.0.;.g.>.>.>.q.g.g.g.r.q.{ k  .X...#.q.q.i.u.i.-.-.-.q.q.",
"q.;.2.%.f f d k y.w.3.%.%.e.g.q.n.n.>.;.} - = > | @.< < a f 3 ] $.$.q.i.f.e.d.;.>.N.g.g.g.i.r.=.{ z f { #.%.0.e.r.L.r.-.-.>.>.q.",
">.0.%. .3 a s j 7.7.%.o.2.4.;.;.c.c.;.$.f - * - | } < f 3 3 3 < $.>.q.g.e.3.e.;.N.N.g.g.3.0.w.%.k 3 3 h  ...=.q.L.b.@.-.>.q.>.q.",
"e.3.{ k 2 * * j p. . .x x .. .@.F.y.$.} - = + * *.k a 3 2 2 < k $.r.L.M.4.2.9.b.f.g.q.%.+.3.3.+.h 1 , - x  .v.S.b.#.{ @.[ [ >.:.",
"=.+.k : * * X * 8.1.z d j f k p.Z.F.} k = @ @ + o.+.3 s 1 1 : f 0.L.L.p.+.o.+.4.g.q.q...6.6.,.z 1 = = = , x 9.b.+.o.o.4 4 $.;.#.",
"+.o.h = + X O X 1.<.j 2 2 a 1.8.v.w.k < = % $ @ j O.d s o X : s A.F.p...s 3 O.2.%.q.%.6.1.f f f : . . = ; j %.3. .,  .o.{ | #.o.",
"o.<.* * X @ + <.<.a 2 1 1 2 z 1.+.3.< , @ % & @ d j s o O # 9 , *.p.%.x 3 1 x O...X.9.1.3 3 d 1   o o o ; : x o., - j f k k { x ",
"O.c = O m O n B s , 1 @ O 1 d z O.+., ; @ @ # @ s s o + % q 0 :  .+. .s , : l x +.3.+.3 2 = 2 1 o @ @ + + ; j x : 2 2 s f k k k ",
"c s + X M M b 2 1 8 6 8 # + s s x O.3 = O # # O . s + & y u 9 % O. .a 1 : O s d o.2.a 2 * * 1 @ @ # % % 9 6 d z , : : 1 < a a d ",
"s 2 # 5 M M b 1 % 6 6 t q 8 @ s d z 1 : @ @ $ & o O + % e i q @ x o.s : O @ + s B o.3 1 # + + o @ % & % 8 6 s 1 1 # # : , s s , ",
"s O 6 9 K m 7 5 % 9 9 e e t 9 + s d : . O % 8 8 % @ & & 8 y 9 $ z z , o O @ @ O z c 2 @ @ @ o . % & 6 6 & 6 % : @ # $ + : 1 2 : ",
"X @ & 9 9 i q 5 6 8 9 y i q 9 & X s . o & e P J & # 8 0 w q 0 $ s l 1 O + % O . l z : @ % O . M + 8 8 & 9 & % # # + @ O . : 1 o ",
"O O 9 0 q q & 6 9 t q y p i u 0 O . o + e P U p 8 $ 8 9 y y 0 5 o s O @ @ + @ O   l O $ @ . M C S q 8 & 0 8 & O @ $ # O o . o O ",
"@ # & 8 y y 8 & 6 y y u K H H p $ o + 6 H U u u 8 & 9 q y e q 6 O + O @ + # % @ + O O & 6 m C C Z v 6 8 & 9 % @ # # # O . X o + ",
"$ & 6 q u u 0 9 q r p K K K K p 5 + & 8 p p u H 9 8 q y p u y 0 @ o O # @ % % 9 $ O @ & & t M M L q 9 6 9 6 & $ % & @ O + o # % ",
"8 8 q e u u q q e u u N U J u q & @ % & u p u y q 0 q y u N u 0 @ O @ & % q q 0 $ @ # & 8 & i u t y w 9 w 9 6 $ 5 8 6 @ @ & u q ",
"P u u y 8 0 q q e H N K K P H y 8 & & 9 y y y y y 0 w w y u u q % @ % & 0 e u q 9 % % & 0 0 9 q e y e u u y 6 & 0 q q 6 8 H H K ",
"R E K u 0 9 8 6 K R K P P K p q 9 & & 9 e e y u y 9 9 9 w y y e & # @ & q u e u q & & 0 q e q e y y N N u K y e y e y p p H H E ",
"P ( E u u 9 9 p R P P P K K u e 0 8 9 K y u u u w 6 9 8 u K K K 8 @ % 0 u u p r q & 8 q H P K u u e u u K P P K H H u y H p H R ",
"U ~ R U P U H K P P P K p p u y q u 0 q 0 p i e 9 9 9 y L z.z.z.T & 8 8 9 r r r 0 9 0 K U ( z.U u p K K P R R R R J u u H u H U ",
"R R R E E P P P K K K u u y e y K q Y.Y._ 0 u y e e e R z.z.z.( E P q r 9 9 r y q 9 p z.z.z.z.( P p K P R E ~ ~ E K u H u u u R ",
"R R E P P K K p p p p y u P R R r B.B.G G A L u p p K P ( ( ~ E ^ R ~ r r r y K p P ^ ( z.z.( ^ H y K P R E E y P H H u H u K P ",
"E P P J K p p p p u u u R R z.z.W ) F D Z W p N p p K ^ E R R R R ^ ^ ^ r e N u E E ^ ^ ( ( ^ R y u P P P R y y K H H u u H P P ",
"K K K u p p p p p y u ( z.z.z.z.z.J.z.k.k.R L K p p K K p U R R E R R ^ E N T E Q E R ^ ^ ^ R T y p K P P K y p p p p K K P P E ",
"K H H u p p p u y u ( z.z.z.z.z.z.( ^ ^ R E R P K p p K p p T E E E R R ^ E ( z.z.Q R E ^ ^ T p p K K K K p p p p K K P P E E R ",
"K p p K K H p H p ~ z.z.z.( ( ( ( ^ ^ P ^ ^ R R K K p p p K L P P R R R ^ ( z.z.^ E R E R P P K K P K p p p K K K P E R R E R P ",
"u p K P P H p u K ~ ( ~ E E ~ ^ ^ K K K P R R P P K p p K K K K P P R R R ( z.^ E E R P P P P P P K p p u K P K K L P R R R P P ",
"L L P R R K p p K P R R E W R T U u u N K P P P L u p u u u N u K K ^ ^ E E ^ E R P P P P P R R P K p p K P N N N K K K K K K K ",
"P P R E R R K u N K L R E T U p p u N K P P P K p p p y w y y u p K P ^ ^ R R P P P K K K P R R K p p p K r w r u u p p N p K K ",
"P R R R R ^ K N u u u P P K p p p p K L P R R R y y y w 9 w e u p p K P P P P P P R N u T R K K u N u y w r u r r N u u p p K u ",
"P R R R ^ ^ ~ L u u e r P K u p p K P P R R R y y w w 9 9 9 w y p p K K K K L L E u u u N U K u u y y e u K u y u r N K K p p K ",
"P R R R R ^ ^ E y w 9 w y y p p p p K y y y y w w 9 9 9 9 w y u p K K u N N r u N u y u p p u y u r y P E z.( y u r p u K K K P ",
"L P R R E R E u w 9 9 9 y p p p p p y r r r w 9 9 9 9 9 e y p p K K u N u r e u u u r y u p u u y y U ~ z.z.( ^ r e u N K K P P ",
"p K P R R R U u 9 9 9 w u p p L K K y y r 9 9 9 9 w r r y p u y p p N y w 9 9 e y y y y w y p p N P R z.z.( ^ P K u u u T R K K ",
"p N L P R R L u r 9 w y p N T T P P P P r r r w u K P N p p y u p u r w 9 9 9 w e u K y 9 w p p u P ( ( ( ^ P P w w & u u T P K ",
"p p u K R R L p y r u p p ~ z.z.E E P P P K N y R z.l.R P K p p u w 9 9 9 w w y u E z.P y y N p L E ( E R R P r Y.Y.` 0 N p p p ",
"p p N L R E L L u u p p R ^ ( z.z.z.E R R P K P ( z.z.z.R K u u w 9 9 9 w y y P R z.z.z.L u y u L ^ R R R P r Y.Y.Y.G A N p p p ",
"p p K L R R P K p p N I ~ ^ ^ ( ( z.z.z.z.E P P ^ ( z.( ^ ~ T P 9 9 w w y P R E z.z.( z.z.K y y P P E R P P I G Y.G D W p p p L ",
"K K L R R P L K p p u U R ^ ^ ^ ^ ( ( z.z.z.R K L E ^ ~ R ^ R e 9 & 6 P R E z.z.z.( ^ ( z.R y w r P R R P U R ! Z Z Q p p p L P ",
"P ^ ^ R R L p p p p p p T E E ^ ^ ^ E ~ ( ^ P N K N u U R R y 8 6 Y.Y.p z.z.z.( ( ^ R E R L w 9 w P P P P ~ z.E ! W p p p y L P ",
"^ ^ R R P K p p N y p p L R R R ^ R R R E E u N K K p p U R p Y.Y.Y.Y.V.k.( ( ^ ^ E R K K u 0 9 r y P P R ( z.z.R L p p y y y P ",
"^ E R P K u p u r y y u L L P R R E P R R T u K P P K L L P W G Y.G G G x.E E R E P P K u u 9 P R ^ P P ^ ^ ( z.~ U p p y y P P ",
"P R L K p N y e 9 r u u N L L P R R P L T K K K R R P L L L K / D G D k.R R R P P K K N p u P R ^ ( ^ P E ^ W ~ T p p y y y P P ",
"P L L p p y w 9 9 9 P N N u p K P P y p p p K E Q Q ( P p p p L Q ! Q P P K K K K p N r K U R ^ z.z.( ^ R R R U p p y y y y y L ",
"P L p p y w 9 9 9 R Q R u N p p K y y y p K R ^ z.z.z.^ N p p p L L L P P K K u u N r u K K R E ^ z.z.^ R R P p p p U y y u Q Q ",
"T K p u w 9 9 R R ~ R R T K K p y y y p p K ~ z.z.z.z.l.T L p p p p K K K N N u p p r P K N K K E Q Q E R K p p p P R R u ^ z.z.",
"T p p u e 9 R ~ ^ R R P R R K K y y p p p K E ^ z.( ( z.~ L K p p p u K u u u N p p K K u p p K L R E R P K H P Q E E E ~ z.z.^ ",
"T p p p u T ^ R T K K K P P P r 9 6 8 p p K R E ( ^ E ^ E R L K p p p u u 9 0 r u r r u e u u p N N L L L N P z.z.~ R R ^ ( Q E ",
"L p p p R ~ R T K N u N K P r 9 Y.Y.Y.8 p p K R E ^ W R E P L K u y p r 9 9 w r e u K K u p p p u N K L K I l.z.^ E E ^ ^ ^ ^ R ",
"P L p p E E R L u r 9 r w u r U F Y.B.A L p K P E R E R P P L N 9 9 r y w r r P K ~ z.z.P K p p N p p p P ( z.E P P E E R ^ ^ ^ ",
"R L p p T R P L u 0 9 6 u K R P ! S A I p p p K P R R P P P K 9 9 r r u K E P P E R ^ z.( K u u u p p p T Q ^ E P P P W R R R ^ ",
"R R r N K E P w 9 9 u K K z.z.R H Y I y p p p p K P P P P y y w r y u R z.z.( ^ ^ ^ E ^ Q ^ E N p u L L R R ^ ^ R R R R P E R E ",
"E R y w P P y r w y P z.z.z.z.( ~ p p y y p p y y P P y y r y y u R R z.z.( E R ^ R R R R R ^ E p N u N L E R ^ ^ R R P P P W R ",
"R P N w P P y y r ( z.z.z.( ( ^ ~ R p p p p y e w N y w y y y U R z.z.z.( E E R R P P P P R R T p p N u L P R R R P P P P R E E ",
"P P P w y P y y ^ ^ ( z.( ^ E E R ^ K p p p e 9 q w y y N y L Y z.z.( ( ( ^ R R P L L P P P W R I p N L P R E R P P P P T R R E ",
"R P P P y y y ^ ^ ^ ^ ( ^ ^ ^ E R W P K u u 9 9 9 9 0 0 p p L P ( ( ^ P ^ ^ P P K p K L P P P L R U T R R R P P P P L K N N L R ",
"E R P T u y L ^ ^ ^ ^ ^ ^ ^ E E R P P K p u i q 6 _ _ _ N u p L Q ^ P P P P P K p p p K K K K K P R R R E P P P P P y p N u L P ",
"E Q E T N u K Q ^ ^ ^ R E R R E P L L p N T T N V B.Y.Z I N u u U R R P P P P P L p u N N N u K P P P P P P P R R y y p N L L P ",
"k.( ( E P N N K ^ E E R P P P P P L p p T l.z.T Y A Z P r r N N N T R E R R R R L K p u u u N N K P P P P P R R y y y u K P P R "
};
