/* XPM */
static char *_4576a84efe548e6b52c6efb32b95299[] = {
/* columns rows colors chars-per-pixel */
"64 64 51 1 ",
"  c #5D5D5D",
". c #646464",
"X c #6B6B6B",
"o c #757575",
"O c #7C7C7C",
"+ c #B67B51",
"@ c #BB7E54",
"# c #BE8055",
"$ c #C28356",
"% c #C68658",
"& c #C88759",
"* c #CC8A5B",
"= c #D28E5E",
"- c #D5905F",
"; c #D28F60",
": c #D69160",
"> c #DA9462",
", c #DF9866",
"< c #DE9B6C",
"1 c #E09764",
"2 c #E39966",
"3 c #E59C69",
"4 c #EB9E6A",
"5 c #E19E70",
"6 c #E5A06F",
"7 c #EDA16D",
"8 c #F3A46E",
"9 c #E2A276",
"0 c #EDA473",
"q c #E3A47C",
"w c #E9A67B",
"e c #ECAA7E",
"r c #F4A671",
"t c #F9A770",
"y c #F4A976",
"u c #F9A872",
"i c #F4AC7C",
"p c #F9AD7B",
"a c #FCB17F",
"s c #838383",
"d c #8B8B8B",
"f c #959595",
"g c #9A9A9A",
"h c #A0A0A0",
"j c #EDAD83",
"k c #F3AF81",
"l c #F9AF80",
"z c #F4B185",
"x c #FAB385",
"c c #F6B489",
"v c #FAB68A",
/* pixels */
"sOosOooooooOsssooooooooooooooOOoooooooX.ooooooddfOsOsOOOOssOssdd",
"oOsOOoodssossssoOsOOOooooooooOsOOooooXXXXXooooosddssOsOOOoXXoooo",
"ossOoOOsfdddsdddsssOOOooooooOssssoOoXXXXXoooooOssoOOOOOssOooXXoo",
"OOOOsOOssssssOOsssdOooooooOOOsOssOsOooo.X.XooooooooOOOoooOOOoooO",
"sOOOsOsddoOOOosOOooooooOsddsssOOsssOOOOOOoXX.XooOOOOoOooOOOOOOOs",
"OOOssOOoosOoOOOOoooooOs+dddsOOOssssssOOooooXX.X.XX.oooooOOOOOooo",
"OOoOoOOOosOOOooo..XOOsOsssdddssOOssOOOOsOssOOXXXXXXXoooooOOoooOO",
"OssOoOOoooooooo.j%#.ooOsdssssOsssOOOssOOOOOOoX.X.... .ooooooOOOO",
"oooooooooXX.XX jr7:*foooOoooooOoooOOoOOoOooooooX7;6*;%.OOOOOoOOO",
"XoooooXX.XX.X q1y93-@ooooooXoooooXX..XoooooOOsX<0>t:<;#XOOsOXX.X",
"ooXXXXooooXooo =<;;;%dooooooX . ..oooooooossdd.j84*<;%%$gOOOoooo",
"oo.XXXXooooOsOOf&;<#foooooX  =->;%.ooooooO#dddsh34;<;;#gOOOooooo",
"ddooooOOssdddddsggggoooOoo.ji4>>q<3 oooOOOsssdsdgg$$#fgOOoOoooOo",
"sOOsOsdss+ddfddOOsdddfdd#.jjy83::,r4gfdOOOOOsOsdssgggOOOOOOsddds",
"dfOsOOOOdddddddddssddfssOOfjt843:*6#gdfddOoOOOOOsO#OOOoOoOssddsd",
"dOOOOOsOdddddsssssdssddssOOd7884>>*2gssOOooooOOOOOOOOoooooosdddd",
"ssOoOooOoOOOssdOOoooooooooOof48:%%;foooooooooOoOOOoooOOooOssddds",
"ssOOOOoOOoOOoooooooooXosOoooOg&:$#gOOOoOOOOOOoOooOssOsOOsdddfdss",
"OsOssOooooOooooooooosOoOXooOOsgghhsssdddddddddd+OOssssdXdddddsdO",
"OOOOOOoOOOooooooooOssO.     OOosdsOsOOsdddXXXX.dsdddsd.$..ssOOsO",
"sOsOsOOdssOoOOOOOOOsO.iet74* OO+OOsOOOOoo.jj484.OOoOO.j;$goOOOOO",
"oooOOOOOsssdsOOOOOOO.jlt8884% OooooooooX <cjuu74fXXX.#<%fXXOoooo",
"OOOOOOssOOOOssOOOOX.zzpt7t>q<% OOOOOO+O 0v;j:>t4fX.XXfffooooOsOO",
"OOssOOOsssOsXXoXXXekilttr>9;<;* OOOssOo j,w;i>>8<foXXXXXoOOOOOsO",
"ddddfdsOssdXjjjj0iy033y882--=-*$hfdsooo 68>5=003;fXXoooOOOOooosd",
"OdssddOooOOsgjcje4833>,44,-*=*=$goooooo.9<:>6>3rgOOOoOOOsOOOoooo",
"OOOOoOOOOssddgjcy8>:-:-->***&&*%gOoooX.j<;;;--=:fooooOOOOOOOoooo",
"soooooOsOOOOsOgg0:*=&****&%$$$@foOddO jj;;;<==%foosOOOOOOOOOssss",
"OOOooXXXoXooooXXffffff$%$#ffdffOOOsdddhffffffffoooosOOOOOOOsddss",
"OOooooX.XXXoXX.XXXXoXXdfffooooooOOOOOOOsoooooooooOOOOoOOoosoOOOO",
"ssOOoo   XXXXXXXXoooX.XXooooooOOOsOOOOooooooooooOOOOOOOOooooOOOs",
"ssss..q59 . XXXooooXXXXoooooOOssss ..   ooooooOOOOOOOOOooOoOodss",
"ddsX954,<;;%foOsssssOooooOOOOsssXXiizz7#.OOOOOsOOOOOOOssOOsOoOsO",
"ssX3r3t>*;;%OsOOsOssOOssddssdddXqjpiivy8#XsssOOssOsOsOOOOssdOsOO",
"ddX4tt3:<%%hssdsssOOsssOssssddX7jxyy7wt4;#XdddOOOsOsOsOOOOssOOdd",
"Osdg4=6:5#hssssdssOOsddfsdsddXrizxp14:0,;%#hdddssssdddOOosOsddss",
"ddsdhg#3ghgdsOOOOOsOsddddsssXkvpau88*>*8*%$#hssdddssssOOssOOOOss",
"OssOsshg.#.OOsOssOsOsssdsdd.eipy8p73-**%j$%#hsOssdfdddssfssOOOsO",
"sssssss.<*+dssOOOOOOOssdsds.3rr7227-=***%<#gsddddddddfdOOOdsOOss",
"soossO.%*#gssdsO....OOOsssOsg34:>---&%$###gOOOssOsssddOOOOsOOOOO",
"osOooXooffOOOOO..3=* oooooooXfggg*%$##hggfoOOOOOsOOsssOOOOoOOOoo",
"ooooooXXoXooOOo.231:=.oXoooXXoooofffffOOOOOOOsOssssOOOoOOooooOOo",
"OoooooooXooooOo.*>>-=&goXXXXXooooOOooOoOoooOoOOsssssOsOooooooooO",
"oOOXooooooOooOOX&->-=foXoXooooXOOooOOOooOOsO#X.XXXXXOOOOOOOooOOo",
"OOOOoOoOOOOOOsOOh%<;foOOOOssoOOOOOOOOOOssddoXjjiw7&#XsOOOsOddOOO",
"OOOOOsOsdsOssssOOh#%gs#dsOOssOOOOOO#ssdssdojjj6u66**#XssOOOsOsOO",
"OOOOsOOsOOsssOOosdhfsOOdoOOsOOOOOOssdssXXXjcj30<>>>&%#XOsOsddsOs",
"OsOsOOOOOOsOOsOOOOOOssOsssOOsO.XX.XXXXXjjcccj6>>36-*%##.sOOdOOOO",
"sddsOOoOOooOOsOOOOOOdOddssOss.h478izvxcvzppi6,>-->,-*%&#.oOOOsdO",
"OddoooooOOsOOs....OddfdfsdOOOogz8ytaxzcvap72,>>***--**&$ oOOOdss",
"dooooOoooosOO.jj44..OsfsOOOOOoof47tu6c3ii88>>>>:**&-*&&%+gOooood",
"oooooOoOOOOo.jjji883 .Oss#OOOoOog688i-i*3>>,>>-*&%##*$#&fXoOOooo",
"oooOsOOssOo.jqjyi1>>%#gOssOOOOOoof843z&:***:>:-$#fffffffoooooooO",
"ooooos+ddssO.j>729>3%#fooOOOOooooof4:,w%*$****$ggooOooooooOooooo",
"oOooosdddsddsg--<<<;jfOOoOOOOoooOOOff#>>&*&&%$goXXoXoooOooooooOO",
"oooOsssOOsss#Of***;;foooOooOOOOooooooff*&$#@ogOXXXXOoosOOOssOooo",
"OoOOOOOOoOOoOOofgg#%gOsOOOOOOOOOOoOooOOggfffOOOoooOssddssssdsooO",
"ooooOooooOOoOOOooOg+gOsOsOOsOOooooooXoXooooOOoOOssddddddsddOoXoo",
"ooooossOsOOoooOoOOsfsOOsOsOOsoooooXooOOOOooooOsOOssddfddddddOooo",
"o.XXOOOoOOOsssOssOOOOssOsOOoooXXXXoooooooOOOsOOsOOOsdddddddsoooo",
"OOOoOOoOOOOssOOssOOOOsOOOOOooooOOOOOOddssOssOOOoOOOOOsddddssdOOO",
"OsssOOOsOOOOOsOOOOsOOOOOOOoooOsssOsOO#sdddsssddOOoOooOOdOsddsOOs",
"ddssOOOOOOOooOOOOssoooooooOooOsddddsOOOOsddddsooooOoOOOOOsOOOOsd",
"sOsOOoossssooOOsOOOOOoooooooooOOOsOssOOOOdffddssOsOssOooOOOOOssO"
};
