/* XPM */
static char *_af4a9de88234258a6615a08ed632dbc[] = {
/* columns rows colors chars-per-pixel */
"64 64 97 2 ",
"   c #2C2515",
".  c #2E2B15",
"X  c #2D2618",
"o  c #322D16",
"O  c #392D16",
"+  c #302718",
"@  c #322B19",
"#  c #3B2E19",
"$  c #2E3416",
"%  c #2F3815",
"&  c #343216",
"*  c #3A3416",
"=  c #343C16",
"-  c #3C3B16",
";  c #353318",
":  c #3C341A",
">  c #353C19",
",  c #3C3B19",
"<  c #403217",
"1  c #423D16",
"2  c #493E16",
"3  c #44351A",
"4  c #48371A",
"5  c #443B1B",
"6  c #4C3C1E",
"7  c #513F1F",
"8  c #473A20",
"9  c #4D3E20",
"0  c #503F20",
"q  c #364117",
"w  c #3C4217",
"e  c #364019",
"r  c #3B4219",
"t  c #3D4A19",
"y  c #424317",
"u  c #4B4416",
"i  c #444219",
"p  c #4D421D",
"a  c #434818",
"s  c #4B4A1C",
"d  c #53421F",
"f  c #5A441E",
"g  c #56481F",
"h  c #60491F",
"j  c #4E4121",
"k  c #544322",
"l  c #594723",
"z  c #564921",
"x  c #5C4B24",
"c  c #5E4D28",
"v  c #5E5024",
"b  c #624E25",
"n  c #6A4D20",
"m  c #634D28",
"M  c #684F28",
"N  c #645126",
"B  c #695227",
"V  c #665128",
"C  c #6B5429",
"Z  c #675829",
"A  c #6E592A",
"S  c #745522",
"D  c #7B5C26",
"F  c #70572B",
"G  c #725B2B",
"H  c #7A5E2B",
"J  c #776224",
"K  c #7A6625",
"L  c #7C6827",
"P  c #74602C",
"I  c #7D612B",
"U  c #7F6A29",
"Y  c #83642B",
"T  c #856A2B",
"R  c #8A6C2C",
"E  c #87712C",
"W  c #8D722C",
"Q  c #92742D",
"!  c #947C2C",
"~  c #9A7C2E",
"^  c #866830",
"/  c #8C6B31",
"(  c #906F33",
")  c #8F7632",
"_  c #8E7E31",
"`  c #937432",
"'  c #997731",
"]  c #947A32",
"[  c #9B7C33",
"{  c #92822E",
"}  c #9C822D",
"|  c #958131",
" . c #9C8233",
".. c #9F8A32",
"X. c #A18434",
"o. c #A58A34",
"O. c #A38439",
/* pixels */
"} Q m p 6 j 9 0 8 6 7 d l H H H H H } ....} X.~ Q D B m m b x m l m m m m m 0 k k 8 9 6 6 6 9 6 m m b b b N b b m m b b ~ Q } } ",
"Q m p 9 4 6 6 6 9 0 6 F H X...} } } } } } X.~ ' R M m m m b m b 9 9 m m 0 k k k k k 6 9 9 9 6 k k k 0 b V b m R ` ` W R [  .o.} ",
"M k k 6 0 k k 6 o & * 1 h b h I I I H H I H ! W C B M m m M 0 0 0 l 0 k 0 l k c l k k j k k 7 d k k k k k k C R / [ C C Q } ! Q ",
"x l k k k d 9 - * * - - - 5 u y h h f h G G H A F B M k 0 0 k d 0 0 0 l l 0 l 0 k k d x k k l 3 3 3 3 3 3 3 l C A l g k l I G G ",
"b x g g 6 j - , i [ D y 1 1 , 1 * * 5 1 3 : # # o @ + @ + + + o o * * * : * * * - * , , , - - y i i i - : : 3 : : : 3 : f l N x ",
"b b x k d - , - ~ X.X.G b 7 * * * @ o O * : : # O @ + + + @ o # - - - : , * r , i 1 w , - - - y i 5 5 y i , : : 8 : , 3 y y f N ",
"x b b x - i , k X.O. .' 9 0 9 6 0 9 l l l l 8 3 < 3 < < 3 k k 3 5 3 4 3 3 3 5 3 3 3 4 5 4 4 x x x x c c x l x x 3 3 5 4 5 3 a g ",
"f x f g 1 - k H X.O.' ' l 0 9 4 8 B l x l l l l l l l l l x l l x l x x x l l l g z f l l x c x H x l G H x l l l l l d l x z l ",
"b x G 0 j , j G Q Q ` F x 7 7 l ( I C C C M C C F F C C Y T ^ R F F M F B C B A M B C C C A B C C A C C C A C l l C A B x c k k ",
"l x x C A 8 # C A Q A x 6 7 6 x / ( Y Y M Y ^ C M / C ^ Y Y C c Y F B M B n M B m M M C V C C C C C C C A C C l V C C C V B x x ",
"m x l k A M B C B B k 9 6 0 6 l l I ^ I ` Y ( ( ( ( ^ / Y M l l x M M l M M b 6 x C B c Q ] J ) ] ] K ] Z C A Z A c c N A C V x ",
"x 7 k k 0 k B V M k 6 6 9 6 6 6 l m I V ^ Y ( ( ^ Y Y Y M l l l x x x b 6 6 7 7 3 3 6 J K L K K U L U L P k 8 8 6 5 u 6 d d 6 : ",
"l l l k j j j 6 k z k k k j k k k k V l 9 M M H M M M 0 9 6 7 6 0 0 6 k 6 d * * ; * , > w > = > > > > $ > e > : : : 5 , : : : v ",
"k k k k j j 6 9 j j k j k k k j k k z k k k k M l 0 0 0 k d 7 6 0 0 7 7 6 6 + o * * , - w e = = q > q > , > ; : , : 5 , , 8 v k ",
"l j j j j j j j j 9 9 6 j j k j z l p k k 0 0 0 l l 8 8 8 8 6 6 o 0 k d o . o - > 5 i y a i y a y t e t e j z j k k z j v v k z ",
"j . j j j * * : : ; : # $ j k j l l l k d k 0 l l l 0 7 j 9 6 j 0 o o o o o & p k k g d G G P P G A z j z j j j z j P N z x v k ",
":   o . ; > $ $ . . $ . j 8 j r j j j z j j j k k k k 6 k k k 6 9 k u 5 - * 9 6 N b Q E  .[ |  .|  .E A F A A A A A ) E c N x x ",
"6 o . $ $ % $ $ $ ; 5 9 j % % e q j j k j k k k 9 u u u u u u d k p k k 4 5 9 m N R R T T R ] T R T A A F C A C C E ] T A b v x ",
"c 6 * * , , > j j 9 j 6 % j j z q e e w a r w y i i 6 u - - 1 1 : : 9 j 9 9 m A T Y C c A C C c B B Y U V C C C ^ ` T A B A x N ",
"c c 6 j k E p 9 j p p 6 j j j j j v e q , i , 1 i , i 1 i 1 - - , , - 6 9 N B B Y B c c x l x x x C I x C M x C V I C Z x B A A ",
"l l N l ] ] ] E c g g l k j j k x ] j , 5 , , 1 5 5 6 9 9 C R A m x x ; C M C C N x l c k k k l x l c l c m m M C C m m x m b k ",
"l l l b ] ] E T A g l 6 p 9 8 l / C A 9 9 9 8 9 9 8 6 4 9 9 ` B B M B C M M B B x l 9 9 k 6 9 k 9 k 0 k l l M C M M x x k k k l ",
"g l x x F Q W G F f p C C C B B V T C ` M C R R C M M 4 0 8 k Y M C C B M M l x l 0 k k k j j k k 0 k 0 0 0 0 0 x c f x l x l l ",
"x x x h A G G A x d k d k V B M V m ^ ( ( ^ M M m M M m   9 k 8 F C F 0 6 6 9 8 : : k 0 k l k l k l 8 3 8 # 3 l l k l l l f x x ",
"x x b b B b D b f f f z d 6 6 6 8 8 0 m m m 0 k 0 k k 0 0   8 k : : * , - * * * o o o o ; o - - - - - - 1 1 * 1 1 , y - b b f N ",
"h N b b N b x b v f l g d 6 7 6 9 5 8 0 9 k 8 3 k k 3 # 3 < # : & - * u i 1 , * ; @ o o ; * - - - 1 1 - i i y 3 i 1 1 y u b N h ",
"B B B N b b b h f x l g d 6 9 9 6 9 6 8 3 4 8 6       + @ @ k l 3 4 4 4 x l l l 3 < 3 3 3 3 3 4 2 6 3 6 4 b b b b x N N h y N N ",
"b f N h x x D b x f l l d d 6 k 6 9 * : O               X @ X l f l G l G G A A l l l l z l l x x H D b b H D H b H b h N v N n ",
"f f l b F G Q ~ G g d c g k l < < < o * ; o + X   0 l 0 0 l M X B A A R A C R F C F 0 l k m F F G Q ~ [ Q Q W Q [ ' G G f x h N ",
"d l k l S Q W R G - 6 6 3 3 3 : & # & & ; o 3 3 3 l c 0 M C M M B M ` ` T Y T Y F M F 0 x b m M F F Q ' R Q ' ' ' ' W F g f f d ",
"d 7 k M Y Y T F x N & ; o o ; & * * * l k k k k 0 l l l 0 0 l m C M M B B R Y B C l l x l x l b 6 C C Y Y B Y ^ B F A 6 0 g g d ",
"d < < < n H M k l l x l o o o o l l v l l k 0 k l 0 l 0 0 l 0 l B C C S n h 7 f 0 0 l l x x b l 9 6 M C M M B C M M 6 6 d k d k ",
"# +   X X X < 3 3 3 k l k < < k M Q Q Y x 6 7 6 k k 0 0 k k k l 3 3 3 3 & #     3 3 3 x   l d k k k 0 8 m 6 8 M 8 6 6 d k k l k ",
"      +   X X o X @ l x 0 k k C ' M C Q Y d 6 6 0 k 0 k 0 k k l * , * , ; o . X         l l k k k 0 0 k 9 9 9 5 6 9 6 9 6 k : X ",
"  # # # # : 6 p k 3 o 0 l l l C C M B B Y d 7 6 l k < < @ @ @ * : , , l x k k k l l z l k l k k k k k k p d 6 d k k k 0 8 9 . . ",
"3 0 7 0 0 k 6 k l x 8 x x x l g C F f f 2 2 2 2 3 : : ; . o o & : * l x l k k l z l l x k k l k k k d k k d l l k 9 6 & o o @   ",
"0 0 k 3 o ; 5 6 k l l l = * - - 5 5 i i - - - - i 1 , * * o C B ` ` ] C A A x x c g l x v z l z z x z z x j 6 p , , > * . o : 8 ",
"0 k 6 @ 5 9 * * , - - - - - y y i s i u i 1 y u p , , , 3 7 7 7 N ) ] ] B x x m l z z l Z j x v x l v j = t t - r r , * 9 6 T l ",
"l 0 k k : 3 : 6 3 : : : 2 4 6 6 2 2 6 N 6 s s s i a i , - : , 3 C C A A x x c l z l z z j e v p e q w q w = - t v x l A ) ) C k ",
"l k : : : : x x x 3 7 x N N f b b N f x b x b 5 s j a a t * > 3 : g A z x l l x l z z Z v j q q t q r r 5 6 v x x G A ) R R k k ",
"l k k l A A A F F G F G 7 k G H G I H ~ ~ ~ ~ X.} G - w q w t > > e = $ a y a z v g v v P v s z v z j j P A [ | | ] E T ) B l k ",
"l k l B A C T / R ^ G / G k 6 k G G G G G G Q ! A x v x q w e w e e r q e w % q = v v Z P P Z N Z Z j | | | ) ] T Y Y P N x l k ",
"k k B B C Y Y Y ' ` ^ F F F 0 0 k j p 9 6 0 6 6 l A P v x v 1 u 5 u 5 v z g g k v q Z Z P P A P v P _ | F _ ) x / z V N z l l z ",
"9 l m C C B B Y Y ^ M Y F C A C 6 9 9 k 9 6 9 6 A A A A x v g N N x v v v g z Z v v v P A P A A Z Z A A C V x k z l c 9 8 k j 8 ",
"8 9 l k m C C M Y M C C m x l l m x x b l l k k x x c A | P { | |  .P v N V V Z A P G G A A A C Z A c z l j 9 j 8 3 8 8 j 6 6 6 ",
"p 9 9 k k k x x C C c c l l l l x b k 7 d d l k k x x x A _ A A A  .[ A v V m A Z A G b C v C A C c c l k l j j 9 8 3 6 8 8 5 6 ",
"6 6 9 9 k k l l c c l k l l k k k k k k k 0 0 k k 0 c v A A j 9 c j x c c 8 9 9 N c 6 j N 9 c V x x j j x 9 9 j : : : o X .   6 ",
". j k j x c l x k l k k k l 0 0 k 0 0 k 0 k 0 k k k k x C k 8 ; 8 6 x c 9 8 9 9 6 6 6 6 9 9 x c l j k j 9 9 k j o . . $ ; . . $ ",
"* - 6 5 5 b x x x x k 0 0 0 0 7 0 6 k k 7 k 9 k k k 0 k x l c x k M V x l x d k l 0 0 l l 0 k 0 8 8 9 8 d d @ o . . = ; - C - - ",
"- w * 1 y * 4 6 4 4 o 7 0 7 6 6 9 9 6 9 k 0 k j j 9 k 0 l c x x c x B B c c x k 0 k 0 l 0 6 k 8 9 8 9 X + + o o . & 6 G E X.W A ",
"N - - - y i 1 * * o x x k 0 0 0 k k p d k l k k k k k l c x l c V C C B V B l x l 0 0 0 l + 9 6 X @ X @   + o # * * G W ! o.o.} ",
"A 6 6 N y , 6 , m c x x k k < 3 < < < 5 l k k k k k x x x c N x x A C c C c x c l k b 0 0 9   + X + + + O # * 6 6 9 6 G ! ! ~ A ",
"A D F G f f D D 6 p k d o & * & - , - - * 6 6 9 6 7 N c V N b N V V G G N m c x b x l l k 9 : + O @ # # 6 7 0 k x b N b n D I A ",
"l C C A A S ` ' 6 & = & - - y y 1 - i - y , * , a u u V b N N N C 8 P V V V b x x x l l l l 9 9 6 6 6 9 7 7 0 l x l N b v N B N ",
"l l l A Y Y C C & 6 x G N b b b N x N x 5 , 6 i 3 s i i i i 5 1 i 5 5 5 8 - : # c # l l # k k l 6 0 6 7 7 7 6 0 l x N N b b B g ",
"x l l c Y Y m C 9 6 C Q A A b b N b x c c v F G G X.a p y y 1 i i i 5 3 i , 8 8 : # : # x k x l k 7 6 6 6 7 0 0 0 l b x f b x x ",
"l k 0 k l k l k k x x C [ ` A F F F F F F F F G O.O.( Q S S S S T X.X.G H G x f 6 o o : # ; 5 5 5 5 k 5 6 7 k 7 7 7 7 l l b x l ",
"l l k 0 k 0 l k k k l x C ` ` / C C C F C ' [ ' [ [ [ R ( R R Q [ [ [ X.G b x d : 9 9 6 * & * r - x 9 j 6 9 0 7 k 0 7 k l l l k ",
"0 0 k 0 0 0 6 k x l x x l C Y D Y Y Y Y Y Y m ` R R F A F F / ^ R F F G l d 6 6 0 6 9 6 6 * , , i , , j 9 6 4 6 7 0 7 0 k k k k ",
"l 0 k k k c k k 3 5 3 4 3 3 4 # H Y H I M M M C S h f + C S C F F F F l g l k 6 9 l 9 x j 9 k , , i * - . # @ o 9 6 0 0 7 0 7 k ",
"0 0 l 8 . & & = 1 , 1 : @           3 4 m 8 # @ + O + 4 x A C A C x l l x l l l 9 8 l x x x x x j p = & . .       8 8 8 4 8 8 6 ",
"9 8 8 # & & = * i u - * #             + + @ @ @ 3 0 l k l l k l x x l l x l l l l l x x x x x v c v 6 6 X X               3 8 3 ",
"m 9 X 9 6 k k p k s u u 3 * o + + 4 4 4 8 3 4 4 l l l k k l k l k b m m l z l l c x l x 6 x l x b c x l k 8 : 8         8 3 3 m ",
"/ m 8 9 9 p 6 k d l d d 6 6 6 6 9 9 H H H H H D l k k x m m m l l m m m b k l l k k 9 6 9 7 p l c b b x 8 3 8 8 8 # 8 3 m m m ' "
};
