/* XPM */
static char *a46b2587e85b4d2688dfd5d3d93d3cf5[] = {
/* columns rows colors chars-per-pixel */
"64 64 256 2 ",
"   c #0B0101",
".  c #070303",
"X  c #150805",
"o  c #12130E",
"O  c #1B140C",
"+  c #151511",
"@  c #1C1A15",
"#  c #1D1D19",
"$  c #1A1513",
"%  c #110F10",
"&  c #270A0A",
"*  c #37060B",
"=  c #271609",
"-  c #280D12",
";  c #380C14",
":  c #221B15",
">  c #221E1A",
",  c #2A1816",
"<  c #35151B",
"1  c #3B131B",
"2  c #361918",
"3  c #321909",
"4  c #1E211B",
"5  c #24221B",
"6  c #2B231C",
"7  c #28271B",
"8  c #3A271A",
"9  c #362B0F",
"0  c #3C1C22",
"q  c #341A22",
"w  c #291D22",
"e  c #2C2B23",
"r  c #292723",
"t  c #372825",
"y  c #34332A",
"u  c #3A3A2E",
"i  c #373328",
"p  c #3C3C33",
"a  c #383532",
"s  c #2F3129",
"d  c #430D16",
"f  c #45151C",
"g  c #4F1A0A",
"h  c #43281B",
"j  c #483018",
"k  c #431C23",
"l  c #491A24",
"z  c #541B25",
"x  c #472728",
"c  c #56272B",
"v  c #4C3324",
"b  c #493728",
"n  c #543929",
"m  c #473A34",
"M  c #583934",
"N  c #532A32",
"B  c #663528",
"V  c #652A34",
"C  c #663939",
"Z  c #763A3A",
"A  c #672929",
"S  c #621E2B",
"D  c #3F4133",
"F  c #58442C",
"G  c #434335",
"H  c #45453A",
"J  c #4C4B3C",
"K  c #4A4537",
"L  c #584837",
"P  c #57523D",
"I  c #504C2F",
"U  c #63443B",
"Y  c #674937",
"T  c #764838",
"R  c #69563A",
"E  c #77583C",
"W  c #6E472B",
"Q  c #685A30",
"!  c #713942",
"~  c #593C41",
"^  c #4D4D41",
"/  c #554C43",
"(  c #4F5041",
")  c #545344",
"_  c #5B5543",
"`  c #5C5C4B",
"'  c #575748",
"]  c #5D5E52",
"[  c #6A4844",
"{  c #764A47",
"}  c #645A48",
"|  c #7A534B",
" . c #775846",
".. c #635B54",
"X. c #7B5657",
"o. c #6D4E53",
"O. c #5F6050",
"+. c #63614D",
"@. c #6A6449",
"#. c #7C6245",
"$. c #79644A",
"%. c #646353",
"&. c #6B6554",
"*. c #6C6B55",
"=. c #6D6C5A",
"-. c #696659",
";. c #726D5B",
":. c #766A55",
">. c #74735C",
",. c #797559",
"<. c #6F705C",
"1. c #796A67",
"2. c #7C7B64",
"3. c #797765",
"4. c #777371",
"5. c #8F3D3A",
"6. c #854B3D",
"7. c #82613E",
"8. c #86494C",
"9. c #865949",
"0. c #865B57",
"q. c #934F53",
"w. c #85664B",
"e. c #8C665D",
"r. c #886855",
"t. c #946B58",
"y. c #88765A",
"u. c #98755C",
"i. c #936C4D",
"p. c #8F5B62",
"a. c #A7596B",
"s. c #8D6865",
"d. c #946B65",
"f. c #976A66",
"g. c #827C65",
"h. c #877B66",
"j. c #9B7264",
"k. c #9C746C",
"l. c #987867",
"z. c #9C7372",
"x. c #9A7976",
"c. c #8C7275",
"v. c #A56766",
"b. c #A4746B",
"n. c #A57969",
"m. c #A27574",
"M. c #A37B74",
"N. c #AB7C74",
"B. c #A47B7A",
"V. c #AB7D7B",
"C. c #A97576",
"Z. c #B47D79",
"A. c #B46F72",
"S. c #A47559",
"D. c #C16E7E",
"F. c #7F816C",
"G. c #99845B",
"H. c #83836B",
"J. c #898469",
"K. c #978569",
"L. c #848571",
"P. c #8B8B73",
"I. c #8A8874",
"U. c #988A75",
"Y. c #989479",
"T. c #8D9076",
"R. c #A5836A",
"E. c #AB846C",
"W. c #A78968",
"Q. c #AC837B",
"!. c #AB8677",
"~. c #B4837B",
"^. c #B48A7C",
"/. c #BA8B7C",
"(. c #B48776",
"). c #A79879",
"_. c #B39776",
"`. c #AD906B",
"'. c #B6A47B",
"]. c #A28A5E",
"[. c #8D7988",
"{. c #A87C80",
"}. c #B17586",
"|. c #9B9785",
" X c #898598",
".X c #979297",
"XX c #AA8683",
"oX c #B48582",
"OX c #BA8684",
"+X c #B48B84",
"@X c #BB8C84",
"#X c #BC8C8A",
"$X c #B58A8B",
"%X c #A89A85",
"&X c #BC9385",
"*X c #BD938B",
"=X c #B79688",
"-X c #BB9493",
";X c #B49293",
":X c #A9A389",
">X c #B8A889",
",X c #ACA697",
"<X c #B9B59A",
"1X c #B6A992",
"2X c #9697A8",
"3X c #9495B4",
"4X c #BBB6A5",
"5X c #B3A8A7",
"6X c #A29C9E",
"7X c #C28D8A",
"8X c #C3938C",
"9X c #C29589",
"0X c #C49593",
"qX c #C49A93",
"wX c #CA9A95",
"eX c #CB9B9B",
"rX c #C69799",
"tX c #CF9599",
"yX c #CDA29C",
"uX c #C8A597",
"iX c #C8BA98",
"pX c #CDAE95",
"aX c #CD9EA1",
"sX c #CD98A8",
"dX c #D09FA3",
"fX c #CEA3A4",
"gX c #C5A9A6",
"hX c #D1A3A4",
"jX c #D4ABA4",
"kX c #C5BCA8",
"lX c #C3BBB4",
"zX c #D8B5A9",
"xX c #C9C4A9",
"cX c #CBC7B7",
"vX c #D5CBBB",
"bX c #D6D1BB",
"nX c #D7C9A8",
"mX c #E6D0AE",
"MX c #CBC39E",
"NX c #ABAAC5",
"BX c #D3CAC6",
"VX c #D9D6C8",
"CX c #DDDBD4",
"ZX c #CAC6C6",
"AX c #E5D9C9",
"SX c #EDD8CB",
"DX c #E8E4D8",
"FX c #F7EAD4",
"GX c #EBE9E4",
"HX c #F3EEE6",
"JX c #F8F5EB",
"KX c #FCFBF4",
"LX c #FEFDFD",
"PX c #F9F6F3",
"IX c #EBEBF3",
"UX c #E3BAC2",
/* pixels */
"> > # # > > # # @ > @ # # @ $ @ @ @ $ + @ # @ > @ @ @ @ @ @ o o o o o o o o o o o o o o o o o + + + 4 4 4 5 7 7 r e 7 e e e s i ",
"r > 5 > : > > > > @ : # # # # @ @ @ @ @ @ @ 4 4 @ $ @ @ # # $ + + o o o o o o o + + o + @ @ 4 4 7 r r e e s s y y s u u D D G H ",
"5 5 > > 5 5 # 5 > : # # # # # : @ @ # # @ @ @ @ @ @ @ : 5 # 5 @ $ + o + @ + @ 4 4 7 e e s s s D y D y D u D p G D G H K J J P +.",
"r r 6 r 6 5 5 # > > # 5 : # # # # @ @ $ # @ # @ $ $ @ 5 5 > + $ 5 5 7 7 e s s s u u D D D D D D D D J D J J P P ' ' ` %.<.>.,.,.",
"a i t r r r 5 w 5 > 5 5 > : : 5 # 5 5 5 @ @ + O @ : @ 7 7 i u u y D D J J H J ( ( ( ( ( ) ' ) ) ' ' ` +.+.%.*.*.>.>.>.2.F.J.J.J.",
"= 6 t i p m p a i y s e 7 5 : 5 7 5 o # 7 7 e e 7 i D G G ' ) ) ' ' ' P ' ] ] ] O.O.O.O.%.%.%.*.<.<.,.2.H.H.H.H.H.2.g.2.2.H.F.2.",
"P.;.P b O . . . . w e a y u a s X 4 J u i D y D J J *.J.J.J.J.J.,.J.J.T.Y.J.<.<.>.<.3.F.F.L.T.P.T.P.J.P.J.J.H.g.,.3.>.>.<.=.<.*.",
"KXJXGXCXBXlX5X|.L.*.I 9 o . : j @.J.Y.Y.,.@.$.Y.).).Y.K.W.`._.]._.'.`._.'.'.).).Y.Y.Y.).Y.Y.Y.Y.T.P.J.H.H.2.3.=.*.+.%.%.&.%.%.%.",
"LXLXLXLXLXLXLXLXPXIXGXDXBXcX4X4XkXiXpXiX'.'.MXpX'.'.'.`.`.].G.G.G.G.y.i.G.W.W._.'.'.).).:XY.P.I.F.3.>.;.*.*.-.%.%.O.] ` +.` ] ` ",
"LXLXLXLXLXLXLXLXLXLXLXLXLXLXLXKXDXCXAXFXbX:XK.#.#.#.i.#.#.#.R T R E $.#.$.R R $.y.].`._.'._.Y.y.*.=.&.%.%.+.O.} ] ` ' ] ` ' ' ) ",
"VXDXDXHXPXLXLXLXLXLXLXLXLXLXKXGXCXDXVX4X).Y = 9 9 : , & = = % % $ t 7 o . . O , i F P G.).'._.).y.&.*.+.} ` ` ' ' ' ) ) P J H H ",
"xX<X<X:XY.:X<XxXVXDXJXPXLXLXLXHXlX1X .= = 8 6 = O O # : % O $ : t e + o + X X 6 8 I F j w.y.K._.).J.@.` ` ' ) ^ J H D D D i s s ",
"JXbX<XY.*.*.,.F.F.Y.MXbXbXFXJXAXJ.R I L b r : , : O @ @ O + @ a r $ O 5 j b F M L L R Y } r.#.y.K.`.*.K ^ H p p s s s 4 4 4 4 # ",
"FX<X%XP.F.P.F.T.T.:XMXmXmXmXiX'.w.$.Y b t 8 , , 7 7 , : $ - , , : , , 6 x b } y.y.y.$. .E y.y.#.$.Y.J.L 6 s 5 5 4 4 4 4 4 e s u ",
"Y.H.H.H.J.F.T.T.T.>XMXnXiX'.].i.w. .Y I b 8 x i i t 6 t , > > > 6 , , , 6 8 v E r.h.K.r. .r.K.K.$.$.l.K.m O s r s a D D D ^ ' ] ",
"2.2.F.H.F.P.T.T.T.).iXiXG.Q w.E F F I b n m m M n x t t t 8 , 2 , , : = 5 9 t t b L R | $. .y.G.y.$.$.K.J.' H ' ) ] ] ] -.<.3.F.",
"H.F.F.L.L.I.T.P.Y.>XiXK.L b I b i b b t v n x M M U U U [ | { Y C v h 2 2 8 x t h b b v F  .#.r.r.$.$.$.y.,.>.3.>.3.2.F.F.T.T.|.",
"F.F.L.L.F.L.H.H.Y.1X'.R b j 8 8 b n j h n  .w.t.v.S.j.M.N.Q.N.b.j.t.| C C Y { | | C 2 3 3 b U F R  .E $.y.K.P.H.L.L.L.P.P.I.T.|.",
"2.2.2.4.2.F.F.F.g.U.).*.X i 9 b b v F #.u.j.n.(.(.(././.&X@XOX@X/.N.b.j.b.j.m.N.B.N.s.[ n 2 2 h v R R #.y.K.h.g.F.2.3.>.<.3.<.3.",
",.2.2.2.F.2.,.,.;.J.:XR O 8 8 n b Y w.l.R.E.(.^./././.&X&X&X9X*X7X@X@X+XOX7X*X8X*X*XOXZ.k.0.L 3 3 8 b R w.y.h.;.%.+.` _ ( ^ J H ",
"F.H.y.2.3.>.>.%.+.+.y.,.9 i b F F $.u.n.W.E.(.(././.@X7X@X7X7X8XwXwXwXeX0XwXwXwX8X8X9X@X+XQ.k.[ x 8 n I  .:.y.&._ _ ) / ( ( ( J ",
"F.,.>.;.%.=.%.` J G *.K.P 9 b j Y $.u.W.E.E.(././.@X/.7X8X7X8X7X0XtXtXeXrXrXeXeXwX0X8X8X*X@X^.M.[ b Y L F $.h. .} +.} ` ' _ ' ` ",
"@.+.` +.%.>.<.=.O.%.,.J.y.= b I F $.K.E.E.(.(./././.7X7X7X@X0X#X0XeXrXrXdXaXfXeXwXwXwX8X*X&X&X!.r.U M b 8 } h.&.) ` ' ' ' ) ' ' ",
"%.*.<.>.L.T.T.L.2.2.F.J.J.j b b F #.u.E.E.(.^./././.7X9X8X8XwXrXeXeXrXtXaXdXfXaXwX8XwXwX&X&X&XQ.y.U n b b } h...J J ^ ^ J ^ ( ) ",
",.,.J.>XxXVXVXxX:XF.T.J.J.I b F F #.G.`.E.(.(.@X&X8X8XwXqXeXeXaXaXaXfXfXfXfXaXaXaXwXwXwX9X9X=X_.d.U L F L :.h.} J ) J ( ( ( ( ( ",
"bXbXbXDXJXKXKXJXVX4X<X<X,XR j Q F $.K.E.`._.+X_.&X&X8XwXrXfXgXfXfXeXfXfXfXfXfXhXyXfXwXwXpXqX*X&Xl.U Y L L y.g.L ) / P J ( ' ( ' ",
"LXLXKXLXLXLXKXLXKXJXJXJXFX%X9 F v t.E.R.!./.&X*X*X8X8XqXrXfXfXhXfXhXhXfXgXsXfXhXfXaXdXhXuXyXuXqXR.L R  . .h.:.J P J J J J ( J J ",
"LXLXKXKXLXLXLXLXLXLXLXKXLXAXb 9 E R.K.n.n.!.!.~.+X*X*X-X0XrXrXyXyXdXaXaXsXrXrXaX-X-X$X$X&X*XuXuX+XY n r.h.y.I G m G G G D D D D ",
"LXLXLXLXLXLXLXLXLXLXLXLXKXDXn 9 G.K.y. .W Y Y U L [ X.d.k.V.OX$X#X#X#X#X$XB.s.X.[ ~ [ X.d.l.x.=X1X:.3 r.J.} 3 u m p u p D p u a ",
"4X4XcXBXVXVXCXDXGXIXKXKXvXY.I R K.K.y.$.$.0.| X.{ [ M v U 0.b.C.Z.oXoXZ.f.| C [ { 0.s.f.d.z.l.^.uX!.8  .U.XX) 7 J H H p u y y s ",
"3.F.*.@.@.+.*.,.F.J._.9Xg g W  .W.W.i.i.w.| { { X.o.U C B B 9.n.OX0X@XN.8.C { U o.X.p.p.s.z.M.+XuX=XY | j.).U.8 G ) J D u s s y ",
"F.L.H.3.=.%.` _ I I y.u.W r.W w._.!.l. .n v } K . t c.c.| { { n.*XeXqXM.t.0.o.s.^ . r } M C r.!.uXpXe.E b.b.!.Y 5 G u y s 7 s s ",
"<.<.<.+.` P _ P P L l.l.6.S.E i._._.W.u.r.r.k.s.o.c.;X{.k.k.9.n.9X8X0XN.C.V.z.{.c.X.p.x.s.f.b.&XuXjX(.0.OXOX^.~   a r e y e e 7 ",
"P ' P P J P P P J I $.l.i.i.W i._.!._.!.E.n.d.j.z.B.m.V.V.b.v.(.7X8X8X~.V.Z.}.z.C.}.}.B.Q.-XpXpXpXzX&Xt.=XeXU.t   r 6 t s e e e ",
"I J P P P P I P P Y R l.i.6.6.i.!.(.^.^.^.^.~.Q.}.}.oX$XQ.N.n.A.Z.tX7XOX#X$X$X;X-X-X;X-XeXjXjXjXjXzXuXj.$XjXx.    r 6 e i i t 6 ",
"O.*.:.,.,.J.F.F.K.U.R.`.u.B W S.E.(./.&X_.+X*X#X$X$X#X7X/.(.n.n./.8X9X/.^.8XrXrX-XrXdXaXfXjXjXgXzXzXuXb.#XjXc.  , > 7 i i i i u ",
"F.Y.<X<X<X<X<X<XMXxXMXiXS.9.6.7.W.E.(.(.&X7X/.8X&X9X9X/.(.n.n.n.@XwX7XOXOX#XeXeXaXeXrXeXhXhXyXyXjXzX8X~.wXuX1.. s r i p G G K K ",
":XCXKXLXLXLXPXKXPXHXHXFXuXr.u.w.].E.W.(.(.@X9X/.@X9X9X7XZ.j.S.Z.8XeXwX7XZ.OX0XeXtXeXeXaXyXwXqXwXyXpXyXfXjX;X[ 6 m m H ^ / / P P ",
"5XLXLXLXLXLXLXLXLXLXLXKXFXl.i.i.i.W.n.(.^.&X&X9X7X7X7X/.A.n.N.(.7XeXwXwXOXZ.8X0XtXtXaXrXwX0XqXqXwXpXyXjXzXU.[ } ` ` ........} } ",
"%.VXKXLXLXLXLXLXLXLXLXLXPXvX9.E i.S.n.(.(.@X&X*X9X7X@X(.9.i.9.t.j.b.M.b.V.Z.oX7X0X0XrXrXrX0X-X-X9XuXqXuX,X3.*.;.*.=.=.;.-.%.%.O.",
"9 9 U.,X5XxXcXVXAXDXGXGXHXJXCXVXSX=Xy.!.(.&X&X#X@X7X/.N.i.6.B B B Z 8.T f.~.7XOX7X7XrX0XqX-XqX*X>X=XU.!.h.,.>.>.;.*.=.*.&...+.+.",
"y a   . X = 9 I I Q @.$.J.J.Y.:X:X%Xl.R.E.^.+X&X7XOX~.OX(.v.v.C.b.C.N.C.#X7X7XOX7X7X#X0X-X*X&X=X*X=X%X:X%X:XY.T.T.P.J.g.3.&.%.O.",
"J J P } P _ P @.P @.P } Q I G   9 K.l.j.R.~.(.+X~././.~.(.~.7X7XOX#X7X#X-X8X*X*XOXOX#X7X=X$X=XXXkXAXbXxXkXiX<X1X:X:XY.I.h.>.=.1.",
"&.+.@.P H.P.:X).1X<XxXkXxXbXbXxXy.y.R.j.l.E.(.(.~.N.N.~.Z.b.b.Z.Z.OX}.OX7X0X*XoX+X$X#X#X+X=XXXXXAXKXJXbX<X1X:XY.U.Y.Y.P.2.*.*.>.",
",.*.<.bXFXHXJXKXKXLXLXLXLXLXLXLXDXY.K.x.l.R.!.V.N.t.{ | Y c Z 5.8.8.! ! { f.k.f.Q.$X$XOX+XXXQ.%XFXPXPXHXVXVXcXcXcX,X4.4.4.1.4.4.",
"*.>.4XKXKXLXLXLXLXLXLXLXLXLXLXLXJX%XK.K.u.R.E.n.n.v.8.{ Z { e.k.s.d.{.0.V Z 8.v.m.oX#XOX+XQ.Q.%XAXLXLXLXLXLXLXLXLXIXZX4. X X X[.",
"xXVXGXLXLXLXLXLXLXLXLXLXLXKXPXDXkX,.).).w.u.b.n.n.A.n.q.v.v.a.a.f.A.a.a.A.v.v.OXV.~.Q.V.Q.!.!.rXz.-XJXKXLXLXLXLXLXLXGX X3X3X3X3X",
"LXLXLXLXLXLXLXLXLXKXLXKXLXLXDX6X4.g.1XkXl.9.u.u.n.b.S.8.6.v.A.A.a.D.A.A.a.p.C.Z.Z.N.V.!.!.M.^.1XXXX lXPXPXIXPXPXLXIXNX3XNXNXNXNX",
"LXLXLXLXLXLXLXLXLXLXLXLXLXLXKXCX6X|.4XvX). .i.t.u.u.u.0.T B 8.q.q.q.8.8.8.j.C.N.N.N.M.k.l.M.^.uX-Xn n $X,X.X5XNXNX3X X3X3X3X3X3X",
"LXLXLXLXLXLXLXLXLXLXKXKXLXLXPXCXcX4X4XvX>X . .r.u.b.n.n.j.9.{ | { 0.p.f.m.V.V.Q.!.b.k.k.l.!.!.-X*X[ c ~ c.[.[.[. X3X2X X2X2X5X3X",
"SXSXHXHXPXPXKXKXKXKXJXJXHXGXDXDXVXcXkXkXU.#.$.w.u.S.n.A.(.OX@XOX$X-X0X-X8X#XOX+XN.k.j.t.n.Q.+X*XoXZ c U M X.|.5XlXlXkXkXkXkXcXcX",
"D.7X0XsXsXUXmXSXSXFXFXFXFXDXDXDXSXbXlXl.3 w.w.E E i.S.E.!.~.~.OXOXOX#X$XoXoX+XN.x.d.e.k.!.Q.oX#XC.c V C C c o.;XcXbXVXvXvXVXvXvX",
"a.a.a.}.}.}.tXtXtXmXmXSXAXAXCXAXVXvX5Xi   ..$.w.E E w.u.j.b.m.V.{.}.N.Z.N.b.n.j.t.r.d.M.XXoXoXoXp.d V N V ! N o.s.{.gXZXBXBXVXBX",
"5.q.5.8.8.q.v.A.D.tXzXvXAXVXVXCXVXBXc.. X L w.#.w.#.T E  .0.9.e.s.f.f.s.f.s.X.| X.d.B.XXXXoX+XV.Z z V c N x x N ! ! ! p.[.6XNXNX",
"5.5.5.5.V ! 5.5.i.Z.uXzXBXBXBXBXVX6X> $ X v #.w.E 7.7.Q F U v x x N M M M M U X.d.B.{.XXXXXXXXp.d A z z N k 0 N V ! 8.! V V X.[.",
"5.5.5.Z S S A A 6.A.rXgXlXlXcXZX5X..  2 X 3 Y  .7.E E E Y F v h 9 3 8 2 b | s.x.B.B.V.V.{.}.m.! d c z z l k x k N N N ! ! M z c ",
"| X.o.M h 2 h B 6.S.$X5XgX5X$Xc.[ & ; - & = b Y E 7.E E R T n n n v L [ s.f.z.m.B.B.B.B.B.B.p.f l f 1 1 0 0 0 l k 0 l N N N m m ",
":.s.&./ b , g z Z S.XXB.f.! g d * f 1 & & & 8 F Y E E E E Y W Y [ | e.d.z.c.z.z.m.m.B.x.B.z.V d l f 1 1 0 0 0 0 x l 1 z N N a N ",
"1.s.X./ i X = v E s.8.N * f k 0 1 t < - = = 3 j Y Y E  .9. . .{ | 0.d.z.z.z.m.z.m.m.x.B.z.{ ; z f 1 < 0 0 q 0 k k k k f S S S V ",
"' ../ i t b ~ { { c & * f k 0 - , 1 ; < & & 2 x v Y R 9.r.w.r.e.t.s.d.k.z.x.B.x.x.x.B.B.0.d l l 1 1 1 1 < 1 q k l l l ; d S S V ",
"^ H K / [ [ C V z * d 1 1 2 < & - 1 1 1 ; , f N n B Y 9.r.r.r.r.t.e.d.k.k.m.B.B.B.B.V.0.d f f 1 ; 0 1 1 1 < q k 0 z z f ; ; f S ",
"X.o.C N c c l l ; ; 1 k < < < X - 1 1 1 < ; x M U Y U  .e.t.t.s.e.s.s.d.d.x.B.V.V.V.0.* d l f 1 1 1 1 1 < q q q 1 l N l ; ; ; l ",
"~ 0 < q q q q - - - < < 0 q - - - < 1 ; 1 ; 0 ~ X.r.| T r.k.k.z.l.l.k.k.M.Q.XX+XoX0.* f f l 1 1 1 1 1 q q q q q q q q 0 < - - q ",
"% # r q q - - - - , - < t q - % & 2 1 ; 1 1 * ~ 0.d.d.X.t.z.!.!.M.B.M.M.!.+X=X+X0.& f 1 1 ; 1 1 1 1 1 q - w w q q < < q ; - ; k "
};
