/* XPM */
static char *_1fd3afb744949cefe8bdf56556a6287[] = {
/* columns rows colors chars-per-pixel */
"64 85 256 2 ",
"   c #0A0100",
".  c #070401",
"X  c #160906",
"o  c #12130D",
"O  c #1A140D",
"+  c #1B1511",
"@  c #1C1B15",
"#  c #1E1C19",
"$  c #161611",
"%  c #240B0B",
"&  c #2A180A",
"*  c #2A0D11",
"=  c #370D14",
"-  c #231C15",
";  c #221E1A",
":  c #2A1817",
">  c #34141A",
",  c #3B141A",
"<  c #361719",
"1  c #37070A",
"2  c #1E211B",
"3  c #24221C",
"4  c #2A241D",
"5  c #292418",
"6  c #39271A",
"7  c #382C0D",
"8  c #381C22",
"9  c #2F1A20",
"0  c #2C2C23",
"q  c #2A2622",
"w  c #382925",
"e  c #2F3125",
"r  c #333226",
"t  c #34342A",
"y  c #3A3A2E",
"u  c #3A3629",
"i  c #3C3D32",
"p  c #393431",
"a  c #191D20",
"s  c #46151B",
"d  c #460E10",
"f  c #44291C",
"g  c #46351B",
"h  c #552B16",
"j  c #481B23",
"k  c #541C26",
"l  c #452826",
"z  c #57252A",
"x  c #443424",
"c  c #4A3727",
"v  c #553B2A",
"b  c #572C32",
"n  c #473836",
"m  c #583834",
"M  c #4A2E32",
"N  c #64272B",
"B  c #652B33",
"V  c #693839",
"C  c #743A39",
"Z  c #6F352A",
"A  c #743513",
"S  c #3E4134",
"D  c #4B4119",
"F  c #4E4129",
"G  c #56432B",
"H  c #434335",
"J  c #4B4C3C",
"K  c #474638",
"L  c #534D3C",
"P  c #594635",
"I  c #53513E",
"U  c #5B5637",
"Y  c #535339",
"T  c #674838",
"R  c #734A3B",
"E  c #695539",
"W  c #77593B",
"Q  c #6E492C",
"!  c #78623B",
"~  c #7D4514",
"^  c #6F3B42",
"/  c #5C3E40",
"(  c #4D4E42",
")  c #4F5141",
"_  c #535344",
"`  c #5B5946",
"'  c #5C5C4B",
"]  c #585747",
"[  c #574F4A",
"{  c #6B4A45",
"}  c #764946",
"|  c #675A47",
" . c #775946",
".. c #7B5754",
"X. c #695954",
"o. c #5E604C",
"O. c #5F6050",
"+. c #63624E",
"@. c #6A654B",
"#. c #7B6244",
"$. c #786549",
"%. c #646452",
"&. c #6B6A55",
"*. c #6D6D5A",
"=. c #696655",
"-. c #736C56",
";. c #74725C",
":. c #7A765A",
">. c #6E715C",
",. c #7C7B64",
"<. c #797965",
"1. c #786E6F",
"2. c #745E61",
"3. c #8C3B35",
"4. c #A33C3F",
"5. c #875039",
"6. c #81613F",
"7. c #953F41",
"8. c #844749",
"9. c #875A48",
"0. c #865A56",
"q. c #975659",
"w. c #905051",
"e. c #A45057",
"r. c #84674A",
"t. c #896757",
"y. c #966B59",
"u. c #897658",
"i. c #98775C",
"p. c #906E4C",
"a. c #A27459",
"s. c #905D64",
"d. c #B15C6E",
"f. c #8B6763",
"g. c #936C64",
"h. c #986C68",
"j. c #857C67",
"k. c #9B736C",
"l. c #9A7666",
"z. c #9C7472",
"x. c #9B7A77",
"c. c #8D7076",
"v. c #A66868",
"b. c #A57968",
"n. c #A47B74",
"m. c #AB7C74",
"M. c #A47C7B",
"N. c #AC7D7B",
"B. c #A47575",
"V. c #B57A7A",
"C. c #B16B6E",
"Z. c #C07677",
"A. c #7E816A",
"S. c #93815A",
"D. c #A18A5D",
"F. c #83846B",
"G. c #8B896C",
"H. c #878367",
"J. c #988668",
"K. c #858671",
"L. c #8B8B73",
"P. c #898876",
"I. c #968A73",
"U. c #989578",
"Y. c #909177",
"T. c #AB846B",
"R. c #A58766",
"E. c #A8946A",
"W. c #AC8374",
"Q. c #AC837B",
"!. c #AA8977",
"~. c #B28573",
"^. c #B38A74",
"/. c #B3837B",
"(. c #B48C7B",
"). c #BA8B7C",
"_. c #B9847C",
"`. c #A79876",
"'. c #B5967A",
"]. c #B38D6E",
"[. c #B6A479",
"{. c #ADA27C",
"}. c #C98B7C",
"|. c #7C7C8E",
" X c #9A7C83",
".X c #AC7585",
"XX c #C37D85",
"oX c #9A9984",
"OX c #8E8A93",
"+X c #AC8683",
"@X c #B48B84",
"#X c #BB8C84",
"$X c #BC8D8A",
"%X c #B68685",
"&X c #A89A83",
"*X c #BC938B",
"=X c #BA9586",
"-X c #BB9592",
";X c #B48E94",
":X c #A9A488",
">X c #B6A887",
",X c #AAAB96",
"<X c #B4AC97",
"1X c #B9B597",
"2X c #B6B18E",
"3X c #999AB7",
"4X c #9090A7",
"5X c #B7B4A5",
"6X c #B5ACAB",
"7X c #9DA2B9",
"8X c #C18E8A",
"9X c #C3938C",
"0X c #C3978A",
"qX c #C49593",
"wX c #C49A93",
"eX c #CA9A95",
"rX c #CA9B9B",
"tX c #C69899",
"yX c #CC9797",
"uX c #CCA39C",
"iX c #CAA796",
"pX c #D4AB9C",
"aX c #C6BD97",
"sX c #CDAF95",
"dX c #CB9EA1",
"fX c #CC99AA",
"gX c #CDA2A3",
"hX c #CFAAA1",
"jX c #D1A4A5",
"kX c #D4ABA5",
"lX c #C3BAA6",
"zX c #D2B8AC",
"xX c #E2B49A",
"cX c #D1C39A",
"vX c #C9C6AA",
"bX c #D4CAA9",
"nX c #C9C5B6",
"mX c #D4CBBA",
"MX c #D6D4BA",
"NX c #D6D2B3",
"BX c #EAD3B5",
"VX c #FCE5BB",
"CX c #AAABC4",
"ZX c #D8D6C8",
"AX c #D5D1CB",
"SX c #E6D9D0",
"DX c #E8E6D8",
"FX c #EDE7CE",
"GX c #EAE9E5",
"HX c #F7EBE3",
"JX c #F7F5E9",
"KX c #FCFCF4",
"LX c #FEFEFD",
"PX c #F6F6F3",
"IX c #ECF0E2",
"UX c #D5D8E1",
/* pixels */
"3 ; ; ; ; ; # # @ - # @ # @ @ @ @ $ $ $ @ - @ - # $ $ - @ $ $ O o o o o o o o o o o o o o o o o $ $ @ @ 2 2 3 5 3 0 5 0 e 0 e r ",
"; ; ; ; ; ; ; - - # # # # @ @ @ @ @ @ @ @ @ # # @ - @ @ @ @ $ O o o o o o o o o o o o o o $ 2 2 2 2 3 2 0 0 0 0 e e r r r S y S ",
"3 3 3 ; ; 3 ; ; # ; # # @ # @ @ $ @ @ @ @ @ # # @ @ @ 2 2 2 @ $ $ o o o o o o $ @ 2 @ a 2 2 0 2 0 0 e t r t t y S S S S S H H Y ",
"4 3 ; 3 3 ; ; ; - # ; ; # @ @ @ @ @ @ + @ @ # @ @ @ O 3 3 2 @ $ $ $ $ @ $ 2 2 2 2 2 0 0 e t S e t y y S S S S H S H H K Y I ` o.",
"q q 4 3 ; ; - 5 ; ; - ; 2 # # @ @ @ @ 2 @ @ $ @ @ $ 2 2 2 5 2 2 2 2 2 a q 0 e e t S S S S H H H S K K K J J Y J I I ` +.&.*.>.:.",
"q q 3 q q q 3 3 - ; 3 ; 3 - - - 2 @ @ @ @ @ @ @ $ @ @ 2 5 3 3 4 e t y i S S S S K J S ( J J J J ) ) _ _ ` o.o.+.&.&.*.:.:.H.H.G.",
"y t 0 q q 4 4 3 q 3 3 3 ; 5 3 3 3 @ 5 3 @ @ $ 2 - 5 5 r e y J K S ( ( ( ) ) _ ] _ ] _ ] ' ` ] ' o.o.%.&.*.>.:.<.:.,.,.,.H.H.F.H.",
"p n K K n n t e 6 4 3 3 3 3 3 - 3 4 o 2 3 3 0 e r S K H J o.I ` ' ' ] ] ' *.%.%.O.%.%.%.%.&.*.;.>.<.:.F.H.H.F.H.H.,.,.,.<.A.<.,.",
"! D &   X q p i S ( i p t q 3 q 2 o S u 4 H H K H y Y A.H.H.H.H.;.j.H.H.U.H.&.&.>.>.;.,.F.F.K.G.L.G.H.G.G.G.A.A.<.:.;.;.*.-.>.>.",
"DXSXnX<XU.:.U 7   . . # e p K i y o.H.;.+.J H @.H.G.G.E.I.E.E.D.E.'.[.[.[.[.Y.G.G.G.L.L.U.U.U.U.Y.G.G.G.F.A.A.;.*.&.=.&.=.%.%.%.",
"LXLXLXLXLXIXDXZXnX,XU.:.U D F @.D.{.[.[.U.H.`.1X2X>XE.S.D.E.E.D.E.E.D.D.D.].[.[.{.{.:X{.U.U.U.U.G.K.A.,.:.;.>.%.%.%.O.O.%.%.%.O.",
"LXLXLXLXLXLXLXLXLXLXLXPXIXZXMXvXbXcX2XaX[.[.cX[.E.[.[.E.E.D.S.S.S.#.p.u.J.R.D.E.[.[.E.`.:XU.L.L.A.:.>.&.=.=.o.%.%.O.O.o.' ' ' ' ",
"LXLXLXLXLXLXLXLXLXLXLXLXLXLXLXKXDXZXZXHXBX>XE.r.6.p.S.$.r.! ! W ! #.r.r.$. .E r.S.R.'.E.[.{.G.:.>.>.&.%.%.O.o.o.O.' ' ' ' ] ` ] ",
"PXPXLXLXLXLXLXLXLXLXLXLXLXLXLXGXDXDXIXGXlX#.g v g g c 7 f 6 5 6 6 u u w - - 5 w F E $.E.[.[.[.I.&.&.=.%.o.o.o.o.] ] _ _ _ ) J J ",
":XvXvXMXFXIXKXLXLXLXLXLXLXLXLXGXAXSX:X! D g 7 5 - - 5 - X o o o + 0 - . . . 3 5 x E F U S.E.'.{.J.-.%.O.o.' ] _ _ _ ) J J H S i ",
"MXcX2XY.$.H.U.1XnXZXIXPXLXLXLXGX5XG.E D g 6 5 O O O O @ o + O 3 w r o + @ . X 5 w c v c $.u.u.E.`.G.@.` ' _ _ ( J S i y t e e 0 ",
"JXNX1X:X:.<.<.,.A.G.1XbXFXFXJXFXE.E U G 6 5 - - - O + O o + - w 0 O O - u F K F K P E P E r.#.i.R.J.-.L _ H i u t t e 0 q 2 2 2 ",
"HXvX:XG.<.A.A.K.L.:XvXNXBXNXbX[.! ! P c 6 4 : - ; - ; - O O : ; @ @ & - 6 c  .$.t.$.@.E E u.r.E u.U.u.u y t e 0 q 3 2 a 2 2 2 0 ",
"NXU.Y.H.A.K.L.L.Y.,XbXNXBXcX[.D.S.@.E c l w 6 q q q 3 : + + : - : : - 5 6 u E t.u.J.i. .#.u.J.u.$.u.J.@.- q q 2 2 2 q 0 e p S ( ",
"G.H.A.A.A.K.K.Y.U.:XcXcX[.D.D.S.$.E P G x p x l l w w w 9 - - : : - & : : 6 f P $.u.J.u. .$.S.J.$.W J.J.I o e e t S S J ( ( ' %.",
"A.A.A.L.L.L.Y.L.Y.{.cXaXD.Q r.! T G F c c n m K n l w w 6 4 < < 5 : : - 5 6 w x x c T $.r.#.u.l.j.$.#.J.j.U S _ _ _ ' ' O.>.<.A.",
"A.A.A.A.K.L.L.Y.L.{.cX{.E F P v g F c x c P v l M c v n m m v v f f 6 & & 6 w 6 c v P c P  .r.u.u.p.#.#.j.u.o.*.>.>.>.A.A.A.L.OX",
"A.A.A.L.A.L.K.K.U.aX[.E F u g u x c x 6 f c m R ..9.....t.g.g.0. .R v l l l c v x l l l x T  .W #.#.$.$.$.u.F.A.A.A.A.oXA.oXoXoX",
"A.A.K.A.A.K.A.A.Y.2X[.$.g g w 6 c G g f T #.y.l.a.b.b.~./././.m.C.B.9.R }  .8.0.0.{ l & 5 l G v T | E W i.I.G.P.A.A.A.A.L.A.Y.A.",
"A.A.A.<.A.A.A.A.A.G.{.$.. e 5 g c x G W p.b.T.~.m.~.).8X#X).).)./.m.v.l.h.v.b.n.N.n.t.V l < 6 6 v E E ! u.S.H.A.A.A.A.<.>.>.<.>.",
"A.<.<.<.>.A.A.;.@.G.:XE   u 6 c x G #.i.b.T.].^.].}.).8X9X9X0X#X8X/./././.%X%X#X#X#X%Xb.t.R f & 5 c G ! r.u.H.:.>.>.%.O.o.o.] _ ",
":.:.A.A.A.A.A.>.&.<.`.E 5 w x F c | u.b.T.T.~.^.)._.).8X8X).9X8X0X0XqX8XqXqXeXqX9X9X8X).Q.k...x < 6 6 P #.u.u.-.O.' ( J K H H S ",
"H.A.A.:.>.>.>.o.` I u.u.g x G g v #.i.R.T.T.^.^.).^.).8X).0X8X8X0XeXrXeXqXyXrXeXeX9X0X#X#X/.W...c 6 F G W $.t.@.] O._ ] ] _ _ _ ",
"A.:.;.-.&.&.o.' J H :.J.U 7 c u Q $.i.R.T.~.^.).).).8X).0X9X9X8XqXyXyXdXrXyXuXrXeXeX0X}.#X).(.k.{ x P T G $.j.@.' O.o.] o.` _ ` ",
";.&.@.o.+.*.*.%.' ` @.G.$.& x F T $.S.T.T.T.^.).).).).).9X).9X%XqXdXyXqXdXdXrXrXeXeX0X0X=X=X(.W.t.P G G 6 | j.@._ ' ] ' ` _ _ ' ",
"o.o.U o.>.A.A.A.>.;.;.G.u.& F F G r.D.T.].~.^.).).).8X8X9X#XqXqXqXyXyXqXdXdXgXrXeXeXeX0X0X'.'.Q.t.{ n x g P u.@.J _ ( ) ) ) _ ] ",
"&.>.;.A.Y.U.oXY.A.A.F.L.H.g D F G ! l.R.T.^.^.).}.).0X0X9XeXeXyXrXrXyXgXgXjXgXrX9XeXeX0X0X0X=X!.f.P P v m | j.%.( ) J ( ( ( ) ) ",
"A.A.A.,XvXMXZXvXoXF.K.G.H.U D G G  .i.R.T.].^.).).0X9X9XwXrXgXrXdXdXgXjXjXgXdXgXrXeX0XeX0X0X=X(.g.T P n P t.j.| ( _ ) ) ) ) ) ) ",
":X,X1XMXIXKXJXIXNX,X:X:X`.E x G G #.R.R.T.^.(.).}.8XwXwXuXdXuXgXdXdXgXgXgXgXgXjXgXuXiXwX0X0X0X'.l.U T P G u.,.L ) _ ) ) _ ) I ) ",
"JXIXJXPXPXKXPXPXIXZXZXMXvX:.g G v r.R.R.T.'.'.=X=X=XwXwXrXgXjXjXgXgXgXgXjXgXjXjXgXuXuXuXiXeX0X=Xk.T | E E u.:.Y J _ J Y ) ) Y J ",
"LXLXLXLXLXLXLXLXLXKXPXKXJX1X7 v G i.R.R.^.=X=X-X>X0X-XqXwXrXfXjXjXgXjXjXjXgXgXjXgXuXrXgXiXpXpX0XI.G E  .$.u.&.J J J J J J J K J ",
"KXPXLXLXLXLXLXLXLXKXLXLXLXZXc 7 W J.R.R.b.T.Q./.=X-X$X;X*XtXrXdXfXdXdXyXfXtXdX;XtX-X;X;X*X*XiXiX!.T G t.u.:.F S H S S S S H S S ",
"LXLXLXLXLXLXLXLXLXLXLXPXKXSXF 7 p.R.u.W |  . .....t.h.M.m.@X$X*XqX-XqXqX;X+Xx.c.2...0.f.x.n.!.<X-X$.6 u.J.@.r y S y S i S S y S ",
"IXIXPXLXLXLXLXLXLXLXLXLXLXAXF g i.R.r.W R { T m l l c T ..l.V._./.%X%X%XN.0.V m l b { ..f.g.i.!.iXg.& $.l.-.5 y S S S y y y r t ",
"U.U.:X,X5XvXnXZXZXDXJXIX<X@.P E J.D.u.t.r.0...t.0. .T b V 9.h.b./._.V.m.g.} {  .0.h.h.h.k.x.l.@XiX!.c E I.:X@.O J J H S t t e t ",
"H.A.:.>.@.o.@.@.-.u.E.[.d h P #.R.R.p.p.$. .} { 2.X.^ V z v 9.b.%X9X#Xb.8.Q } { { 0.f.0.f.k.b.(.iX=XT  .i.).P.r K L J S t t t t ",
"L.G.A.<.>.%.o.o.` L :.i.5.5.Q r.`.R.i.9.G v P w 9 8 2.2.{ Z R b.0XeXwXB.0...{ { w : w n P } t.Q.iXsX-.R v.b.W.P r J n t e e 0 e ",
":.,.>.&.%.+.` ' ` U l.R.~ p.R p.^.'.J.r.T T j.2.q [ ;X Xt.y.8.b.0XrXwXB.n.z.0..X1.9 [ c.{ { r.].iXpXl. .~.V.Q.T . y e e r 0 0 0 ",
">.>.&.o.I J J Y J J t.i.5.a.W p.'.].T.i.b.g.h.h.2. X+XM.x.l.r.m.8X0X9Xm.n..XB.B.c.s. XB.k.W./.0XsXzX!.y.8X8X+Xm   e q e e 0 0 4 ",
"L ] I Y I I I I L K  .a.9.a.Q p.'.].!.].R.b.y.l.k.B.M..XN.b.a.b.).9X8X_.N..XN.B.B.B.B.m.W.=XpXiXsXzX=Xy.9XrXI.w . 0 3 6 r 4 0 4 ",
"J J J Y I I U Y I Y | l.a.5.Q p.].].(.(.!.!.!.m.Q..X%X%Xm.C.b.]._.9X8X%X#X@X;X;X;X;X;X;X<XuXkXpXpXxXiXy.#XhXx.X . 3 3 e r r r 5 ",
"J I +.&.@.@.@.@.@.@.$.D.p.3.5.a.E.!.^.'.(.@X@X;X%X;X$X$X_.T.a.V._.yX8X%X).*XwX-XqX;XfXdXdXkXkXpXxXxXwXb.%XjXx.  o ; 4 r u r r 0 ",
"-.:.H.H.G.G.G.U.:X&X:X[.6.3.Q y.T.].'.(.=X=X@X#X@X@X*X'.).~.b.b.}.9X9X#X@X0XtXtXtXfXdXdXjXkXpXpXzXzXrXb.$XjXc.  ; 5 0 r y u y u ",
"G.Y.2X1X1X2X:X2X1XlXaX>Xa.5.5.6.R.T.^.).#X0X=X#X8X0X9X).~.b.a.b.#XyX9X_./.8XyXrXrXrXrXrXjXrXpXiXiXkX9XV.rXrX-.. r 0 r y n H H P ",
"Y.MXKXLXLXPXJXJXIXIXHXFX'.p.a.6.a.R.R.~._.).8X8X#X0X0X).T.v.a./.9XeXwX#X/.$XqXyXtXrXrXrXdXrXwX0XiXsXeXuXpX-X| . i u H ( ) J L L ",
"1XJXLXLXLXLXLXLXLXLXLXKXBXy.a.p.D.R.R.W.^.#X9X8X).8X9X8Xm.a.b.~.8XrXeX0XQ./.qXqXrXyXrXrXrXqXwX-XiXiXpXpXkX+XL K ( ( [ [ [ ] ] ` ",
",XKXLXLXLXLXLXLXLXLXLXLXHX'.5.p.p.a.b.T._.=X=X9X0X8X8X_.a.b.~.~.#XrXqXeX8X/.$XqXtXrXyXrXrXqXiX0XwXpXwXkXzXI.` =.| %.%.%.%.%.| | ",
"' ZXLXLXLXLXLXLXLXLXLXLXLXzX3.~ 5.D.b.^.(.#X=X#X9X8X8Xm.9.p.5.y.h.k.B.v.N.V.#X8XqXqXqXtXuXwX-X-X=XiXtXuX:Xj.&.;.*.>.*.>.*.%.O.O.",
"7 K <XnXZXDXIXJXKXKXLXLXLXLXMXvXZX&Xp.].].).#X0X9X$X8Xb.9.A h Z C R } N 0.V.#X#X8XqXqXqXwX-X-X-X<X=XQ.!.j.*.-.*.&.=.=.=.%.%.+.%.",
"i t . . O g U ! H.I.{.,X1XvXmXDXZX>Xu.R.!._.@X=X#X#X_._.C.y.9.9.8.0.l.v.V.8X8X%X$X8XqXqX-X-X-X=X=X=XU.U.I.G.H.H.F.,.<.;.&.%.O.O.",
"r y J J I ' U ` ' U U U U G D   E E.b.l.!.].(.#X#XV.).#X~.m.V.~.~.#XN.N.%XqX8X8X%X$X8X-X-X@X=X=X>X<X2X1X<X:X:XU.U.U.I.F.;.=.%.=.",
"L K K J I E +.@.@.-.;.-.:.-.@.I | I.l.i.b.~.(.#X)./.#X/.~./.#X#X/.$X$X$X$X-X8X$X#X#X$X$X@X$X=X+XaXFXMX5XvX5X1X:X:XoXoXI.j.;.-.<.",
"@.+.@.o.E @.:.u.S.G.U.`.:X:X2XU.U :.J.i.b.~.^._././.W.Q././.m.#X%X$XqX;XtX-X$X%X@X#X$X$X@X@X@XU.AXKXJXMX1X1X2X:X:X`.oXP.,.*.=.<.",
"&.-.@.G.vXZXZXDXDXJXJXKXLXLXLXKXaXu.J.i.b.T.W.W.W.l.y.b.y.w.8.w.v.v.w.q.B.$X+XM.+X$X%X%X@X@X!.+XSXLXLXSX1X2X:XU.Y.j.F.A.<.%.*.<.",
";.&.A.IXKXLXLXLXLXLXLXLXLXLXLXKXJX`.J.J.i.R.W.m.m.0.V m , h R R C C } V s C 0.t.N.%X$X#X@X@XW.=XHXLXKXPXJXIXGXDXDXnX1.1.1.|.1.c.",
"-.:.vXKXKXLXLXLXLXLXLXLXLXLXLXLXJX:XJ.J.p.b.b.m.B.v.w.} 8.8.i.x.c. X+Xs.} C 8.v.B.V.#X#XQ.Q.!.>XSXKXLXLXLXLXLXLXLXLXCX|.|.4XOX|.",
":XvXDXKXLXLXLXLXLXLXLXLXLXLXLXKXmX,.U.!.p.i.b.b.b.m.a.q.v.e.e.v.v.B.s.e.d.v.C.%Xm././.+X(.!.!.=Xn.zXKXLXPXLXPXLXPXLXGX4X4X3X3X4X",
"JXLXLXLXLXLXLXLXLXLXLXLXLXLXDX,X1.<.&X<Xp.t.i.b.b.m.y.9.q.C.d.d.e.d.d.Z.C.q.B./.N.N.Q.!.Q.n.!.iXC.d DXLXLXLXLXLXLXLXUX4X7XCX7X3X",
"LXLXLXLXLXLXLXLXLXLXLXLXLXLXJX,XP.OX<XbXJ.W i.y.b.b.a.w.8.e.C.V.d.V..XC.q.q.m.N.W.m.M.n.n.n.!.wX#X1 +XHXGXGXGXGXPXUX3X3X7XCXCX7X",
"LXLXLXLXLXLXLXLXLXLXLXLXLXLXLXUX,XoX6XNXE.W p.y.h.a.a.9.R Z C 8.q.w.} 8.w.h.n.m.m.m.B.k.l.!.!.wX=Xl b x.oXOXOX7X3X4X|.4X3X3X3X3X",
"LXLXLXLXLXLXLXLXLXLXLXLXLXLXKXSXnX6X5XNX>X! r.t.y.b.l.a.y.R Q V V C } 0.h.M.m.Q.n.n.k.l.l.b.!.wX=XT k .. X X|.OX4X4X4X|.4X4X4X3X",
"JXKXLXLXLXLXLXLXKXLXKXKXKXPXGXZXAXnX1XnX>X#.r.r.y.b.b.b.m.V.m.m.N..X%X%X$X%X%X/.!.b.l.l.l.!.(.=X(.R z ^ { c.OXoX6X6X,X6X7X5X6X5X",
"kXmXSXSXHXHXHXHXJXJXJXHXHXDXDXDXZXnXvX<Xr. .r.! r.a.T.~.~.).#X8X8XqXqXqX$X$X@X/.W.k.g.y.x.Q.@X=X+XV z V m V OX6XnXnXnXzXnXNXmXmX",
"d.XX.XXXfXAXBXBXVXVXVXFXDXDXDXDXSXNXlXj.% ..r.W W p.i.b.W.Q.N.%X%X%X%X%X@X/.@XB.z.g.t.k.n.(.@X=XB.z B B ^ b { ,XzXAXAXmXmXAXAXAX",
"d..X.X.X.XXXyXfXxXBXBXBXDXSXZXDXZXmX<Xm   $.r.6. .W p.g.b.b.m./.V.N.M.N.n.n.n.k.t.t.i.z.Q.+X@X%Xs.d B B B V b X..X;XzXAXAXAXAXUX",
"e.e.q.q.s.d.XXXX}.xXxXmXZXZXZXZXZXAXoX  . _ r.6.W W W 9.t.f.t.v.B.B.B.z.B.h.g.t...t.z.Q.+X(.+XQ.8.d B z b b M b ^ ^ s..X6XzXCXCX",
"4.4.7.8.8.w.e.e.C.}.kXmXZXZXAXAXZXlXX.. X P #.r.6.r.W E E {  .{ ....0.0.t...| { t.z..X+XQ.+X+XB.B N b z b j w M ^ w.8.B }  X X3X",
"4.4.3.B V C 3.3.5.Z.iXzXAXAXAXAXAX&XX +   6  .6.W 6.! W Q v x f 6 w l n v v m 0.k.n.N.+X+X+X.Xs.d B k k z j 8 M b ^ 8.8.^ k ^  X",
"7.3.3.B h z Z Z 5.Z.0XlX6XAX5XAXzX2.. 0   < E 6.6.6.W R Q G f 6 7 6 6 s l { s.z.z.N. XM. X+Xx.{ d B k k j 8 l 8 b b B ^ ^ / b / ",
"5.8.^ V h h h N 5.C.=X6XgX6XlX<Xc.w & = O & v W W 6.W W E T v g f f l P  .f.h.z.M.M. XN.M.N.h.k j k s j j 8 8 w 8 j b b / b M M ",
"..0.{ P u & s h 5.b.+X-X6XOXs.C d 8 < % % % g T Q 6.W W Q Q Q G m T { ..g.z.z.B.B.M.M.x.M.B.0.1 k , > = 8 j 8 M M j 8 j M M M b ",
"2.f.X.[ t : f h Z h.+X+X..B k s < l = % % O 7 v Q W W W W E Q T { ..t.g.k.z.z.B.z.B.x.x.M.z.b d k , , s 8 8 9 8 k j s j k M k M ",
";.1.X.[ x : & < R y...m k j l 9 < 8 , * % O & x T T W W W  .R } ..0.g.k.z.z.z.z.B.x.z.M.x.8.d k s = , 8 j 8 8 j j j s j k B N N ",
"X.*.X.( 0   l { ..V s = s s 4 - = < = > * % < f v T W #. .9.$.t.t.f.g.c.k.z.z.x.z.n.M.B.h.b d j = , = > > > 9 8 j j j = k N N B ",
"[ [ i w w { ..^ B s = , , , < * * < > = = % 6 g c G Q r.t.t.t.t.t.f.k.k.h.x.n.M.x.x.M.z.^ 1 j s > > 8 > > > > 8 8 k j , = s k B ",
"S H [ { { ^ b z k = = , 8 * 9 * * < , = = > w M m v T W t.t.t.0.g.f.g.h.h.z.x.n.n.M.M...1 k s , > , , 8 9 9 8 8 8 k k s 1 = s N ",
"*.X.V b k k b k = = s 8 = 9 9 X : , , , = 1 l m T T T  .t.y.y.y.t.t.g.h.k.n.n.Q.Q.Q.f.d s s s = , , , > > 8 8 8 8 k k j = * = j ",
"..b 8 8 l 8 8 > * * > = > 8 : X * < , = , * j / { ..{ E t.l.l.g.g.g.g.k.z.Q.!.+X+Xz.z = s j , , 8 , , , 9 9 8 8 9 8 j j > * * , ",
"a # 9 w 8 9 * + * * > 9 8 9 + + % < , = , = > T 0.f.0.R t.k.b.n.x.b.k.x.M.+X@X@Xm.V 1 s s s , , 8 = > > > 9 > 9 9 > 8 8 > % * 8 ",
"a 9 9 8 9 * % * * > : > w 9 % % % = , = , s % B s.g.g.t.y.b.!.Q.M.n.m.Q.+X@X;X.X} 1 s > > > = > = > > > 9 9 9 9 9 > > > 9 * = 8 "
};
