/* XPM */
static char *_831f63a7a81432598ada7a340850945[] = {
/* columns rows colors chars-per-pixel */
"64 64 255 2 ",
"   c #030102",
".  c #0B0905",
"X  c #13130C",
"o  c #1A1606",
"O  c #1A1A15",
"+  c #0E0E0E",
"@  c #261909",
"#  c #271D14",
"$  c #301F15",
"%  c #27230A",
"&  c #362808",
"*  c #2D251C",
"=  c #272618",
"-  c #332B1B",
";  c #352818",
":  c #3A341B",
">  c #2B2723",
",  c #332C22",
"<  c #3B2E23",
"1  c #3C3324",
"2  c #3B3828",
"3  c #3B3937",
"4  c #252B33",
"5  c #101B21",
"6  c #422C1D",
"7  c #46361A",
"8  c #513A1A",
"9  c #433D2B",
"0  c #463826",
"q  c #543A28",
"w  c #46362B",
"e  c #643F2C",
"r  c #51461A",
"t  c #45452C",
"y  c #4B4A2D",
"u  c #494528",
"i  c #564728",
"p  c #5A542D",
"a  c #4B4935",
"s  c #544735",
"d  c #535334",
"f  c #565B39",
"g  c #5C5D3C",
"h  c #585636",
"j  c #4F5434",
"k  c #66562C",
"l  c #664A36",
"z  c #665839",
"x  c #75563C",
"c  c #6A472E",
"v  c #5E613D",
"b  c #5E6436",
"n  c #62633D",
"m  c #6C6439",
"M  c #75673B",
"N  c #797339",
"B  c #5A5646",
"V  c #524F4D",
"C  c #685947",
"Z  c #765945",
"A  c #67564E",
"S  c #5E6240",
"D  c #646542",
"F  c #6B6B44",
"G  c #6C6C4A",
"H  c #686844",
"J  c #756A47",
"K  c #6D7249",
"L  c #73744C",
"P  c #767B4D",
"I  c #7B7A4D",
"U  c #787447",
"Y  c #786756",
"T  c #7B7C53",
"R  c #777652",
"E  c #696359",
"W  c #767069",
"Q  c #655F61",
"!  c #87733F",
"~  c #885D46",
"^  c #87644B",
"/  c #85774B",
"(  c #886A54",
")  c #966D59",
"_  c #877857",
"`  c #977659",
"'  c #97724C",
"]  c #A6755B",
"[  c #877965",
"{  c #997965",
"}  c #8E7D74",
"|  c #A67B67",
" . c #B2796A",
".. c #A07F70",
"X. c #7E8254",
"o. c #7F8058",
"O. c #7B814E",
"+. c #828453",
"@. c #84845B",
"#. c #8B8D5C",
"$. c #898757",
"%. c #948A58",
"&. c #8C915D",
"*. c #93925B",
"=. c #99965B",
"-. c #8B844A",
";. c #A48D5C",
":. c #8B8964",
">. c #998865",
",. c #8D9362",
"<. c #939463",
"1. c #959963",
"2. c #9B9B64",
"3. c #9B9B6A",
"4. c #989667",
"5. c #9B9877",
"6. c #918678",
"7. c #AC836C",
"8. c #A68868",
"9. c #B38A6C",
"0. c #A4996C",
"q. c #B5926D",
"w. c #A98874",
"e. c #B48C73",
"r. c #B88C77",
"t. c #A99675",
"y. c #BC9B75",
"u. c #B6947C",
"i. c #BC937C",
"p. c #BC9B7B",
"a. c #B79675",
"s. c #9EA26B",
"d. c #9FA372",
"f. c #A1A36C",
"g. c #AAA46C",
"h. c #A3A471",
"j. c #ABAB75",
"k. c #ADAB7B",
"l. c #A8A776",
"z. c #B8A77C",
"x. c #ADB27C",
"c. c #B3B37D",
"v. c #B9B479",
"b. c #B1AB6D",
"n. c #C3947D",
"m. c #C39B7B",
"M. c #C5957A",
"N. c #C28877",
"B. c #C3A37D",
"V. c #C8A77E",
"C. c #9C9A85",
"Z. c #9C9A96",
"A. c #928B86",
"S. c #A69885",
"D. c #BD9B83",
"F. c #B89985",
"G. c #A29D96",
"H. c #B59F93",
"J. c #A8A888",
"K. c #BAA687",
"L. c #B4B383",
"P. c #BBBA84",
"I. c #B9B989",
"U. c #A4A29C",
"Y. c #A9A799",
"T. c #B9A999",
"R. c #B9B597",
"E. c #ADB38A",
"W. c #A49EA0",
"Q. c #A6A4A2",
"!. c #AAA6A3",
"~. c #ACAAA5",
"^. c #ACABAB",
"/. c #A7A7A8",
"(. c #B1ADAC",
"). c #B4ACA4",
"_. c #B7B5A8",
"`. c #AEADB1",
"'. c #B2AFB1",
"]. c #B3B2B3",
"[. c #B8B9B7",
"{. c #AEB1B1",
"}. c #C49683",
"|. c #C49C84",
" X c #CB9C85",
".X c #C99C88",
"XX c #D19E89",
"oX c #C5A384",
"OX c #CBA483",
"+X c #C5AB84",
"@X c #CCAA85",
"#X c #C4A48B",
"$X c #CCA48C",
"%X c #C5AA8C",
"&X c #CBAB8B",
"*X c #D2A58C",
"=X c #D2A888",
"-X c #CBB38D",
";X c #C4B989",
":X c #D4B28D",
">X c #C4AB94",
",X c #CBAC94",
"<X c #C5AC9B",
"1X c #CBAD9A",
"2X c #C8A592",
"3X c #D3AB93",
"4X c #D3AC9A",
"5X c #D6A896",
"6X c #CBB293",
"7X c #CBB29B",
"8X c #C5B596",
"9X c #D4B394",
"0X c #D3B39C",
"qX c #D8B897",
"wX c #C9AEA2",
"eX c #C7B6A4",
"rX c #D3B4A1",
"tX c #D6B9A2",
"yX c #CDB6A9",
"uX c #BEC18F",
"iX c #BCC2B8",
"pX c #C3C38C",
"aX c #C8C48B",
"sX c #CAC993",
"dX c #C8C698",
"fX c #D1CC9B",
"gX c #D4D29C",
"hX c #CAC8A7",
"jX c #D2CEA5",
"kX c #D5D4A4",
"lX c #D9D7A9",
"zX c #C8C8B5",
"xX c #DDDBB5",
"cX c #D7D6B7",
"vX c #D2C9B3",
"bX c #E2DDB8",
"nX c #E2DBAD",
"mX c #DEE0B5",
"MX c #E8E5B9",
"NX c #EEF0BF",
"BX c #DBD9C5",
"VX c #D4D6CF",
"CX c #E8E7C6",
"ZX c #F2EEC5",
"AX c #F4F1C9",
"SX c #E8E7D7",
"DX c #F8F7D9",
"FX c #F4EADA",
"GX c #E6E9E3",
"HX c #F2EEE5",
"JX c #FAF8E9",
"KX c #FEFEF4",
"LX c #FEFEFC",
"PX c #F9F5F3",
"IX c #E6D8CB",
/* pixels */
"U O.O.-.&.*.=.s.b.c.uXaXsXgXgXnXmXMXNXZXAXDXDXDXDXDXNXlXgXsXaX;XP.c.c.j.g.f.=.=.#.X.P P P P P o.o.@.,.#.X.P F j t t y j f j v v ",
"s.j.j.c.v.uXpXpXaXgXsXgXgXgXgXgXlXkXgXkXkXkXgXgXsXpXP.c.k.j.k.j.g.g.f.2.2.1.<.,.#.+.I L K L P P O.o.o.o.P n b j b m O.O.O.O.X.X.",
"aXaXsXsXaXpXsXaXpXpXuXP.P.P.pXv.c.P.L.L.c.x.x.j.j.h.h.j.f.f.f.s.2.1.=.*.#.$.+.+.P P K F D b D K P X.X.X.P I K O.X.1.s.f.f.b.x.x.",
"aXaXuXpXP.c.c.j.j.h.s.f.s.s.f.s.s.d.d.h.s.s.s.s.s.3.<.*.<.$.+.$.X.P P K U K F F F L K P P F K X.,.d.j.d.s.=.f.g.c.uXaXaXaXaXP.uX",
"x.c.c.j.h.f.s.s.s.s.1.1.1.1.1.1.1.1.,.,.*.&.&.-.$.-.%.;.%.-./ / N U I I P I T +.#.4.s.l.d.,.,.s.E.E.I.L.h.3.j.v.;XaX;X;Xv.v.b.g.",
"=.s.f.f.f.s.2.2.&.,.&.:.&.&.X.#.X.X.X.P P U I -.=.=.-.-.! N M k i k M / -.*.2.f.c.P.I.I.k.l.3.3.d.d.3.<.+.+.$.4.f.0.2.,.$.O.I U ",
"*.#.&.<.*.&.&.#.$.X.O.O.P P O.K L K m K I %.0.;.! k u 0 7 6 ; ; ; ; - 1 q z J J / _ 4.h.l.h.3.3.d.s.1.<.,.:.:.:.+.T P K G G F D ",
"X.X.P P P P P R P O.P P O.O.O.&.&.1.=.=.-./ m ; . + O O o o , , - * , , * * 1 q s i p J U $.0.0.h.j.L.L.c.L.k.x.x.k.l.k.k.k.l.d.",
"X.O.O.X.X.X.&.1.s.s.s.s.s.s.h.x.P.L.g.%.z : = O > , > > > > @ - 3 > . O O = o # : u k m m k -.g.z.c.P.pXuXuXdXdXsXsXsXgXgXmXmXkX",
"h.x.c.x.x.x.x.I.I.I.uXuXx.j.x.x.g.>.x 8 : - * > , < ; - - # O . C a 2 < 2 = 9 ; , $ - 0 n M %.v.aXgXkXlXmXCXCXCXAXDXHXHXJXJXKXJX",
"uXsXsXuXuXuXI.L.uXL.E.d.3.3.2.-.m i : * * * = # - , - < w , $ # w : 1 1 0 ; 9 u w 0 < $ - i M z.MXDXJXKXKXKXKXLXLXLXLXLXLXKXKXKX",
"uXuXuXc.j.s.3.3.,.,.$.X.I $.L i = - < > , * = = > * # $ < w ; ; ; ; $ * * ; ; 1 0 < = 7 & r i [ bXKXKXKXLXLXLXLXLXLXLXLXLXLXKXKX",
"P.j.f.s.1.1.1.,.,.<.#.,.4.F o = # > 1 $ , > $ w 6 ; q x Z Z x Z Z ~ ^ J Z l l q q 0 & : : 7 i K.DXJXKXLXLXLXLXLXLXLXLXLXLXLXLXLX",
"uXx.s.1.<.4.3.d.d.0.l.k.0.h o - # w t w 6 6 q q q x )  .7.9.r.e.e.r.M.9.7.7.] ' ^ Z x i 0 & p BXKXLXLXLXLXLXLXLXLXLXLXLXLXLXLXLX",
"NXlXP.*.#.&.,.,.3.5.3.k.4.u o = , q q 6 e Z c c ~ | r.M.n.n.N.n.N.N.q.q.M.q.9.M.q.9.] ^ k 7 7 t.FXKXLXKXLXLXLXLXLXLXLXLXKXPXHXGX",
"JXDXkX3.+.$.#.,.1.1.*.4.@.7 @ ; > , w < Z ^ c ^ e.}.N.n.n.M.N.N.M.y.M.M.y.n.M.m.M.y.q.` x 8 8 8 K jXJXKXPXHXSXVXBX_.R.5.:.L C t ",
"DXAXjXj.s.s.d.d.s.s.<.<.J : ; ; 7 c 6 0 ) ^ ~ N.}.}.}.N.}.}.M.M.n.M.m.n.n.OXM.m.z.a.q.` x c i i 7 k z.gXz.N r & & @ o o - 3 a V ",
"DXNXdXl.L.x.x.d.s.s.#.$.$.k & i l ^ z 8 ( ~ 9.M.}.}.}.}.XX}. Xn.m.n.n.n.m.M.m.m.M.y.q.] ^ x l 8 i r r %.<.p d B B f j j a j a a ",
"KXKXJXhX5.d.s.,.X.O.m m / M r c x ` 8.~ ~ r. XXXXXXX}.}.N.XXM. X X}.}.n.m.m.m.B.V.m.B.q.' ^ M k 8 r ! / _ L y y t y t a t t a a ",
"LXKXKXzXS P K S b j j y z J k k _ a.OX XOX*X=X5X5X5XXXXXXXXXXXXX|. XOX|..X$X$XOX@X@X@Xm.8./ J x i 7 r / -.z : t 9 2 9 t t a j a ",
"KXKXCXT t y y y t t u 7 p / M k ] =XXX*X=X*X*X4XwXrX4X5XwXXXXX5X*X*X2X*X5X*X*X*X@XV.@XV.a.%.^ ^ k q q m _ z & 2 : : 2 2 t t a t ",
"k.0.I M b y j d d d d j z $.' e q.@Xq.) ` ) ( ( )  .N.H.XX5X2X.X.XD.F.F...| ..} { { q.@XOXq.` %.J k r z z u t 9 9 : : 2 t t t j ",
"=.*.*.O.m n n g v g g f p 2.%.r z.a.q w 3 w < > # @ w l { N..X}...~ l q $ # > 9 9 1 7 ( z.+X>./ %.x k J p & y y y y t u u y j 9 ",
"JXFXSXhXT J J F G m F m m >.5._ [ a B [ { ) ) ^ Z e e 6 6 Y ~ A e @ w q s C ^ ( ) Y Y - 0 6.K.( >./ x U h h h s d d d p d u r N ",
"LXLXLXKXvXH _ P L U F U U $.z.8XW   C Z l q l s l l l ..Y o Z A $ A A Z e l C Z J ~ ( z   , :.R _ %.U +.@.R G z h h p d p p hXFX",
"LXLXLXKXcXL +.I I I U U I $.g.+Xy./ ' Z w e A q A ^ Z 2X..l 2XF.q w.Y q A q > s q 0 C ^ Z >.8.%.k %.0.4.@.o.L D g h d C o J.KXKX",
"SXDXFXcX,.T +.T R R L U N *.v.:X9X8.q.OX7.' | | ) ) r.4X) { XX2Xl { ..Z Z ^ ^ ^ ) 7.u.8.8.qXqXV.q.y.M.9.4.4.:.@.T R L L S 5.HXKX",
"MXlXv.=.&.+./ I / L L U / %.y.:XqXe.| qX#Xe..X.X}.F.4X2XZ }..X}.{ c w.| ) | w. .9.@X@X` a.:X-XV.:XqX;.8.a.0.4.4.*.$.#.2.3.,.d.jX",
"KXKXCXhX@.T T I I L L J U %.V.=XqXqX| r.D.u.2X4X5X5X}.~  ..XXX.X#X) ^ w.F.F.F.F.F.D.{ 8.-X-X:XV.y.V.m.q.K.T.K.J.J.J.E.E.I.L.2.-.",
"LXKXKXJXJ.K T P R L L L J 0.-X@X:XqX3XN.{ ) |  .) ^ e | 5X4X5X2X4X.X~ x Z ( ) ( ` { F.4X3X3X:Xm.9.9.u.u.yXVXVXVXVXGXVXBXvXhXl.kX",
"LXKXKXDXJ.F X.L U K K J U 0.oX:X:X=X:XqX5X X7.| { ] N.XXXXXX.Xi.7.p. X7.~ ( ) ..u.#X9X$X@X:XOX:X:X9.) F.IXHXGXGXPXPXGXFXBXvXk.kX",
"LXLXKXJX5.F R L K F G F ^ q.y.V.:X=X=XqXqX4XrX5X}.}.XX] ) N. .7.) x | }.7.e.p..X$X$XoXoX&X&X@X:X X) ) u.HXLXPXLXLXLXPXFXCXhXdX0.",
"LXLXKXKXvXp R G J F K F J P.qX&X9X=X*X*X5X*XXX Xr. XXX}.}.2Xr. .w.| 7.D.9.| r..XoX#X$XoX@X@X@X+XoX#Xu.<XJXPXPXPXHXPXPXGXCXcXuXJ.",
"LXLXKXKXR.h L F H F F n J K.9XOX=X=XOX=X=X*XXXM. XXX*X*X4X4XH.F.F.#X#XD.D.r.i.}.oXoXoXoX@X&X&X&X$Xp.2XIXGXGXGXGXGXGXVXSXmXcXhXx.",
"KXJXSXhXP H G F F D H m J _ t.B.@X@XV.V.=XXXV.XX*X5X0XtX0X4XrX4X4X1X1X2X#XK.D.p.|.oXoXoXoX&X&X&XK.<XcXIXBXVXiXiX{.zXzXcXcXlXdXx.",
"DXMXI.4.U F F D D H D n F U I +.z.-X@Xm.=X=XXX*Xp.}.n. .|  . . . .| u.D.u.u.p.p.y.m.oXOX+X@X+X;XfXlXbXcXkXhXR.4.:.C.hXcXMXxXjXx.",
"ZXlXL.4.G D D D D D n n H T T J t.6X-X&X=X=XM.XX] ~ ]  .N.N.N. . . .] ^ x ` y.i.y.y.B.z.+X+X@XfXnXMXZXMXMXxXhXJ.C.Y.zXBXCXxXjXL.",
"bXhXJ.:.G D D v n g b g D K @.J -.+X6X&X=XOXV.V.M.m.*X*X.X}. .r.u..X}.D.e.9.q.M.y.m.B.oX+X@X-XkXbXZXAXZXZXbXjXJ.d.~.BXCXCXxXjXL.",
"kXR.0.:.F z v v b v g n S R R R z 0.-X@X=XV.V.XX=X=X5X5X}.}.e.7.F.D.#X%XoXp.y.y.z.m.oX+XV.V.;XlXMXNXAXZXMXbXhXJ.C._.cXSXCXxXjXR.",
";Xk.<.R D v v B g z b z S K R K d / %X-X=X=X=XV.V.=X=X=X*X}.}.r.n.}..X|.|.i.y.n.y.B.oX+X+Xz.-XlXbXZXAXAXZXbXjXJ.J.R.zXBXMXxXjXR.",
"g.;.-.L z v g g g g g g v K T R z u 8.-XOX@X=XOXOX=X=X*X|.}.}.i.n.n.}.m.m.m.y.m.y.B.B.B.z.+XdXfXbXZXZXZXMXxXhXJ.5.E.hXcXcXhXuXE.",
"=.%.I J v g v B f g g f S K R G H & F K.%XOX&X@X$X&XOX.X.X$XF.F.F.D.D.|.D.B.K.y.y.z.B.p.z.6XfXjXbXZXZXZXCXxXjXJ.d.U.iXcXzXuXI.s.",
"=.%./ H g g b g f g v f v G K G D u 7 t.oXK.|.oXoX#XD.i.u.u.w.w.w.w.w.u.F.u.a.t.a.a.a.a.z.-X8XjXlXNXZXNXMXxXhXJ.C.Y.zXcXmXhXI.h.",
"%.$.R G v g g g f f f f v G R G v y o :.K.t.q.q.a.a.e.8.{ { ( ( ( ` _ [ 6.8.>.8.8.q.a.K.-X-XaXjXnXMXNXZXMXmXdXJ.5.Y.zXmXCXcX8Xl.",
">.@.R G S B b g f f f f S G G G g j o L 8XK.q.8.8.{ _ ( Z z l z B C J Z Y _ { >.0.p.K.K.-X-X;XfXkXnXMXMXMXkXI.5.5.R.zXxXxXcXsXj.",
"k.0.@.L g f g f f f f f S G G G g d o g L.6XD.a.t.8.{ ` ( Z C Z Z Y Y _ ` ..8.t.p.K.#X%X-XK.t.k.P.pXsXaX;XL.L.0.5.K.dXcXcXkXfXuX",
"pXc.<.T n g f f f f f f f H G H g y - u K.qX#XoXp.u.a.8.8._ ( ( ( _ { { 8.t.t.F.K.#X%X6X6XK.J J L T T / :.t.g.0.2.4.h.P.sXgXkXgX",
"P.L.3.$.m D n D D B j a t j j j t 1 % % S.0X,X%XoX%XoXD.u.e.w.8.8.>.8.t.F.F.K.#X>X>X>X,X6X;XR - o   . o H *.3.=./ p p -.j.sXgXkX",
"2.#.X.L D S D D S f y : = = > = = = O   w.tXqXqX1X,X&X$X%X#XD.F.F.F.F.F.#X#XT.>X>X,X&X6X;XqX8X[ 1 X - o j R o.G 2 o o @ L k.aXsX",
"j f j a t t t 3 a 2 = O X . X X   . o % 6.tX0XqXqX4X9X0X0X1X1X>X>X#XT.>X>X1X>X7X7X7X8X%X8X-X:X-X5.q 9 B 3 O   = , , : o y #.l.L.",
"= o X O X O X + . X X . . + X = - B 4.5.t.8X9X0XqX4X0X4XrXrX4X<X>X>X>X%XT.<X7X7X7X7X7X7X6X6X,X@X#X8.u B o.6.W 2     O * : H :.4.",
". . X X X + X X X . X O > = O .   C.yXS.K.7X7X0XrX0X9X6X4X4X4X1X>XT.>X>X>X8X1X>X6X7X6X6X&X6X&XK.%Xt.a < = A.iXY.6.V X     a E T ",
"= 5 = = O = = O O O O       2 B G.vX5.[ 8X6X7X0XqXqX9X4X1X1X4X1X2X>XT.>X<X7X7X7X7X6X%Xu.y.-X+X>XS.E 3 # V Z.^._._.Y.C.W s = o : ",
"                    2 R :.J.R.hXcXzXW [ T.>X>X0X0XrXrX7X1X1X2XK.H.H.T.>XT.eXyXwX7X<Xz.q.a.OX,Xt.B 9 # V U.^.^.~.Z.Q.^._.).S.A.R ",
"*.*.s.h.x.k.L.E.L.L.R.fXhXvXzXR.eXyXW B T.>X1X1X0XrXrX0X7X>XK.u.F.H.T.<X<XeX7X>X>X#XoXz.F.t.[ V , 5 W /.].^.^.~././.Y.~.(._._._.",
"AXDXZXMXmXkXjXvXhXeX_.T.R.R.).Y.).zXC.- Y S.2X4XrXrXrXrX0X1X2XH.F.H.T.wX7XyXeXwX1XT.H.w.E V + 5 V A.'.].(.(.Q.~.~.{.~.^._._._.[.",
"JXBX_.T.Y.Y.Y.Y.G.Z.S.U.Y._.T.Y.Y.yX_.}   3 W A.H.wXtXtXwXwX<X<XwXwXwXwXwX(.H.S.} W V 4 5 5 V W /.{.{.^././.{.^./././.~.~.~.Y.Q.",
"_.J.Y.U.G.Y.U.U.U.U.G.G.Y.Y.Y.Y.Y.Y.(.).A.V O   4 A [ } H.wXwXH.S.6.} W Q V 4       5 3 Q A.`.].{.`.^.^.^.^./.Y.~.~././.^./././.",
"U.U.Z.Q.Y.Y.U.U.U.G.U.U.~.T.).Y.Y.G.Y.)._.).Z.} W Q V V Q Z.G.[ V 3 4 > 3 3 V Q W } A.W.`.].`.`.{.^.^.^.^./.Q./././.{.{.^././.{.",
"U.Q.Q.U.Q.Q.Q./.Y.Y.!.^.~.~.~.~.!.G.Q.W.).).).!.).'.).!.!.G.W.W.Z.A.W.W././.].'.'.[.[.{.`./.`.`.^.^./././.^.{.^.{.{.{.~././././.",
"~.Y././.!.~.Q.Q.!.!.~.~.~.(.~.~.(.(.!.!.Y.!.~.G.W.!.!.H./.G./.Q./.W.].[.'.`.`.`.^.{.{.`.'.(.^.^.^.`./.^.{.^.{.{./.{.^././.Q.Q.~.",
"/.~.~.~.!.(.Q.~.!.~.~.~.~.~.~.~.!.~.!.).).(.~.~.!.W./.W.Z.Z./.(.{.`./.`.`.`.`.`.`.{.`.^.(.'.^.^.~./.^.{.{.{.^.^./.^.^.^./.{././.",
"~.~.~.^.).^.!.!.^.~.~.~.~.(.).~.^.!.!.(.~.(.(.(.(.Q.Q.U.G.W./.W././.{.].^.^.^.(.].`.^.^.'.(.^.^.(.(.{.^.^.^.~.^./.^.^.^./.{.{.~.",
"_.^.~.~.(.!.(.^.!.(.).~.~.(.~.~.!.~.).!.!.).(.(.~.^.!.Q.G.G.^./././.].^.^.'.'.`.].{.`.].'.`.{.^.{.^.^.^.^.^././.^.{.^.^./.~.^./."
};
