/* XPM */
static char *_580117753733[] = {
/* columns rows colors chars-per-pixel */
"64 64 256 2 ",
"   c #030101",
".  c #0A0100",
"X  c #08080D",
"o  c #150903",
"O  c #1B140C",
"+  c #17150A",
"@  c #0E0E12",
"#  c #110F16",
"$  c #131315",
"%  c #1D1A14",
"&  c #15151A",
"*  c #19171C",
"=  c #1B1B1C",
"-  c #191817",
";  c #0C1115",
":  c #251A0A",
">  c #221C14",
",  c #231E1A",
"<  c #291D15",
"1  c #301A08",
"2  c #1E2016",
"3  c #1F220D",
"4  c #28210B",
"5  c #242215",
"6  c #23221B",
"7  c #2A241A",
"8  c #2B2B1C",
"9  c #2A2715",
"0  c #342A1C",
"q  c #362818",
"w  c #37351A",
"e  c #333015",
"r  c #1C1C21",
"t  c #151A29",
"y  c #071629",
"u  c #211F22",
"i  c #232324",
"p  c #2C2B23",
"a  c #2C2C2B",
"s  c #272526",
"d  c #322C22",
"f  c #372C25",
"g  c #333423",
"h  c #3B3324",
"j  c #3C3C24",
"k  c #33332D",
"l  c #3B3A28",
"z  c #373635",
"x  c #2A2D31",
"c  c #45361C",
"v  c #4E3418",
"b  c #633C1A",
"n  c #463927",
"m  c #553C28",
"M  c #463C33",
"N  c #553E30",
"B  c #451E00",
"V  c #3E4126",
"C  c #504C1B",
"Z  c #444324",
"A  c #44442C",
"S  c #45492C",
"D  c #4B4B2D",
"F  c #4B4526",
"G  c #56462A",
"H  c #56532D",
"J  c #4B4D31",
"K  c #494535",
"L  c #584936",
"P  c #4D5133",
"I  c #4E503F",
"U  c #535434",
"Y  c #5B5B35",
"T  c #555539",
"R  c #5C5C3B",
"E  c #585735",
"W  c #4F512C",
"Q  c #66472C",
"!  c #654B36",
"~  c #67593A",
"^  c #78583A",
"/  c #6F4F2C",
"(  c #5E613C",
")  c #62623D",
"_  c #67663D",
"`  c #78683B",
"'  c #70713F",
"]  c #66501F",
"[  c #32364E",
"{  c #5D5842",
"}  c #564E49",
"|  c #685945",
" . c #755C47",
".. c #6D5A52",
"X. c #5E6241",
"o. c #636442",
"O. c #6B6B45",
"+. c #6B6D49",
"@. c #696744",
"#. c #776748",
"$. c #6D714B",
"%. c #6B7145",
"&. c #73734C",
"*. c #787749",
"=. c #6C6656",
"-. c #796754",
";. c #7B7D53",
":. c #777854",
">. c #6D705F",
",. c #535968",
"<. c #737469",
"1. c #605E6B",
"2. c #3F4457",
"3. c #895C37",
"4. c #86673E",
"5. c #845E45",
"6. c #886648",
"7. c #926B47",
"8. c #85794A",
"9. c #99754B",
"0. c #866C56",
"q. c #887459",
"w. c #9B7553",
"e. c #977758",
"r. c #946D55",
"t. c #A47A58",
"y. c #B07352",
"u. c #8C7A64",
"i. c #897766",
"p. c #937C65",
"a. c #977B68",
"s. c #907470",
"d. c #A87B68",
"f. c #AE7B74",
"g. c #7C8156",
"h. c #7D814F",
"j. c #7F8061",
"k. c #838354",
"l. c #82855A",
"z. c #8C8C5B",
"x. c #878959",
"c. c #928C59",
"v. c #AB8558",
"b. c #B48B5C",
"n. c #B4875C",
"m. c #BA915F",
"M. c #A0955F",
"N. c #888963",
"B. c #9B846C",
"V. c #978769",
"C. c #8E9364",
"Z. c #979667",
"A. c #9E8B73",
"S. c #998575",
"D. c #999A72",
"F. c #898775",
"G. c #AC8362",
"H. c #A68869",
"J. c #B38B63",
"K. c #B68B68",
"L. c #A6996A",
"P. c #BC9463",
"I. c #BA9669",
"U. c #A38D74",
"Y. c #A88A76",
"T. c #B68C72",
"R. c #A49273",
"E. c #A99679",
"W. c #B39C7D",
"Q. c #B99577",
"!. c #9DA16B",
"~. c #9DA067",
"^. c #9FA274",
"/. c #A1A46C",
"(. c #A7A86F",
"). c #A2A474",
"_. c #A8A977",
"`. c #B8A47B",
"'. c #B2B27B",
"]. c #AEA45F",
"[. c #C59B6B",
"{. c #C4976B",
"}. c #C79A77",
"|. c #CC967A",
" X c #CEA37C",
".X c #C7A679",
"XX c #D3A67D",
"oX c #C5A571",
"OX c #8D8439",
"+X c #939290",
"@X c #AB9885",
"#X c #B49D83",
"$X c #BB9C84",
"%X c #B69A88",
"&X c #B0988C",
"*X c #A9AB83",
"=X c #B5A182",
"-X c #BAA384",
";X c #BBA38B",
":X c #B6A58A",
">X c #B7B787",
",X c #B8A391",
"<X c #BBBB94",
"1X c #AAAC8F",
"2X c #B0B1AF",
"3X c #99A0A1",
"4X c #C49D85",
"5X c #C39589",
"6X c #CBA48B",
"7X c #C8A588",
"8X c #D3A483",
"9X c #D4AB83",
"0X c #D5AB8C",
"qX c #DAAC8C",
"wX c #D6A687",
"eX c #C7BB8B",
"rX c #DAB28B",
"tX c #CAA893",
"yX c #D8AD94",
"uX c #DBB393",
"iX c #DDB39B",
"pX c #D9B698",
"aX c #C7B996",
"sX c #E1B394",
"dX c #DFBAA3",
"fX c #E1B4A1",
"gX c #BDC392",
"hX c #C6C28D",
"jX c #C8C798",
"kX c #D2CF9D",
"lX c #C8C8A8",
"zX c #D7D5A8",
"xX c #D9D9B7",
"cX c #CBCAB5",
"vX c #E1DDB5",
"bX c #E1DCAC",
"nX c #E6E4BA",
"mX c #EBE6B4",
"MX c #DFE1B9",
"NX c #B0B6C2",
"BX c #D6D6C6",
"VX c #CECECC",
"CX c #DDE0D6",
"ZX c #E8E8C8",
"AX c #E7E8D7",
"SX c #F5F5D8",
"DX c #F1F1D3",
"FX c #D7DAE4",
"GX c #FAFAE4",
"HX c #FCFDEC",
"JX c #F7F7E5",
"KX c #FEFEF3",
"LX c #FEFEFC",
"PX c #F6F6F7",
"IX c #ECEDEA",
"UX c #B8C4D2",
/* pixels */
"*.*.h.h.g.x.z.g.z.z.C.C.~./.^.(.!.!.!.!.!._.^._._._.^._._.^._.^.^.D.D.D.D.^.^.^.^.!.Z.Z.Z.C.x.g.g.h.&.%.( ( ( ( R { ( _ O.+.+.:.",
"Z.Z.~.!.(.(.(.(./.~.!.(./.(.^.!.Z.C.C.Z.!.!.^.^.^.^.^.^.^.^.^.D.^.^._._.*X>X>X>X>X>X>X>X'.'.'.'.gX'.'./.C.h.h.l.C.Z.C.x.*.$.O.&.",
"(.(./.(._._._.!.~.g.C.g.j.g.g.g.g.:.g.j.C.C.D.D.^.^.*X>X>X*X*X>X>X>X>XgXgXgXhXkXzXzXzXzXxXxXnXnXZXZXZXZXxXxXzXMXnXZXxXlX*XZ.q.h.",
"/.Z.Z.C.C.C.g.g.h.h.$.$.h.%.%.h.%.$.g.j.C.^.^.*X_.gXgXlXzXzXkXkXkXkXzXzXnXDXSXSXSXAXJXPXHXHXHXHXHXKXKXHXJXJXJXSXSXDXZXxXlX*XC.l.",
"x.h.h.&.$.$.%.%.X.h.h.g.h.%.$.g.:.:.g.C.D.)._.>XgXjXhX'.(.c.c.H.Z.Z.8.8.Z.>XcXZXHXLXLXLXLXLXLXLXKXKXKXKXJXIXJXAXAXZXMXzXgX).C.;.",
"z.C.C.z.z.g.g.g.g.g.g.g.g.$.g.g.g.l.C.C.D.E._.(.c.` ] v B 1 o . .   X       . ! U.cXSXLXLXLXLXLXLXLXLXLXLXDXzXlXjX>X_.L.M.k.*._ ",
"~.!.(._._._.'.(.*X*X'._.j.g.%.g.;.h.h.x.C.c.8./ e 1 4 0 V j h w h d p d h z k r     -.cXHXLXLXLXLXLXLXPXKXGX>Xk.z.h.*.&._ R H c ",
"~.!.!._.'._.'.gXgXgXgXgX_.g.X.X.%.%.*.k.4.] e 4 q 0 0 e e 5 > - O > > , 7 s d f h z > : <XKXLXLXLXLXLXLXLXCX@.e W j j g 8 8 8 8 ",
"C.z.C.Z.Z.!.!.(.(.gX^.!.j.h.Y Y ~ ` 8.` c + > 7 8 7 O $ @ O - % % = % % , 6 p p 8 0 n 9 &.ZXHXGXSXZXVXlX^.J   a 2 2 2 8 8 8 8 8 ",
"k.h.' %.%.%.%.%.%.%.h.h.( P S Y ` #.Q : o 7 7 7 > O % , + $ > % 6 , 6 6 - > , 6 p g j c _ eXhX].OX] 4     p g 8 8 8 8 8 p p p p ",
"*.$.X.( ( P V V w 3 8 8 g 9 C ' | n 1 < d 8 > % % % % - O > > - = 2 2 * - O O , 8 h j w H M.L.*.( I I I I z g p 8 8 8 8 8 g g 8 ",
"( U P P S V g w e 8 8 8 + w o.( c < d s 5 > > % % % O % % % % % O + o @ % = s a g d h c c ` c.M.x.' W S V j g g g g V g V g V V ",
"V S S S V g 8 2 5 2 3 + 3 ) T q f f s < < 7 , O , O O > , < < > % + O , < s a d < < 5 5 : e H #.` 8.#.Y S V A V l l V A V V V K ",
"S S U P J V 8 2 8 8 3 : Y ~ : q n q 1 < f < O , , O < : q c f < 7 7 , > 7 M n h h d p 6 O > O . + w H ~ ~ G J K D J K J V P J P ",
"D W ( ( T J w 8 9 8 5 n G c n L n < < n n q q f < n 7 q m n v v n q o n =.0.i.i.q.-.-.{ d O > 5 > 8 M K ~ _ U P P J P D W P P P ",
"Y ( O.%.( U V g w 8 w E G n N n f q M N n f M c N N 1 ! ! v m ! n o ! a.B.H.B.S.B.A.A.V.-.h o > < < n G H &.@.E U T T T P U I T ",
"_ %.h.*.*._ D j w w Z ~ Y F q q q 7 M L m N N G | m N  .m b 6.^ 1 -.Y.Y.Y.Y.U.U.U.E.E.R.V.-.h + O 7 h n G E @.o.E E U T U U U E ",
"' *.x.k.k.' U F Z Z H #./ v q q : q n m m N N  . .n 5./ b d.p.v e.T.d.a.U.U.R.E.E.#X`.W.E.A.| . > 4 h w V V.C.E { R R U U T { { ",
"' h.z.z.k.*.H W F Z G ` ~ v : : + N L L N m ! 0.! ! ^ b t.T.m d.T.e.a.H.Y.@X@X%X#X#X=X=X`.E.s.8 . d l M   <XZX>.J X.R Y T Y ( ( ",
"' *.z.z.k.%.U W F W G H H c : q q ! | G m Q  . .b ^ / t.4X6.r.d.a.H.Q.$X%X%X,X,X:X:X:X#X=X=XU.| . d l K   3XSXD.C _ ( R X.R ( ( ",
"' h.c.c.k.%.E W F W L n c q q c G 6.^ v m Q 5.! Q 3.w.}.w.7.d.T. X4X4X$X;X%X;X;X%X#X=X-X=X`.E.:.o p M A   +XgX@.Y o.o.~ X.R ~ ( ",
"` ` k.x.h.O.H W W F ~ F c n c n ! e.^ v 3.4./ b 5.G.T.G.T.4X4X6X4X4X4X$X$X%X%X#X#X$XW.W.`.$XW.V.n : n : Z N.*.W o.( ) ) ) _ ( ( ",
"` ` k.k.h.O.H W W W ~ ! c F c v ! 9./ 3.t.3.7.d.4XtXyXfXyX6X6X6XtX5X4X$X$X$X$X;X#X;X$X$X=X`.`.A.K 5 K . :.vX<XH ) ) ( ) ( ) o.R ",
"4.` k.l.*.%.H F D Z U ~ C C v 1 ~ e.7.n.9.7.K.4XtXtXtXyXtXtX6X6XtX6X,X5XtX7X,X,X,X,X:X;X-X=XE.V.L < K . #.bXjXG ( o.( ) ) X.X.X.",
"c.` 8.k.;.@.W S D Z U _ v m n : ^ J.I.H.r.q.#.} L N n N ..0.a.Y.E.$XQ.@X@XY.Y.s.s.S.F.S.A.=X:XR.T O K . #.<XC.W _ ~ ( R X.X.R R ",
"OX` *.h.*.@.W F D Z D W F w n o  ..X`.9.! ! !  . .^ ^ Q / / 5.r.d.Y.Y.p. .L f ,     $ s z =.R.E.K o K w o.@.R o.( ( R X.R X.R R ",
"8.` *.8.&.o.D S D n L V.e.c v 1 6.7X`.e.w.G.H.d.r.r. .^ 3.9.n.{.}.Q.Y.i...! L N !  .| } I M { u.M . : Z +.+.o.~ R R R ( Y ( { ( ",
"` ` *.;.&.) F Z Z F 6.v.f.y.1 o c.7XoXP.v.7. .N f * f v Q 5.K.|.0X4XQ.a. .} m m N ~  .-.0.0.i.<.K . j i.;.| o.) E Y T R T T R { ",
"/ ~ #.*.+.R S S c H t.y.K.8Xn.B v.9X.XP.7.v -.0.n :  . .3.d.K.|.qX9X7XB...} c s @   k K L #.V.A.F q A.D.:.~ ) R U Y Y T T T ( T ",
"H ~ *.&.O.Y Z F c G t.y.|.8XqXn.J.pXXX.X}.T.T.T.y.r.r.6.t.T.{.XXqX6X7XY.0...} N M N ..{ | @.R.W.0.p.A.R.;.~ Y Y U T T T E E T T ",
"H _ *.&.O.T V V V c 6.G.|.|.|.y..XrXXXXX9XqXwX4X5XT.f.K.|.|.8X9XqX0X7X%XU.s.0...i.i.i.B.Y.R.=X-Xp.e.c.E.:.E Y U P U T E T E E P ",
"Y ( $.&.@.E V V Z w G H.|.wXy.3.XXrXrXrXrXuXpXyX6XwXwXwXyXyXsXqXpXyX6X7X-X%X@Xf.s.Y.E.W.#X`.7X6XT.r.H.E.&.Y U P P U U U U Y U U ",
"( @.$.$.%.U j V V V e 6. X|.y.d.XXrXrXuXuXiXiXuXyXiXiXyXuXuXuXrXsXpXtX7X;X;X,X,X&X&X&X:X:X;X7XeXY.B.:XE.&.E U P G P P P P P P P ",
"U o.$.%.( W V j j c e F Q.|.y.8XXXXXrXuXyXsXiXfXfXiX0XyXsXqXwXqXdXiXtXtX$XW.:X%X&X,X&X:X#X:X-X-XH.;XaXD.&.U U D D D J P I P P P ",
"( ( $.%.( U V j g V j e e.9X{.{.oX9XrXrXrXsXfXfXfXyXwX8X X8XqXyXdXdXtXaX;XY.B.@X&X&X,X%X#X#X-XW.tXzX<XZ.&.U D P J J J P J P S J ",
"( ( %.%.( P j l j j V 9 ~ Q.9X9XXX9XrXrXuXuXiXiX0X4X}.|. XsXsXuXdXpXtX,XtX,Xa.a.@X,X,X,X,X#X$XE.jXxX>XZ.&.Y P P D P P P J S D K ",
"Y _ %.+.X.T V j j j j j 3 q.eX9XqX9X9XrXrXrXuXqX8X}.|. X0XwXy.d.4XT.a.Y.0.S.f.i.S.@X&X&X:X=X#X;XxXzXaXE.g.X.P D J J J J S K S S ",
"P ( %.@.X.P j V j j g V q E Q.rXXXXXXX9X9XXX8X X|.4X8XqXwX0X5X}.{.5.0.a.S.@XE.S.S.A.@X1X=X=X=XjXvXbXjX*XC.+.I J S J J S J S V S ",
"Y X.X.X.T J j g e w w w j e F O.` J.XXXX XXX|.8X9X0XqXqX0XwXyX6XY.e.B.A.@X@X@XE.R.Y.E.@XW.W.L.pXZXvXzX>XD.>.P D J J D D K D J S ",
"3X3X3X2X2XNX2X+X>.l 8 e w F F Z e l.eXXXXXXXXX9X9XXX XXX6XyXyXyX5X%X$X#X@X@XU.S.U.U.U.E.R.E.jXmXmXvXzXgXD.X.S J V J J J D K S K ",
"3XUXUXFXFXFXFXNX+X{ : R q.N.C.c.z.Z..XoX{.oX}. X|.y.9.d.J.K.n.y.d.f.a.s.s.S.u.0.B.U.H.R.H.-XmXmXmXbXlX>XN.U S J J J K K V V J V ",
"3XNXUXFXFXPXFXUX2X<.$.Z.'.>XgXgX>X-X'.I.I.}.[.[.m.3.G.4X{.|.5Xf.f.f.s.s.i.s.| m q.A.H.B.Z.eXbXkXkXkXhX).&.P D S V P X.X.+.( R ( ",
",.,.+XaXVXBXCXdXlX<X>XhXkXzXzXkXkXkXjXoXP.P.[.{.m.}.8XXX8X|.K.d.f.f.d.d.U.Y.U.0.0.B.V.V.Z.L.L._.'.>X_.C.$.W D D P +.j.D.D.C.l.g.",
"X   } 2XcXVXBXVXxXvXxXxXxXbXbXzXzXzXkXXXJ.m.b.m.P.{. XXX|.K.d.w.0.0.0.r.B.U.U.p.q.q.z.0.F w w ( l.Z.D.N.@.D S A I j.*X<XjX<X>X_.",
"X X +XFXPXPXIXAXCXZXZXZXnXmXmXmXbXbXkXXXI.P.J.m.P.{.[.[.}.Q.K.T.K.d.a.e.B.B.p.p.q.q.V.-.. O . l &.C.Z.q.+.L D A S j.1XcXxXcXzXzX",
"R <.VXIXPXPXPXIXAXAXZXDXDXDXZXZXmXbXkXoX].P.b.P.{.{.[.XX.X}..X}.Q.Y.Y.U.B.B.V.a.e.e.W.l.. 6 % J ;.Z.Z.k.*.o.D Z V g.1XlXBXZXZXnX",
"zXMXAXLXLXLXPXPXJXSXGXGXGXGXGXSXmXbXhXoXoXI.v.v.m.b.{.}.}.8X7X}.$X@XT.Y.A.A.V.x.q.H.W.q.. + 5 E *.V./.c.8.O.D V g +.+XlXcXZXZXZX",
"HXHXKXKXKXKXKXKXLXKXHXHXHXHXHXGXSXmXhX].oX[.m.v.9.t.J.Q.{.{.T.T.H.a.u.a.p.p.0.0.Z.R.E.F.+ % 3 Z ~ c.c.c.k.o.w 8 i V j.3XlXBXBXBX",
"KXKXLXKXHXKXKXKXHXKXKXHXGXGXGXSXSXzXM.I..XoX[.[.b.9.4.9.9.w.7.6.-. .| ..#...-.u.H.R.E.A.d s @ . j o.O.#.+.J 5 2 3 2 V j.2XcXVXBX",
"KXHXHXHXHXGXHXGXHXGXGXJXSXSXDXSXMXq.v I.oX[.[.[.[.m.b.9.^ m q q 1 q M L ..q.p.B.A.U.D.E.{   A O o 8 A U V 6 + % 2 2 g >.1XcXxXBX",
"GXSXSXSXSXSXGXGXGXGXSXGXSXZXxX<X>.. ` `.[.[.[.[.[.[.[.[.v.7.^ ! ! | -.q.q.V.B.B.A.R.E.E.=.. } z i x p 2 + + % % 2 6 g >.1XNXVXVX",
"DXZXkXjXxXnXDXDXZXZXnXzX*X<.g   = . r.I.{.{.[.[.[.P.m.b.n.n.t.e.0.0.q.a.p.p.a.B.A.A.U.U.{   x x $ p a a g g 9 % 3 2 9 >.1XcXxXcX",
"gX*Xg.U g.!.*X*XD.>.I       s } k . 0.I.[.[.[.oX[.m.b.v.9.9.w.0. .-.-.i.s.V.V.F.S.A.D.i.< @ a s & ; * * s a k k g 8 2 j.2XBXBXBX",
"g 2   $ x V x       X x k k k k % . 6.I.I.[.P.P.P.m.b.y.7.4.^ ! | | 6.s.p.u.u.V.V.S.F.}   u u u * $ ; ; * * $ = s z i <.VXIXIXCX",
"$ x V z x 2 * = s s a i 2 i x p , . ` J.P.P.P.P.P.m.b.v.9.4.4.#. . .0.i.u.p.p.N.F.i...  $ r r r * $ $ $ ; t $ ; ; * t x <.2XFXIX",
"V z u ; $ & * = - i 2 r 2 s i i s . L H.P.m.m.P.m.m.b.v.v.w.w.r.0.0.-.i.N.s.u.i.i...% o , = = u = ; ; & ; $ = * # ; ; X X X V +X",
"* $ ; $ & * * = 2 r = 2 u s i a s . v e.T.J.b.b.b.b.v.v.t.w.r.0.6.0.q.u.u.i.i.i...f O > , r & t r # & # # # & * $ $ $ & i i     ",
"$ - $ $ & 2 - = u = r 2 2 u k k , O . ..T.P.b.b.m.b.v.t.t.w.9.w.r.e.e.p.p.i.i.| f 1 < r * * r r * $ & $ & * # & & $ # # @ # * u ",
"$ $ $ - = 2 u u r r u - r s x a > < . m B.I.J.n.b.J.v.t.9.t.e.e.e.e.a.a.u.0...n c c f , r r r r * & * $ * * # & & & $ # + @ @ @ ",
"; $ ; $ = r r 2 2 = = $ = 2 = 6 r , < o 6.Q.Q.J.n.J.v.v.w.9.w.e.e.H.H.B.0. .Q ! N m < * u r & r & & r * * * r & r & & $ ; @ @ @ ",
"$ $ $ = 2 t - r = - & - = 2 r r s , , : Q Y.4X4XQ.{.I.K.G.H.G.G.K.Q.Q.d. .Q 6.r.! n # u * * = * * u r & * * * & * & # & $ @ @ $ ",
"$ $ - * - - 2 r - $ - - * * % * r u * u f 0.$X6X4X|.7XW.T.T.Q.}.7X6XQ.r./ 5.0...z & u r t r & * r r r r r & & & & & & & ; @ @ $ ",
"$ $ & * t = r = & & * * = = = = r u t X * } s.%X4X5X4X4X$X5X6XyX0XtXf.1.} [ y y t r * * = r * r & & & * r * & & & & & # ; $ $ - ",
"* * $ $ 2 i - - $ - * r % * % * r u * # X x } 1.s.@X@X%X%X%X5X&X+X<.,.[ y y s x = r r t r r r & * & & & r r & # # r & & @ # - $ "
};
