/* XPM */
static char *_4207f6a369f4106c090a5a632be7dba[] = {
/* columns rows colors chars-per-pixel */
"64 85 256 2 ",
"   c #020101",
".  c #0A0A07",
"X  c #0E1207",
"o  c #171508",
"O  c #1A1A14",
"+  c #100B0C",
"@  c #231D14",
"#  c #231D0A",
"$  c #1C2210",
"%  c #232215",
"&  c #2C251B",
"*  c #292719",
"=  c #332B1D",
"-  c #372918",
";  c #38341B",
":  c #312D0A",
">  c #2B2A24",
",  c #372D22",
"<  c #3C3323",
"1  c #393724",
"2  c #323536",
"3  c #141B20",
"4  c #48391D",
"5  c #4A3319",
"6  c #463927",
"7  c #563D2A",
"8  c #433D35",
"9  c #503C31",
"0  c #673D2A",
"q  c #3F4030",
"w  c #4A421A",
"e  c #554618",
"r  c #44452C",
"t  c #4C4B2D",
"y  c #474628",
"u  c #564729",
"i  c #56542B",
"p  c #4A4C32",
"a  c #4B4738",
"s  c #574835",
"d  c #4E5234",
"f  c #5B5D3B",
"g  c #565736",
"h  c #4E522D",
"j  c #67472C",
"k  c #66542B",
"l  c #654A35",
"z  c #675937",
"x  c #75583A",
"c  c #774F3A",
"v  c #5D613C",
"b  c #62643E",
"n  c #69663A",
"m  c #756639",
"M  c #76723A",
"N  c #6F6915",
"B  c #3D4245",
"V  c #595745",
"C  c #514E4A",
"Z  c #695645",
"A  c #775A45",
"S  c #675B54",
"D  c #5F6241",
"F  c #636542",
"G  c #666A43",
"H  c #6A6C44",
"J  c #6C6B48",
"K  c #766A46",
"L  c #6C7145",
"P  c #6D7249",
"I  c #677045",
"U  c #73754B",
"Y  c #757A4C",
"T  c #7B7B4C",
"R  c #787448",
"E  c #7A6655",
"W  c #7B7D51",
"Q  c #767554",
"!  c #6A695A",
"~  c #7A7469",
"^  c #72706C",
"/  c #847638",
"(  c #855C4B",
")  c #88674A",
"_  c #877948",
"`  c #896A55",
"'  c #996B54",
"]  c #877655",
"[  c #977759",
"{  c #99654B",
"}  c #A47259",
"|  c #977A63",
" . c #887666",
".. c #A47B63",
"X. c #B57C6E",
"o. c #7C814F",
"O. c #7E8253",
"+. c #7F8060",
"@. c #828354",
"#. c #848956",
"$. c #858B59",
"%. c #8B8C5B",
"&. c #898657",
"*. c #958A59",
"=. c #8D925C",
"-. c #8E9057",
";. c #95945C",
":. c #8D854C",
">. c #A8905C",
",. c #8A8865",
"<. c #9A8666",
"1. c #8E9363",
"2. c #939462",
"3. c #959A64",
"4. c #9A9C65",
"5. c #9C9C6B",
"6. c #989767",
"7. c #9A9877",
"8. c #91867A",
"9. c #A88769",
"0. c #B4896C",
"q. c #A6996A",
"w. c #B8946C",
"e. c #A98A73",
"r. c #B78D75",
"t. c #AA9576",
"y. c #BC9373",
"u. c #BC9B75",
"i. c #BA947A",
"p. c #BC9C7B",
"a. c #B49777",
"s. c #9DA16C",
"d. c #99A066",
"f. c #9EA272",
"g. c #A3A46C",
"h. c #A8A66D",
"j. c #A4A572",
"k. c #A5AA74",
"l. c #ABAB74",
"z. c #ACAC7A",
"x. c #A7A678",
"c. c #B8A77B",
"v. c #ADB27B",
"b. c #B3B37C",
"n. c #BAB779",
"m. c #B2A76F",
"M. c #A8A45C",
"N. c #C3947B",
"B. c #C29C7C",
"V. c #C49878",
"C. c #C48B78",
"Z. c #C2A27D",
"A. c #C9A37C",
"S. c #C1BB7E",
"D. c #9A9B85",
"F. c #9C9995",
"G. c #918C87",
"H. c #B99983",
"J. c #A19D98",
"K. c #A9998B",
"L. c #9DA286",
"P. c #A9A985",
"I. c #BAA687",
"U. c #BABA84",
"Y. c #BDBD8A",
"T. c #B6B684",
"R. c #A4A29D",
"E. c #A9A69C",
"W. c #A9A897",
"Q. c #B9A997",
"!. c #B6B49A",
"~. c #AEB18D",
"^. c #A6A5A3",
"/. c #A9A6A3",
"(. c #ACA9A5",
"). c #ACACAB",
"_. c #A8A7A7",
"`. c #B1ADAB",
"'. c #B3ADA3",
"]. c #B5B5A7",
"[. c #AEAEB0",
"{. c #B2B2B2",
"}. c #B6B4B8",
"|. c #AFB0AE",
" X c #C49C82",
".X c #CA9C84",
"XX c #C89B87",
"oX c #D09784",
"OX c #C4A483",
"+X c #CBA483",
"@X c #C5AA83",
"#X c #CBAB85",
"$X c #C4A48C",
"%X c #CBA48B",
"&X c #CCAB8A",
"*X c #C5AB8C",
"=X c #D1A585",
"-X c #D2A48B",
";X c #D3AB8A",
":X c #CCB28B",
">X c #C4B788",
",X c #D3B38D",
"<X c #C4AB94",
"1X c #CBAD94",
"2X c #C9AA98",
"3X c #D2AC94",
"4X c #D4A996",
"5X c #C6B19B",
"6X c #CCB29B",
"7X c #CAB592",
"8X c #D2B295",
"9X c #D4B49C",
"0X c #D8B898",
"qX c #C7AEA1",
"wX c #C8B6A5",
"eX c #D2B7A2",
"rX c #E3BD96",
"tX c #BDC28B",
"yX c #BEC1AE",
"uX c #C4C38B",
"iX c #C7C48A",
"pX c #CBCB94",
"aX c #CCCC9C",
"sX c #C5C596",
"dX c #D5D59D",
"fX c #D1CF9B",
"gX c #C9C8A6",
"hX c #D1CEA6",
"jX c #D9D7A8",
"kX c #C6C8B5",
"lX c #D9D9B5",
"zX c #D3CEBD",
"xX c #E0DDB3",
"cX c #DEE1B8",
"vX c #E3E2B4",
"bX c #E7E7BC",
"nX c #E2E2AE",
"mX c #E1C09D",
"MX c #D9DAC6",
"NX c #D0D5CD",
"BX c #DFE2CD",
"VX c #EDECC2",
"CX c #E6E6C8",
"ZX c #F1EEC7",
"AX c #F3F2CA",
"SX c #F6F6D8",
"DX c #E8E8D4",
"FX c #DEE4E2",
"GX c #E9EAE6",
"HX c #FDFDEC",
"JX c #FAF9E4",
"KX c #FEFEF4",
"LX c #FEFEFC",
"PX c #F5F5F3",
"IX c #F1F1EE",
"UX c #E8D9CE",
/* pixels */
"L T T @.#.-.;.4.g.l.U.tXpXpXdXjXnXbXbXAXAXSXJXJXJXSXAXnXjXpXiXuXU.n.n.l.j.g.;.;.#.@.T Y Y Y o.Y o.O.1.1.O.o.I g r y h h h h d v ",
"-.4.4.g.l.l.b.tXtXpXpXfXdXdXdXnXnXjXnXnXbXbXbXnXjXjXpXtXT.n.b.v.l.l.h.h.g.4.;.;.-.@.Y U U Y Y o.O.O.$.O.O.I v h h v b I L P L o.",
"b.n.n.uXuXuXpXiXpXpXfXpXpXpXpXpXpXpXpXuXiXuXtXtXn.v.v.l.l.h.k.h.g.g.4.;.;.;.=.-.#.@.o.P L P P Y o.O.O.o.M v v b I o.$.=.%.=.=.3.",
"iXpXiXpXiXuXiXuXtXn.S.n.b.b.U.n.v.T.l.v.v.v.z.k.k.k.g.h.4.g.q.4.;.3.=.=.%.#.#.O.Y Y P G b b v L Y O.O.O.o.o.o.o.#.d.g.v.l.v.v.n.",
"pXpXtXuXU.U.b.b.l.k.g.g.s.g.g.g.f.f.k.k.s.s.g.g.d.d.;.;.3.=.%.#.O.o.o.T Y U I n I I L Y P G G W 1.f.f.d.d.3.4.j.b.U.>XiXiXS.S.iX",
"n.U.n.b.z.h.g.g.s.d.d.4.d.d.d.d.d.3.4.3.d.d.;.;.1.=.-.*.:.@.T T Y L H b G G L Y Y $.1.d.1.$.O.3.k.~.T.v.x.s.l.n.S.iXiXiXn.S.n.n.",
"s.k.l.j.g.g.s.4.4.4.3.2.3.1.=.3.=.=.=.=.$.$.@.T :.:.*.>.*.:.:./ m M :.-.-.-.=.1.s.f.k.v.z.d.3.s.v.T.v.k.5.4.h.l.n.S.n.n.l.h.;.;.",
"3.4.s.g.s.d.4.3.;.=.=.=.$.$.$.O.o.o.Y Y U L R :.M.M.:./ / x k e 4 u z m :.;.;.j.v.T.Y.T.T.k.5.5.f.f.3.,.W Y _ 2.4.;.%.@.] R U K ",
"=.-.=.3.;.;.=.=.%.#.O.o.o.Y Y P L L I I R :.M.M._ k u 6 6 6 6 - ; = ; 1 u z K R _ 2.j.z.z.j.5.f.f.f.5.6.1.$.$.$.@.Q P J F D V F ",
"$.#.O.o.O.O.O.Y Y Y Y U L Y Y o.O.#.O.-.:.*._ u o O % O o @ = - ; , < < = 6 9 s s u i _ &.4.q.5.5.s.x.x.k.k.k.f.g.j.5.5.7.5.6.1.",
"o.Y o.I Y P o.o.O.#.#.#.=.O.1.d.s.k.h.>./ z 6 X > > & % O @ - , & O @ @ O @ @ , s z z x k M ;.h.z.z.T.T.U.Y.T.tXU.T.T.U.Y.tXY.T.",
"#.#.$.O.+.=.1.d.g.j.k.g.k.k.k.v.T.b.M._ k 4 , * & > & > & & o & 8 > . % # * & @ * ; s m x m :.h.b.T.U.sXsXaXaXpXaXpXaXdXjXnXbXcX",
"s.k.v.v.k.v.v.b.Y.tXY.T.v.v.v.b.h.;.m 7 < , > & > = - > = @ O . Z p 6 , 1 @ 6 % < % - 6 x M :.m.uXpXfXjXjXcXcXCXAXDXSXSXSXHXHXKX",
"tXuXtXtXtXT.tXT.tXY.T.z.k.s.d.;._ z 6 = > @ @ - , , - = , & % o a 6 < 6 8 = a 6 9 , = % 4 k _ n.jXAXSXJXJXHXHXKXLXLXLXKXKXKXKXKX",
"pXtXpXtXU.T.z.z.k.k.s.3.=.;.-.R u 4 , = & > & @ @ & , 5 6 6 & & , - & , = - 6 9 6 < * ; - 4 k q.bXHXHXKXKXLXKXKXLXLXLXLXLXKXKXKX",
"tXtXtXT.k.s.4.3.1.%.#.O.W @.m : @ , < & = & @ @ , & @ & - 6 6 5 6 - - = , - - - < < * 4 - 4 e &.xXHXKXKXKXLXLXLXLXLXLXLXKXLXKXLX",
"T.v.k.d.4.3.1.1.1.1.$.1.1.J   = & = , & , = @ 6 , - 5 j A A l l z A A A l j 7 7 7 6 - < 4 4 e q.AXHXKXLXLXLXLXLXLXLXLXLXLXLXLXLX",
"v.k.q.6.3.6.s.f.f.f.f.k.d.z o - o 6 6 , , = 6 5 5 j ( | ....| 9.9.e.r.9.*.[ ' ( z l u 5 5 : z lXLXLXLXLXLXLXLXLXLXLXLXLXLXLXLXLX",
"dXtXx.2.1.1.3.d.5.s.j.k.5.i X @ % 6 s 6 9 7 7 7 j ' X.r.r.r.N.C.r.C.y.y.C.0.9.>.} [ ) x 7 : w hXLXLXLXLXLXLXLXLXLXLXLXLXLXLXLXLX",
"SXnXU.;.$.$.=.1.3.5.5.k.6.w o - - 6 a - l ( j 0 { X.r.r.C.C.C.y.y.V.y.y.V.C.y.w.w.w.9.` z 5 5 %.UXKXLXLXLXLXLXLXLXLXLXLXKXIXDXMX",
"HXSXfX3.@.#.$.=.3.3.3.3.&.4 # = - , < 5 A ( j { 0.i.C. XN.N.C.N.V.V.y.y.y.u.B.V.V.w.0.[ x 5 7 e m jXHXLXLXLXSXDXBXhX!.s.&.n e : ",
"JXAXjXk.3.4.d.d.d.;.=.%.K : : - - 6 , 6 ) ( c X. XN. XC.N.N.V.N.V.C.N.i. X.XV.u.V.w.w.[ x u u j 4 K jXVXsXq.M e : # o $ ; a C d ",
"SXbXtXv.k.k.k.k.k.s.3.2._ w - 5 7 A 6 4 ' { { N.N..X.XN.N.N.N.N.N.N.N.N.p.N.Z.V.V.y.>.*.K l k 4 u e N M.M.w h C v f g C C d d p ",
"SXAXhXv.T.v.v.k.s.1.@._ *.z : u l ` A 7 ) ) 0.N..XoXN.N.oXV. XN. XV.V.V.V.V.V.B.V.N.w.>.) x l u e u K *.<.z t g p p r r r q p p ",
"LXLXJXsXd.s.d.=.O.O.I n _ m 4 l x [ <.x ) 0.N.-XoX.X.X XXXXXXX.X.XN. XN.B.B.B.OXOXA.B.0._ ) x z w w m _ :.H t t p r r p h t p p ",
"LXKXHXzXY $.o.Y I F g d m M k k ) w.B.y.0.-X4X-X4X-XoX.XoXXX.X+X.X.X X.X X+XOX+XOX#X@Xu.*.) m z u 4 k ) _ z y r r r q t p p p p ",
"LXLXHX!.y n g d h y t 1 i R k j ..B.+X=X4X-X4X4X4X9X4X4X-X-X-XXX%XoX%XXX$X%X%X%X&XOX+XA.0.[ ) m u 5 w R &.z : 1 1 1 1 q r p p r ",
"KXJXjXn t r r t r t y y z _ m c >.=XB.A.XXXX-X2X4X4X4X2X2X4X-X4X%X-X2X%X1X%X*X%XOXA.@X@Xu.*._ ) k u u z R z ; 1 ; = ; 1 r q r p ",
"b.5.M M f d i d h g h h n &._ e 9.=Xi.....[ [ ` | e.H.XXXXXXXXXXXXXXH.H.e.e.e.| | 9.y.+XA.0.[ [ K i w z z w q 1 ; 1 1 1 1 y y y ",
"N M :.@.H g f f g v f g i *.*.e u.Z.x 6 < @ .     , l ` X.XXXX XH.' ( A 9 - < 6 9 7 z 0.A.A.*._ ] m u m z ; y t y y y y y y t g ",
"jXgXT.1.n H n F v b v v n 6.;.k a.| < C S E A Z Z 9 - 5 A X.i.r.` 9 - - , 6 s S V a - ; ,.@Xe.K *.M z M u ; h s t t s t u g u : ",
"LXKXJXBX%.L R J I H n I n *.q.,.! o Z <...| ` ) c j 0 7 > C 9 9 5 @ 9 l Z A (  .[  . .6 . ~ I.] *.] m _ b z g h i g i d g h i -.",
"LXLXLXKXhXn W Y U R L L L :.c.fX~   s A j 7 j s 0 l Z | A + Z l - Z A l 0 0 l c A ) ` z   < ,.Q &.*._ @.@.Q J V g g g i u y sXJX",
"LXLXLXKXlXM &.T Y Y R L R &.m.S.q.x ) e + 2 C , S A c XXX.7 H.H.6 | A 9 S 2 & C 6 5 u x s ` ] K m :.*.%.O.O.Q F z i g f : 6.HXKX",
"LXLXLXHX~.T @.W T R R R T &.m.S.&X9.0.w.( ( ` E ( ` ..2X .E 2XXX9 8.| l E Z s S Z ( | [ [ >X@Xu.) *.c.q.,.$.Q P G F V J : P.KXLX",
"CXCXbXsX&.@.@.T ] R T R T *.A.rX0X*.w.A.w.} e.r.} } r.4X( X.-XoXA ` ..A c ` ' ' [ p.Z.9.9.mX:X@XB.V.w.0.q.5.2.%.&.W W O.L ,.DXKX",
"nXjXm.M.-.@.] Y W R Y R T *.w.S.rXr.9.3XH.X.H.XXH.H.4XXXZ H.oXXX| l e.| ' | e.9.9.Z.@X| w.,X:Xc.,XrX>.>.w.4.5.4.-.%.%.3.4.%.l.jX",
"LXJXcXv.&.W o.T Y R U U R *.A.A.rX+X[ $X4XH.XX2XXX4X4X| ..oXoXXXH.A | H.H.r.H.r.H.$Xt.[ ,X:X,XA.A.=XV.w.c.t.7.x.x.7.x.~.b.z.4.M ",
"LXLXHXCX1.Y W Q Y U U L M 6.A.;X,X0Xa.|  .X.2X4XXXXX .c oX-X-X-X-Xr.j  .e.t.H.e.e.e.` *X,X,X,Xc.>.w.V.0.wXkXyXkXkXNXkXgXtX>Xm.b.",
"LXKXKXJX~.M T Y Y U U K R >.:X;X,X3X9X XX.` ( ( A 0 0 X.4X9X4X-X4X%X[ c j c c A ` ..*X8X#X:X:XA.w.9.C.N.zXNXNXFXNXFXFXMXzXgXz.jX",
"LXLXKXSXP.H o.U U U J L R 9.#X;X,X,X,X0X0X-XX.......C.;X-X-X.Xr.0.B.+X0.' ) [ e.i.$X3X%X&X:X#X:X3XX.{ H.NXIXFXIXPXIXIXDXMXgXz.dX",
"LXLXLXSX6.K Y L P P L G R q.y.=X,X;X,X4X4XrX4X4XoXV.=X} { C.9.X.( A e.r.X.0.i.OX%X%X@X$X:X&X#X,XA.{ { r.DXLXPXPXLXPXPXSXCXhXY.l.",
"LXLXLXKXY.n W J U H G J K a.#X+X,X;X;X;X-X4X4XXX0.C.A.X.X..X9.0.e.( ' C.9.9.r..XOX%X*XOX#X&X@X&X.X0.0.XXIXLXPXLXLXLXPXGXBXjXsX7.",
"LXLXLXHXjXi R J H G H n R >XmX#X,X;X#X%X-X4X-XoXC.oX-X-X+X%Xr.9.e.a.i.B.r.9.t.H. X%X*XOX#X&X#X@X+X;Xi.9XPXPXPXIXIXIXIXFXMXjXaXz.",
"LXLXLXLX!.g U H H G H F L I.,XB.;X#X#X+X-X-XXX.X.X-X-X2X4XqXXXH.H.I. XH. Xi.i.OX$X@XOXZ.OX:X#X#X-Xp.$XUXGXFXFXFXFXBXBXBXvXlXaXb.",
"LXLXJXlXW G P G G G G n n *.p.;X#X#X+X+X-X-X-XoX%X1X1X9XeX4X2X2X2X2X<XI.I. X XB.B. XOXOX@X#X#X&XH.I.zXUXMXNXNXNXNXNXNXMXlXjXaXz.",
"HXZXaXq.R H G G n F F F P R &.q.Z.:XOXA.=X-X+X+X2X4X4X4XoXXXoX4XXX$X6X<XQ.H. Xp.p.B.OXOX@X#X@X>X7XhXlXlXhXkX].L.D.W.yXlXlXjXaXz.",
"SXlXY.5.R G G F F G b F G W Y T c.,X+X+X#X=X+X+Xr.X.X.{ { } } ' ' ' | r.e.t.a.u.u.Z.c.OX#X#X>X,XdXjXvXlXjXaXY.7.1.L.wXlXbXxXfXP.",
"VXjXT.2.L n F F b b b b n Y W U q.1X&X-X#X=XA.A.} ( { X.C.oXC.X.X.X.' ( j ' w.u.u.p.c.Z.@X:XS.mXjXbXZXVXbXjXaXP.L.W.kXBXCXnXaXT.",
"vXgXx.1.G F F b b v f b b Y W H *.#X:X;X;XA.A.A.C.V.-X-XXXXXoXX.H.XXXXr.9.9.w.V.u.u.OXI.#XA.:XdXbXZXAXAXbXcXaXP.L.].zXBXVXcXaXT.",
"lXsXx.,.H D D D v b f f v P W L L c.,X#X#X+XA.=X=X=X;X-XXXr...e.e.H.$X*X Xp.u.u.V.c.Z.@XZ.@X#XjXvXZXAXAXVXcXaXP.L.].kXDXCXcXhXtX",
"fXT.7.O.F v v v v f f b v P W Y f <.:X#X;X+X=XA.=X=X-X-XXXXXr.X.H.XX.X*X Xp.y.u.u.Z.@XZ.:Xc.>XjXvXVXAXAXVXcXaXP.L.!.zXBXbXcXaXT.",
">Xl.2.T n v v v v f v f b U Y Q i R @X;X;X=X#X=XA.;X-X-X-X.Xr. XN.XX+X Xp.p.u.p.V.Z.Z.@XOX@XuXjXvXZXAXAXbXvXaXP.L.].kXBXcXjXhXT.",
"m.q.&.U v v v f f f v v v P Q U f i t.,X#X;XA.+XA.=X=X-X.X X Xr.N.i.B.B.B.p.u.u.u.Z.A.A.c.@XsXhXvXVXAXVXVXvXaXP.L.W.kXlXcXhXsXv.",
">.*._ R b v v f f f f g v P Y P b ; ] @X+X=X#XA.=X;X-X+X.XXXH.H.H. X Xc.Z.p.p.c.p.B.c.Z.c.@XsXhXvXZXAXAXbXnXaXP.f.R.yXzXlXsXtXj.",
">.-.T n f f f f f f v v v I U P F ; f I.@XA.+X#X;X-X+X.X$XXXH.H.H.H.H.H.OXH.p.u.u.c.u.u.c.:XpXdXlXbXAXVXbXvXaXP.7.W.yXzXhXaXT.5.",
";.%.Q I f f f f f f f g v I Y I D y ; 6.I.B.Z.Z.OX+XOXi.i.r.e.9...e.e.H.H.a.t.t.a.w.m.p.I.:XsXgXnXbXAXbXbXjXgXx.D.W.yXMXlXaXtXs.",
";.O.Q D v f f g f V f f v H P P v r $ 1.I.w.w.a.a.a.a.e.9.|  . .|  .| <.<.e.9.e.9.w.a.c.@X7XuXaXnXbXAXbXbXnXaXP.L.W.kXBXcXlXtXf.",
"*.&.o.I f D f f g f f g f J Q J v t X +.7Xa.9.9.9.*.<.[ E A Z l Z A E E ] ] *.<.q.a.i.OX:X:X7XaXnXnXbXAXbXjXsXt.7.^.kXMXcXjXsXk.",
"2.&.O.I f f v V f g g f f G U G v h X I T.*Xa.w.9.[ ] ) A Z l Z Z Z K K E ] <.9.t.p.I.*X>X>XU.sXfXjXnXjXjXfXT.7.7.~.kXcXcXlXpXb.",
"z.5.&.U v f g g g f g g v H I H f p $ v I.,XI.a.t.e.<.[ ` K x A K E E ] [ <.t.t.a.I.$X<X>XI.q.x.n.uXuXuX>XT.m.h.5.~.sXhXlXjXpXtX",
">Xz.%.Q v f f g g g g g v G P G f p : y I.8XOX Xi.a.9.9.[ ] ) K E ]  .| <.e.t.H.I.<X<X*X7XI.W W @.2.2.2.5.q.l.q.4.q.P.sXpXjXdXfX",
"uXn.5.@.v v f f D f g d d v D V h r * ; c.8X;X%XH. Xc.w.e.9.<.| [ | <.<.t.a.I.I.$X$X<X*X7X@Xn t 1 = ; ; K ;.4.q.*._ :.s.S.pXdXdX",
"U.z.2.@.I I G I I v h y q y p r q ; $ X t.9X1X3X&X%X*XOXp.H.t.e.7.t.t.H.H.I.H.I.*X1X*X1X7X7X1.6 O +   % H &.;.4.H : : n 4.iXdXdX",
"2.%.O.U b v v G v d t 1 $ * > * $ % O   e.0X8X8X6X3X&X&X*X$XH.H.H.H.H.I.I.$X<X<X<X5X1X&X7X,X7X*., O > o p Q ] n : % @ o R h.uXiX",
"v D D d d p r t p r > $ X X X X . . .   8.9X0X0X8X8X8X6X9X1X<X<X$XQ.I.Q.<X2X<X<X5X1X5X8X:X:XiX,X,.- 6 C   o 1 1 = = * # i *.b.n.",
"1 1 * * * > * % * * O . . . X     1 V K q.7X8X0X0X3X8X8X9XeX9X2XQ.<X$X<XQ.5X5X5X6X5X5X1X&X7X>X#XZ.] ; ! ^ D     % > * X ; R 4.h.",
"X . X X X . . .   . . . .   + % 1 Q ~.P.a.6X8X9X9X9X6X3X4X4XeX2X<X<X<XQ.5X5X5X<X6X6X6X7X7X7X,XZ.Z.t.g r P D.F.S     X > * f @.*.",
"X X + + X X + X . .   X O > >     D.wX7.I.6X6X9X9X0X8X6X3X3X6X2X2XQ.<X<X5X5X5X<X5X7X5X*X&X7X&XOX#XK.1 2   8.yX(.G.!       p b o.",
"X 3 O O $ $ % $ % $ & %         ,.gXL.,.<X6X8X0X0X8X3X8X6X3X4X2X2X$XQ.Q.5X5X5X6X5X6X*Xu.Z.:X@X@XI.! 1 > B F.|.].].W.G.V     ; g ",
"O O O +   .             o Z 8.!.zXlX . .7X7X1X9XeX9X6X6X6X2X6X2XI.Q.Q.!.Q.qXeXqX6X<XZ.w.w.S.#XI. .1 8 > +.|.(.W.F.W.].W.D.Q p $ ",
"          o : ; w 4 J 7.~.gXhXgXkXkX^ Q Q.<X1X8X9X9XeX9X2X2X$XH.K.Q.<XQ.5XqXwXqX5X5Xc.w.u.A.&X .2 C 3 ^ }.|.|.).^.R.R.(.].].W.7.",
"5.4.g.b.n.U.Y.T.Y.sXgXgXgXgX].!.].kX .g W.6X2X2X9XeXeXeX6X<XH.H.K.Q.Q.Q.qXqX6X2XQ.I.B.OXu.r.E 2 8 3 ^ {.{.|._.(.(.W._._.W._.].yX",
"VXZXAXvXvXjXjXjXhXwX!.!.!.!.!.Q.].kXG.*  .K.6X4X1XeXeXeX6X6X$XH.H.Q.2XqX2XqXqXqX5X<X*Xt.] C 2 2 @ ^ `.}.|.|.(._.(.|.|.W.].(.yXyX",
"HXJXlXgXwX!.!.!.W.K.W.W.Q.].!.W.!.wX'.S O ! | qX9XeXeX9XqX9X2X2XQ.$XqXqXwXeXwXwXQ.8.~ C 2 2 O B G.`.}.`._._._._.|._.^.!.].yX]._.",
"DXgXW.W.J.L.R.R.D.J.L.K.E.'.Q.W.R.`.].J.2   C ^ 8.I.eXeXeXqX2X'.qXqXqX`./.K. .^ C B 2 2 3 2 ^ J.{.[.`.)._.).).)._.^._._.(.^.R.^.",
"].L.W.R.J.E.E.R.J.J.J.J.W.E.!.R.J.E.'.].K.S .   3 B S  .Q.qXqXH.G. .^ ! C B 2 3 . + 3 2 ^ F._.}.).).).).).)._.W.^._._._.|._._._.",
"/.J.R.^.E.R./.J.J.J.J.E.E.Q.E.W.W.J.E.'.`._.G.^ C C 2 + a K.K.S 3   .       O 2 S ^ G.J.[.}.[.).).).).).)._.^._.).)._.[._._._._.",
"J.R.R.F.R./.^.R././.R./.).(.(.(./.J.E.'.'.qX'./._./.J.J.F.J.R.F.G.G.^ G.G.G.R.^._.[.[.).|.).).[.[.).).^._._.).).).|.).|.)._._.).",
"_.^.^.R.^.^.^.(.(.E.(.(.(.'.'.E./././.J.E.'././././._._._.R._.J.^.F.[.{.}.}.}.[.[.}.[.).`.[.`.`.).)._.).)._.).|.).|.|._._._.^._.",
"/./././.^./._./././././.'.`.`./.(.`././././././.J./._.R.^.J._.^.^.F.}.[.[.[._.[._.}.[.}.[.[.).).)._.).).).[.[.[.).)._.)._._._._.",
"/./.(./._.)././.`.`./.`./.'././.(.(.(.(./.(.'././.R.R.R.J.F./.[.}.[._.[.[.[.[.[.[.[.[.).[.[.).)._.).).).[.`.[.)._.).)._._.)._._.",
"`.(./.`.`././.`.`.`.(././.'./.`.'./.(.(.'./.`.`.(././.^.J.J.^.R._.^.[.[._.[.).[.[.[._._.[.).[._.).).).).).).).)._.).)._.).).).`.",
"(.`./.`.`./././././.(./.(.(.`.`.(.(./.'./.'.`.`.'.(./.R.J.R.).^._._.{.[.[.[.).[.}.[.).[.[.).[.).).[.`.).).)._._.).).).).).)._.`.",
"`.`.'./.`././.`.`.`./.`.`.`.(./.(.`./.(./.`.`.`././._._.J.J._.R.).).[.).`.[.[.[.[.[.[.[.[.[.[.[.`.).[.`.)._._.).).[.`.).)._.)._."
};
