/* XPM */
static char *_cb2442089ea4035ca1d08eb106c21d5[] = {
/* columns rows colors chars-per-pixel */
"64 64 35 1 ",
"  c #07070F",
". c #09090D",
"X c #070710",
"o c #080711",
"O c #0D0D14",
"+ c #0F0F1A",
"@ c #100F16",
"# c #100F19",
"$ c #101015",
"% c #12111B",
"& c #18141E",
"* c #161221",
"= c #1A1525",
"- c #1C1827",
"; c #1C1729",
": c #1D1929",
"> c #211C2D",
", c #231D33",
"< c #261F38",
"1 c #262035",
"2 c #292337",
"3 c #272139",
"4 c #2A233C",
"5 c #2E2543",
"6 c #302746",
"7 c #312945",
"8 c #342B4C",
"9 c #382E4E",
"0 c #39304E",
"q c #3A2F51",
"w c #3C3253",
"e c #403657",
"r c #413659",
"t c #453A5E",
"y c #473C60",
/* pixels */
"889:=&=&@oOO$$$$+++**=*++OOO@++%++*%OO.O=&&:&OO++++oOOOo@#&=4888",
"8,>>;*%%$oOOOO++++***=*++OXXoX.O%+%%..=*rq62<;=*++O+OOOOO;%*:,58",
">>>>:=**%OO@+$+++**+*;;*$O+O..Oo++%%*;tyqq986688,%++O*&$%;%OO;85",
"=>>>;**#Oo@O+++++++*;*;++.O..*..+%@%www989888888-&##%>1454<O*973",
"$=:>-*##**+*+@%%+*=%*;;*%$O=*q8@$%%2889>>,>>,;===%##=<4>=%;-Ow85",
">%*;*=+=w974-+%%%**%*>>:%+-7qq1:$+%:78>;;=>=;;===###=<,==;:9>O5:",
"O$**;;=8w8>45+%%%**;;*,>--0898:-+O+-2>;*===>;;;;**Oo:<,=&**>;;;*",
"O.O&;rwq8:>:1&%**%*%*%>,47777-;;$@+%>4:***===>;****O@,>&%.&;**+;",
"o.;9rqw8::>>O;-&&%%@&*:43445&O-%+$%%*-::-==-==**&&<%>2&&%.o#&=oO",
".o;6q86<:::>*O==&&+oO%72233%**0-%+%%%++%-%*==***&><89422%@OO###o",
"..28664<::>:o&O;%%$.o:7431+-yy7-%++$*OOOO%=6>=***;>2<4->>@@$@@@o",
".o55<,>>:::%oOO=%%%OO:442--wq8>*%%$OO%..X-w64:;;=;>>>>&$@@@O@@o.",
"@@<,>::=->>%oO$&$%$.O:>4:;*44>=&+$$$$...X=88:;::;;;>>>$$.$$.O$..",
"=@>>:==:-:%.oO%%%%OooO::>%%%&&+++$.$.$$.=88-:;::;;=>-$$$$$$$$O.$",
"&o::;=-;1&%&@$%%%%O.OO%*%%O&%%++$O..$$.$=8;-:::;;>>>&-$$$$$$O$=>",
"Oo::;-*;2%o%%.%%%%o.o&%%%%O&++$$+$$$.$$.=>;-:;:>>>==$.$$$$$.$$7,",
"ooO;=-O,<>>#*##*##%.%O+%%%*%%%$+$$$.$....=>=::->>>=OOO$$$.$$$$4>",
"Ooo;=o:3=**#&#*Oo*&==-%%%%*%%++$$.$$OO@...=:-->-=@$$$O$$$$$..$$&",
"oXoO;Oo@=,>>#&#O**;--;%+%*%%%+$@$OO.$$O$..=:>:::&>$O$$$$$$.$OO$@",
"OO O@@@O*,&>:>*#oo=:%+%*%%%%%+@O$$OO$.$....:::--$$OO$$.$.$$.OO@@",
"OO.@O%$o**O..@..XO:%+%;-&O++@@O#$%$$@O..%@..-:-%@@$$$...O$@@@$O.",
"O%OOO.%Oo;#oO@%@%=*%+;:+OOO+@@o>$%$$$$.%&$$.$$ooO$$$....@2&$$$O.",
"o%%OO $$*r&&O #%-%%%o--O$#%%@o@2&.$%%O%&$$$$$$$$..@@$..@e4>O@O..",
"O$%$o..;ye4#oO@#+*%%@*-%%7ww%@:4<:OO$=*$$@$$$$$.......Oeee4>@..O",
"&&%&%O*tw85>*O.#%%%%@#>>69qee774,;:-*%$$$$$$$&$$.....#*te898;>;&",
"4-*%@O&445469>##%%%%O#=>6qeqq984:=*%%=$$.$$$$&+@O..*#,tee6445588",
",*%%@@%%*,8644%#%#@oO##=6668988:-=&%$&$$O$%$%&@@##*4#=yq6>2<666>",
";-%@$$@.o;847>%###OOO@#&=,688>>>-*&%$$$$$$@$%%@@#*e,O=yq8>>>;*;;",
"*;=@@O@.;>5>>>%##o@.O..#@;86>>>>:**%$$$$$$@#$.#@#t9<;=yqe>;;*===",
"**;%$@..=;>::>=@@@@o*&O#*86<=>:>-=*+$@@$@@$....O@t92=te86>;;*;=*",
"**=%%%..o>=**:.o..=*ee*@@q85@=>>-**%+@++@@....OO@#e4,te6>;;*=;==",
"=**#$%%.Oo&&=o..O=ee888#OO5>>#&:*=++%*%&@$...&=OO.@6=>8e>;=*==;=",
"==-+%+$OOO**+O...*88767q@O=*OO**;;%++%*%%O.--t9,OO@O-*,w,-=**==>",
":-*+$++++*+=%+.. 855668:O+O-OOO+%%O+Oo@OOO*ww8:=-*+OOO*>>-=****;",
"---*+$OO++*%%%+..53:>,,-:+.+O.O+%#OOO%+..&008,:--+@O$O*--*-***==",
"=--%$+$OOO%%%+.. 5-13,1>%O+OO*OO#OO+@%o*+%44,:--+$++%%+%-******=",
"=*%++$+OO++%++.X.:1,::-=+@OoO+OO+O$O@+oo+-11:=*%@+%%-%->,;******",
"=-%++OO OOO%+.XX :==**:++OO@OOOO$O+O@O$$+%%1;=*%+%+*->>11=***;==",
"::-@$$O..OO$..XXo:=&-*$$OOOOO OO$O=.OO@++%%*;=%%%%+%->,131=*;;;>",
":-+@+O...OO$OXXXXO*;-.OOOOOOO.O@$$=$.OO$+%%%*%*%%%+&--,1,,,,;*%%",
"*%$+$$O...O$$.XXXX;*..OoOOO*oo$+%$&&$$$O++%%%&%%%O$%*->>,-=&&&+%",
"-&+$+$....O$O.O..XO-O...O*,::%%%$$$$$$$$$+$%%&%++$O+%-:11:*%++%%",
"*%%+O+....$$O-+.Oo%$$OoO;-*%&%o%$$$$$$%+%+%%%%+@OO$+**:=O@%*%%%&",
"+%++%.. -..O--*@&o%OOO.-;+%&%@$$$$$%$+%%%$%%%$++O+$++%:%@+@%%%%%",
"%%%+++.*t*o$*%++@oOo.@:>*;#%%%@%$%O%+O++$OOo+%+O++O++%==+%+&%%%%",
"++%.% *w98Oo=*41>,:&O*::2;*%@@@$$%+++*;=,:=OO+$+$OO$O+%@.--&%*%%",
"+++.+-w7:: *795-53-;*%-51<-*@@$#$%+O+:,,wwy-==+++$$+O.OX-q4*%%%%",
"%+O.X-w4*;*yww4+-7:&%;3333>*@@OO$O+++-ww0wwyyy*+$+OOO.==8q4=+%+%",
"&Ooo;t9,;yywq8;++2,++=1>13:*$@O.***=%17qqqwwqq8=++$O=688w8:&%#%#",
"@@.$;y9,tww89;%-,1-+%O%77:;*o.=*yyyy=>6w88889w>>>$$%6q8w8,==##$@",
"$O$.*w9r9w86-%%O&*&%%%O:2;*O*ryyqwwyyw888888>,>>>-O0qw8>;;:=&#@O",
"$$.&=7,tw86;;%%%&%%++%OO##%%ewqw998886>1889,>>>>-**tw8>:;;:>::OO",
"$..*w>:w98;==;=O+%%%+%$OOO*w98>>:>:,>:*+,,>>>>>:*+=w8>:-::::&O@%",
"@%.=w11>4;==--=;+$$++$$+@o*88,-;::--:=%+#$->>>::+-tw81-:-:::OO@O",
"@+..:41>>=*==:;=O+@@$$@@O&78;::-::-:=%@@$@$;;:;;-ry9>:-:-;-%O@@@",
"@...;:9>;=*=*=>:-@$+$+%+%*6-;:;>:::;=+@@%@#$;;*:7w9>-::-;&%+.@@@",
"@@...*>>>=****>>:*+O@@+$+*:-:::;::;%%+*++$$$+--;27:-----=%%@.%$@",
"OO#..=>*=****;*;:-;O@+@@+O---;--:;%%+%++$$O+$=;-:-*-*---&@Oo.oOO",
"OO@..o*>******;**--=*@+%+oX-:-;:*++@+$+++$+$++&-;%%%%*=&#oO.@O++",
"OO>@*#@>***==**;-*-+%@%%%$O==-=*%++%++@+O$$$+$%;=%%$+%++%@$%OO@+",
"o#<&.###***&****=&+%%=@%++OO%*%+O%+$$+$@O$@@O+*=+*+++@$$@--+++%%",
"@:2<;o###*&&****++%$-:&%%$OO%+%%%%+++$$OO@+@+***#+O+@@+OO*-%%7ww",
"855,;;=O##OO***#$+%O--*O%%O++%%+%+$+$OOOo$O+****++++O+@O@%::79w0",
"98<>*&&##O@@OO#O+%OO*--oO%OO++++++&++OO.O+O*%++++++O+O@@@+-:7www"
};
