/* XPM */
static char *result[] = {
/* columns rows colors chars-per-pixel */
"64 64 42 1 ",
"  c #C9AD7D",
". c #D1AF78",
"X c #CEB17E",
"o c #D5B277",
"O c #D6B57E",
"+ c #D9B77E",
"@ c #DCB97F",
"# c #CDB280",
"$ c #D3B682",
"% c #D9B680",
"& c #D5BA85",
"* c #DCBC84",
"= c #D7BC88",
"- c #DBBE89",
"; c #E1BE85",
": c #E0BF88",
"> c #DFC086",
", c #DEC18B",
"< c #E3C186",
"1 c #E9C487",
"2 c #E4C48C",
"3 c #E8C78D",
"4 c #E7C88F",
"5 c #EAC98E",
"6 c #E5C790",
"7 c #E8C790",
"8 c #E6C891",
"9 c #ECCC93",
"0 c #EFCF98",
"q c #F0CF94",
"w c #F0CF98",
"e c #EFD096",
"r c #EFD198",
"t c #F2D196",
"y c #F4D49A",
"u c #F8D79C",
"i c #F7D89E",
"p c #F9D99D",
"a c #F6D7A0",
"s c #F7DAA1",
"d c #FADBA2",
"f c #FDE1A7",
/* pixels */
"9r8,9w9w<<u<yaw:666,968592<311q1t5335t5tt5t>>29,466,025u93033966",
"9808<w33wtuwu9939#88r64,445<q1q15tqt<9qtt1@><4588 9e02wut99%9t76",
"&69999<;53tt<9829622684e511<5t5q1et5qte5e>2<244,928839tu93298r0,",
"88897qqqq5yu998ur99e6,82y3<1qu59515t9yt42O>><e4y9err30yw7<99e809",
"i0tu333qwt03t388e2984><145tttut35eyp9t4>@>,5e844r60492uy498r8808",
",y9932tyu3<39386ye,423q1t91t55<t5y9et9<<4>,94,8,yr,58df5t9,629,6",
"2e99tt590<12929r54t349qqu5q51495eyyee4@5O5e4t49r93e90it3uy09r9i9",
",9*tuwqq3**>39902et435qttq11115<ept94<554858899r80e3tud0tty9r869",
"22wy<0776<3329-94*5215q353215<459a599,r5,r5,4e>53*5w9dy99t079,,0",
"q9<dt3733%9<9t845e<ypt5331<1145eiy09,89ey>99pt450w55wa9976886898",
"1qt097*3<*<=45=53<<5555*@@;1*@<5te3>8898869,e9>9239tuu0398i86680",
"qqy72<5<-w27e52<1@9tt91o3<;1@ep944=8888r8r9rt9911qut;93&88e999r6",
"qyq53%93359955539t9e5@<<@<1>ee94*2,696998re95eytt5t99925868,88e=",
"qq72+O<33595q253955923****>4p9425>966#88r9e4t49@1u<9248996,8r42e",
"qq2:3322e4555qtqw334<1%2245eye>*>992yy68i9rr5ee4tt9994996804852e",
"uq%1&$2<59u52qtt4&*o2@<<59e5p5222y48&,688re54ptp9;2-66669989u3eu",
"7538739t9<3u5i98239<33*9455t5@>,4888955pt,y52ti59,39686998e99955",
"5q02=t9y33yti92<=<<-49<5eeye5>,24ie,,peyetptt94923469y99rye4999t",
"9.77395953yi05<=22822399ey5524<,, 8e98e954eq54922997969298e49p9t",
"w2999,9539t92**%90893=<28y52>55,r8e8e,4pe5ep95e>9e886=648e8e99t3",
",8yy09*5yyt325,e862y883ep95*4O86,8iy9e9e99t4r9,e999y6849w977u;99",
"9,98595tt902,,,r8e899t9ie82*>r,,8,849454tet54,,e9e689r,e920auqw3",
"y99u5tu0r9948e69899,99rre42,,,8yi88r4t915t449889896&8ee>39yyt9<t",
"9805tuiu9994,46r9r9999ede>>,4,888448t55tte45r8698ee6r8,4wty09399",
"969ru7u9<676y689=y4e0upt99*288,ie,e>4,eq9252e499&p4099t9wta9908t",
"e90et9t03927yr,8095et0i592&28r99eeee5ppp9424y9,8e9u94<90td678y89",
"00tuw99279,-9899e5599tye69r88r,684e89eee,52,599808924w9tu09890,,",
"<<9t798- 898y68e29t9ttr03869r699i,eeee54$498e689,y035tt993<9y699",
"23ud9929-t6r998849tt9ur<&98869r94eeeei522e8e9854849t5tt9286968r9",
"9tq030-99288a6e84ewtu9<229y9669r,ee9e4,58298p8924<0e932468y968,9",
"qup%*-99-y996r9e949p023988,&9898yee5>595,r94489e2t9ue9,928,-9828",
"uwu333378=6a6r949ttt02=268y9yr699rspr89,6=4p4e539ue99,2,29e9t02t",
"pu9*299re89=-t0232tue489e69e89225yy88eet989,,89eee449,38079r308e",
"d704*e9,re66689599pt924,6,6$ey59yyr4,e9,r986891tyr5422,,688=9et0",
"099223-89=r98003uty84%4866ee995e99ee88,49,e4,9epe92><2,889et0ttt",
"a9227r,e6,929u95udy922848448reeey9e88r,e9,e5ritsee>>,,9498499<*u",
"u2et89666909t559tt55=%8e886e>5uey5tt8888899eyyiet<44,$6r00w55;qy",
",0409,9rr86855tt592<29y8ee&42yte4e4998eey48y9et523,549ye9t<995w3",
"29808ee9#8r45qpte9e2446,ee49te5ye94e8ee9=9yeyt992+5546949t5tqqt7",
",t20p6y9y84e99tw44e299e99rereeee44,ey8ee595y59e*<5928yee9utqpu;9",
"94966,9r7993tu599244>8e9eye9y9yr42954=99ee3pw5*,4=44,09t9dut93:;",
"09rr880rq*99q9w3492t84ee4e9eeet95<ee889954yer33%42,y93tt0tty3*39",
"yrr,6rr9279wtt0%<2=28997593eyye5558,499944ey93>5<2X4993qtyde5**9",
"669r86925tpdq9393445966&533t5ye>,,4e86545td2<<54<49993wwup5t<7e<",
"8e66r698stt99>32*94O9e8e9e9ew52=4866e8e1eqt@<<44899&5qttt999599&",
"i6996,999r09<395294e82945tt35**3e4888=89qq94&555,92e5305u9<493-9",
"9r43yy85ut7<=2<<499ty3e5ttip53<84e44ty49yp55>55,9t5t5qtd3922,939",
"6y42-<55y0<335254494524e9p023*>92yee,*5pyp<155499*9531dtq<,3e260",
"444<;;qqtt:5:q3%39883etqpu95422,4999555pt972=<3-125<ttp933<980,2",
"499>;;q;u:qq:;3523r9995uut2<*2229pe345u5982<229t229uut1932922889",
"3&*<5q;q5q;:77:7999595ue5922*5,,4&2t5tuy32<3139<95tut308<7798y86",
"932<t:qq::5:<77:9ut9ttuy91<<299459e99etp228<359<4tt5929<7t8t9y02",
"105;q5;q**3*7779t09tup9r95<28&42><e35qy55<9-59355q00t325t8079=59",
"9:15u35;+%99779t2q5tt95t*<*83t349>etut59<,<t23959uy335,99899094r",
"wq535:3:**3<799t5tpid592<9<20390t53t9w335&323q5qet93<-e,80t799wu",
"055:5;::<<-777999tudw3%79<,3382235pyw7-;222355;qu9<-2<2859<3w00t",
"5w9;.@<&@<<9y9993ytq<;53*49525555twqt*=<934999qt22*2<r997<903dwt",
"u;<:**5<:330tr8qy<3;<+-2<5=4952qt5t3e<2<2428993q52009278e032tdq9",
";2;:7;-*708,wtu353%1;27638t29329tuut,-2,452493w954<2898833yyua3*",
"1%*:2<32$0uwtu9w;3;:33333992y93qt5q5<28<$559t5u5*5962990<90utw<<",
":;;;25997y9ye95qo;;23398-55359uqrt3989992e<24ar9339968r06udww952",
"::;2,9-t069rpqu5*2393=8<,9t99<tpu03>94-9949ett2<*<796600wyuww<7q",
":52:,9ee-uyru55<*-322820<399wqw9y52,79992t5399392066993a9w027377",
":722t996223uu1*797<,6,2<99993tuw3<<30893955995<2200,8,90y9t<;w7q"
};
