/* XPM */
static char *result[] = {
/* columns rows colors chars-per-pixel */
"128 128 47 1 ",
"  c #BFB86F",
". c #BFB870",
"X c #C1BA71",
"o c #C6BF7A",
"O c #C7C07D",
"+ c #C9C17E",
"@ c #CBC483",
"# c #CEC68A",
"$ c #CFC88D",
"% c #D0C887",
"& c #D0C78E",
"* c #D2CA8C",
"= c #CCC590",
"- c #CEC894",
"; c #D3CC93",
": c #D8CF93",
"> c #D5CE9C",
", c #D8CF9C",
"< c #D7D097",
"1 c #D9D095",
"2 c #D6D09E",
"3 c #DBD39D",
"4 c #D7CFA0",
"5 c #D6D1A1",
"6 c #DDD5A5",
"7 c #DED8A7",
"8 c #DED6A9",
"9 c #DFD9AD",
"0 c #E0D7A5",
"q c #E3DBA5",
"w c #E0D7A9",
"e c #E3DBAC",
"r c #E8DFAC",
"t c #E4DEB5",
"y c #E8DFB2",
"u c #E6DEB8",
"i c #E8DFBB",
"p c #EAE1AE",
"a c #E7E0B6",
"s c #EAE1B3",
"d c #EFE8B7",
"f c #E7E0BB",
"g c #E8E0BB",
"h c #EEE8B8",
"j c #F0E6B7",
"k c #F0E7B9",
"l c #F2E9BA",
/* pixels */
"ttttttttftttttttatttttttttaattttttttttfhhlllllllllllllllhhhfttttttttftttttffhhhllllllhtttttttttttttttttfahhlllhhllllllllllhfaaat",
"tttuttttttttfttattttftttttaftttttattttfhllllllllllllllllhhhfttfttftttttttthhhhllllllhhtttttttatttttttttthhhllllllllllllllllhaatt",
"tutttttttttttaafttttttfhtfffffttaattttthllllllllllllllllhhfttttttttttttttfhhllllllhhhfatttttaatfttttftttfhhhllllllllllllllllfatt",
"tutttttfttttfhhhfttfhhhlhhhlhllhfttttttthhllllllllllllllhhftftttttttttttfhhhlllllllhftatafhffhfhttttttttfhlhllllllllllllllllhftt",
"tttttttttttfllllhftfhhllllllhlllhfaattttfaahhhlllllllllhaatttttfttttttfahlllllllhhhhattthhllllllhhtttttfttfhllhhllhhhhhhlllllaaa",
"tttttftttttfllllhhahhhllllllllllhfaatttttatahhlhllllllhfttttttttttttftfhllllllllhhhftatfhhllllllhhftttttttffhhhhllftaffhlllllhta",
"tttttttfttfhllhhhfahllllllllllllhftttttttttt99ahllllhhaafttttattfttftfhhllllllllha9ttttfllllllllhhfttftttttthhhhlfatatttllllhaat",
"tttfttttttthllhhhhthllllllllllllf------==->--=>hllhhhtttttttattttttttfhhllllllll9==5tttalllllllllhttttttttttffttfaaaataallllhftt",
"ttttttttfttfahhhhataahhhhprrtre7========3hllp-=9lhls-79tttttttttttahllllllhhllh7====59athhhhlhhhla7tattttttttttttttttftthlhlhaat",
"fttftfttttttaahftt955=-==-=============-llllh7==676--55>5999t9tttaahllllllhhh9>=====-taatafape99t5>>79ttttttttftttttttttahfffaat",
"ftttttttttttt9955>>>--=================2llllhs====$=-5>>5-55557559hhllhhlhh9>>-=====-t9999992<-2->>--5-5--555ttttttttttttttttttt",
"ttttttttt9955-55>><5-==================2llllls======->>-55->55-5>>7lllhhha75->>-===--55-25>>>2>>55-55-5--=--====5-559tfttttttttt",
"tttttft9555-5-5->-5>5-==================phllh6-=--->>>>>-5-5-5-5>>-ahhhh555-<>->-==--55->>->>->>>-5-5<----===========-559ttttftt",
"tttttt5>-5-555-5>>5--5------------->>--><9ss6><>>>>>->>>5-555-5--5>5779555-5>>>>55-55-55>>>>>>>>555-5--==================5tttttt",
"fttft55555-5-5-5-55-5->>->>>>><<22-2-5<>><222><<>>>>>>><-55--555>>>-5<5<-55--5>>5-5<5->->>>-<>>>-<55-5--=-===-=-==========5ttttt",
"............XXXXXX..XX.X..XX.XX.XXXX..XX XX ...X.. ..X XXX..XX XXXXXX     XXXX..XX.XXX.XXXXXXX XXX..XXXX............XXX...XXXXXX",
"XXXXXXXXXXXXXXXXXXXXXXXXXXXXXXXXXXXXXXXXXXXXXXXXXXXXX O X  X X OXXXXXXXXXXXXXXXXXXXXXXXXXXX XXXXXXXXXXXXXXXXXXXX.o..XXXXXXXXXXXX",
"XXXXXXXXX.XXXXXXXXXXXXXXXXXXXXXXXXXXXXXXXXXXXXXXXXXXX   X OXOX  XXXXXXXXXXXXXXXXXXXX.XXXXXXXXXXXXXXXXXXXXXXXXXXX..X.XXXXXXXX.XXX",
"XXXXXXXXXXXXXXXXXXXXXXXXXXXXXXXXXXXXXXXXXXXX XXXXXXXXX   O      XXXXXXXXXXXXXXXXXXXXXXXXXXXXXXXXXXXXXXXXXXXXXXXXXXXXXXXXXXXXXXXX",
"XXXXXXXXXXXXXXXXXXXXXXXXXXXXXXXXXXXXXXXXXXXXXXXXXXXXX OO  O XXO XXXXXXXXXXXXXX.XXXXXXXXXX XXXXXXXXXXXXXXXXXXXXXXXXXXXXXOXXXXXXXX",
"fggfgt&XXXXXXtggffffhffffffhfffffoXXXXpllllllllldlllllllpdldlllllhffafffgggggfggigfff844>oXXXX:lllllllllklllllggfffffffgggggffff",
"giigg&XXXXX.<hggfffffffffffffffff@XXXXqllllllllldlllldllddlllllllllhafffigiggigggfgff8>>;XXXXXellllllllllllllkggffffffgfggfgfffg",
"fggf;XXXXXX:lllgffffffffffffffffg*XXXX3lllllllllllllllllllllllllllllffffgfggfgfgggift>4>OXXXXOllllllllllllkkiggfffffffffggggggfg",
"ggg2XXXXXX1llllgffffffffgffffffha:XXXX:lllllllllllllllldlllllllllllhhhffgfiggigggiiu6>4#XXXXXqllllllklgggggggfigffffffffggggffgg",
"gieXXXXXX1lllllggffggggffgfgggffi>XXXX*lllllllkkldlllllllllllllllllllhffgggggggffigt4>-oXXXX+llllhggggggfggggifgfffigffgfggggggf",
"gtoXXXXX1llllllgggggfgfiggggfffft6XXXX@llllllkdeqqqdlllllllllllllllllhfggfggggggggu4,;XXXXXXqllkgggfgggggiigffgifiiiigffgggggfgg",
"g;XXXXX&lllllllgfgfggiggfggfgfgggtXXXXolllllls06qqpeedllllllllllllllllfggggggfgfuu84@XXXXXX%llkigggggggffgffgiggfffigfggggfggffg",
"eXXXXXodlllllllgggggfggigffggggfttXXXXojllllk066qpppsesllllllllllllllhggfgggggffit-oXXXXXXoylkgiggfggfgggggfggfgffiiigggffggggig",
"#XXXXXrlllllllgigttutiiifgggfgggfgXXXXXllllle666tssys86edllllllllllllhfggggggfifu-XXXXXXXoslk0iigggfffggfiifggigffffgfggggigfggf",
"XXXXX:llllllllkiu8668tiigggfffggggoXXXXpllle6666esyss6666eedllllllllhffffgggfgii=XXXXXXX@jlkw>8iffgggggfiiffggfgffgggfgfggggfff9",
"XXXXXlllllllllls6666668uggggggfgfg+XXXXqllsq6660ysysse66666pllllllllhfffgggggfg;XXXXXXX:lllr,>>wggggffggiigfgggggggiggggfgigiii$",
"XXXX3llllllllllly6666668ugggfgfggg@X XX3lde66666essssse6666elllllllhffffgfffgg8.XXXXX+ylllr,>>4>9gfggggfu8tiiigfifgggfgggggiit9X",
"XXX+llllllllllllld6666666agggfgfgg-XXXX1ls666666wyssysst6666sllllly8tiiigiiiiiXXXXXX:kllju,>4,4>448888448uiiiffgggggiiigttiggg#X",
"XXXqlllllllllllllld6666666tggiiggi&XXXX*j66666666esyysyse6666essyew44ufiiiiii>XXXXX:kllls4>4,,>>44>>444wfgiigfgggggfiitwyyyggwXX",
"XXOlllllllllllllllll6666666tigfgtt;XXXX@6666666666wyssysy6666666664>46uiggiiioXXXX%kklls4,>>,>>,4>>444uigggiffgfiiggtw0yysygg#XX",
"XX:slllddds7sllllllls0666666tgfft6>XXXXo66666766666eyssyy666668666>4>>6uigii6XXXXXsllly4,>,>4>4>4>>>4uiifggiggggutw86wysysyitXXX",
"XX66ere766667pllllllls66666669ee66,XXXXX666666666666eyyyy666666664,,>>6igiff;XXXX%llky4,4,,,4>>>4448igfgiigiiew666666esyssse&XXX",
"X#666666666666sllllllle666666666666XXXXX6666666666666wyw6666666664>,4,eugggg@XXXX3lly>4,>44>>>>>>44fiiiiiiguw664>446wyysssy6XXXX",
"X>6666666366666sllllllp667666666666oXXXX6686666086666666666666668>4>>>9figgfoXXXXrlp4>>4>>>>>>>>>>8ffiiiiie664>>4>>6tyyiyy8>XXXX",
"o>26666676666666sllllle666666666666+XXXX<6666666666666w6666066eyw>,>>>8igiitXXXXXjj0>>>>,4,>>>4>>48ffiiiiww644>>>>44eyyys66@XXXX",
"#>266666666666666sllld6666666666644+XXXX;6666666666666666w666eysw>>>>468tet-XXXXXjyy>,,>>4>,4>,>>>6tgggu866,>>,>,,,4weytw66oXXXX",
";22666666666666666epe66666666666444@XXXX$666066666666666666wwyssw>4>,666w4>-XXXXopyj4,4>>,>>>>>>6666wwe8864>4>>4>,4666w6666oXXXX",
">>>66666666666666666766666606664>>>@XXXX@>566668666666666wyyyyisw,>,>6664,,=XXXX%yyiw,,>4>>4,4466666666664>>,>>,46666666666XXXXX",
">>256666666666667666766666666644>4>#XXXXo4>>666666666666wysysyysyw,4666644,=XXXX%yysy4>>>>,>>46666666w666,>>>>,466666666665XXXXo",
">>>467666666666666666666666664>>>4>=.XXXo>,>>6666666666wwyyyssysyt666666>4>+XXXX*yyyy4,4>,>,6066666666664,>>,>4w6666666666>XXXXX",
">>4,676666666666666686666666,>>,>>4;XXXXo4>>>>4666666666yyyyyysyye666664>>>#XXXX:jiyy6>>4,4666666866666664>>>6666666666864>XXXXX",
"$>>>376666666666666666666665>>>>4-;oXXXXX>>44>,4w6666666yyyyyysyyw66666,>,,@XXXX;yyyyy6>>56666666666666666666666666666666,4oXXXX",
"@4>,266666676666666666660665-@@oXXXXXXXXX;>,>>,,46666666wyyyyysse68666644,,oXXXX,yyiyyyyye6666666666666666666666606666666>;oXXXX",
"o4>>>4w6666666666666662;@+OXXXXXXXXXXXXX.$>>>>4>,466666666w66weww66w6666>,,@XXXX3ssssyyssyy8666666666666666644>,>44w68664,>#XXXX",
"X>4,>4,66666666662;@+XXXXXXXXXXXXXXXXXXXXX-44,>>>>>666666666666666666666666@XXXX<ssyyssyysyyw066666666666664,>4>>>>,46664>>;XXXX",
"X=44>,>>52:>;#@OXXXXXXXXXXXXXXXXXXXXXXXXXXo;>>,>>>>>46666666666606666660666oXXXX<sssyyyysyysye666666666664>>>>4>4>>,,>44>>>>XXXX",
"XXoooXXXXX.XXX XXXXXXXXXXXXXXXXXXo@::XXXXXXo>>4>4>>4,46666666666666686,;$#ooXXXX>syyyeetssysyye6666666666,>>4,>>>,>>,4,,4>>4oXXX",
"XXXXXXXXXXXXXXX.XXXXXXXXXXXX+%1qpllljqXXXXXXo>>2,,4>4>,466666660666,#XXXXXXXXXXXX+:ese67yyyssyse66666666>>,>>>,>>,,>>,4>,44XXXXX",
"XXXXXXXXXXXXXXXXXXXXXXXO#$2dllllllllllsoXXXXX@>>>,,4,>>4>466666666;XXXXXXXXXXXXXXXXX%0666esyyssyw666666,>>,>>>6664>>>>>>,4oXXXXX",
"XXXXXXXXXXXXXXXXXX+@&266666slllllllllllpXXXXXX@2>,>>,>,>>4,446666&XXXXXXXXXXXXXXXXXXXX$666eysgsyyw66664,,,4>>6606664>,4,4+XXXXXX",
"XXXXXXXXXXOO@#$:26676666666qllllllllllllqXXXXXX%>4>>4>4>>,>>>,44#XXXXXXXXXXXX.XXXXXXXXX%686esyysye66w,-&---=:66066664>>4&XXXXXXX",
";;>>666666666666666666666666dllllllllllll3XXXXXX=4,,>>>,,,>,>>>#XXXXXXX@13qe11:+XXXXXXXX#666psp31;+XXXXXXXXXXXX+66664,,*XXXXXX33",
"8666666666666666676666666666elllllllllllll1XXXXXX=4,>44>,44>>>=XXXXXX#tillllllllp1OXXXXXX$66&+XXXXXXXXXXXXXXXXXXX666>;&XXXXXX3lj",
"66666666666666666066666666666llllllllllllll%XXXXXXoo+#==;&===oXXXXXX$igggllklllllll*XXXXXX@XXXXXXXXXXXXXXXXXXXXXX#84>#XXXXXX0llj",
"66666666666666666666667666666ellllllllllllll+XXXXXXXXXXXXXXXXXXXXXX;gtgiggdhllllllll%XXXXXXXXXXXXXXXXXXXXXXXXXXXXX;,-XXXXXX,lllp",
"666666666666666666668666666666dllllllllllllls+XXXXXXXXXXXXXXXXXXXX#ifgfggfigggdllllll%XX XXXXXXXXXXXXX@@%@@@XXXXXXX;oXXXXX:llllq",
"666666666666666866666666666666elllllllledllllpOXXXXXXXXXXXXXXXXXX&gigffgiggfgfgghlllllOXXXXXXXXO%1qqlllllllll3XXXXXoXXXXX*llllj0",
"6666666666666666666666666666666sllllls323dllllp+XXXXXXXXXXXXXXX+8tgigifigffgggfgfgdllldOXXXX *plllllllllllllll@XXXXXXXXX%jlllk0w",
"06666660666666666666666666866666psldp22223dlllll;XXXXo;++@+@@>wiigggggfgfggfggggggfdlllpXXXXXpllllllllllllllllyXXXXXXXXXpllllr66",
"666666666066666666w66w666666660664>44>>4>>0jllll+XXXX>giggfigigigiggggigfgiiiggfigiggkll*XXXX1lllllllllllllllll3XXXX   +lllllqq3",
"666666666666666666666w4w666666w0>>,>>>,>,>6elllpXXXXXtggigggggggggigfgfggiiigfigiigfggkl<XXXX+lllllllsssepelllll+XXX  O+lllldq7q",
"666666666666666666666664666w6664>4,>,>,,,666rll3XXXX+tggggfgffggigfggiiigiiiitttttiiggigyXXXXOllldq766q6766sllllqXXXO O1lllld637",
"6666686666666668660w4666wyw66664>>>4>>556666qsl*XXXX;giggigiggigfgfgfgfittt9w60566tigigggXXXXXplllp76667666slllll+XX  Opllllp666",
"06666666666eyyyw6666666yyyyy666>,>>>,66666666wsoXXXX8tigggggggiiggitw866666866666669igfgg+XXXXqllllle6666666dllll1XXXXOpllllp666",
"6866666666yysyyyww666wryyyyy6w4>>4>>6666666666,XXXXXiigfgigfiitte96666666666666666689tggf#XXXX0lllllde666666elllldXX OOpllllp666",
"666666666yyyssssye666eyyyyyy66>>>>>46666666666$XXXX@ggggitgue86686668666666666666qe668tgg#XXXX0lllllllle6666elllll+X XX3llll7666",
"66666866wsysysyyyyw6yyyjiyyw64,>>>>86eee666666oXXXX>gigiit8866666666666666666666ejlly66etoXXXXqlllllllkd6666qlllll:X XX%llls6666",
"86666666yyssysysyyyyyysyyssy64>4>>4wwyyye6666,XXXXXwgfgggt666666666666686666666yllllle663XXXXXplllllllllp7666jllll3XXXX+lllp6666",
"6666686eyssyyssssssgssssyyyy64>>4>66yyjyy6664=XXXXoggfgiii66666666666666666666rllllllp666XXXXXlllllllllls7666ellld7XXXXXllld7666",
"666w66wyyssysygyyssysyysyye666,,>40wiyyyy865,+XXXX#iggfgii6666666666666666666yllllllle661XXXXOlldplllllls666660ee6qoXXXXpllh6666",
"66660esssysyyysysyysyssyyy0666666wyyjyyye66>>oXXXX2gggtgii866666666666666666ellllllls766;XXXX%lls66slllle6666666666%XXXX3lll6666",
"6666wsysysswwwe6wyysgssyy6666666wyjyyyyy8654>XXXX.tggiggitw66666668666666866lllllllk7666@XXXX1lle666psse66666666660:XXXX:lld6666",
"6666yysyyye0666668yysyyseeww6666wyypyyyy664,=XX.X@iggggfit666666667666666666llllllh66686@XXXX0ld66666766666666666603XXXX*llk6666",
"6666eysyyt6666666wsssssssssyye66wyygyyyw6644#XXXX-gfiiigt666666665666666weeqdllllh666666XXXXXrle66666666666666eyyq6eXXXX+llld067",
"06668ystw666666wysysyysyyssyyue0eyyyye6666>;@XXXX:igittt66666668etyq660yysssslllhy666667XXXXXlj67666666666e76eystr6pXXXXXlllkl66",
"6666686666666eyysysysssysusssysweyyyye0866,,oXXXX,ww86w66666686wyssyeeytsyssysgsse66666,XXXXoe66666066wweysyyssse:oXXXXXXqllllp0",
"66866666666eyyyyyssssysssssyyssewyysye66664>oXXXX;6666666666666wysysyysygysyysysse86666:XXXX+66666600eysssysssw@XXXXXXXXXX:jllj0",
"6666666666eyysyssssyyuysuysyssyywyssye66664,oXXXX:6866666666666wssysyssyyssyssysssyyw06-XXXX@66666wyyysysysss,XXXXXXXXXXXXXorks0",
"6666666666yysyyy3*+oooXXXo:rysys6ygyy866665,OXXXX-46666666666666essyssysssysyssysssyyy6oXXXX@66eeuiyyysyysss3XXXXXXXXXXXXXXXX:r6",
"66666666666oXoXXXXXXXXXXXXXX@0yy06ee6666664>+XXXX->46666666666660eyyyysyssysysyyyyse,oXXXXXXX&*203sssysssyy6XXXXXXXXO*+XXXXXXXo#",
"X@;66686:oXXXXXXXXXXXXXXXXXXXX0y6666666644>4@.XXX#>466066668666666tyssssyssysysysq%XXXXXXXXXXXXXXXX@,ysyey&XXXXXXo3rlll3XXXXXXXX",
"XXXXoooX.XXXXXXXXXXXXXXXXXXXXXX&66666w44>>44@XXXX#>,55224,4456666660yyysyysssyy6@XXXXXXXXXXXXXXXXXXXXo6w6@XXXXXX@jklllllr+XXXXXX",
"XXXXXXXXXXXXXXXXXXXXXXXXXXXXXXXXooooXoooo@@@oX.XX#>>,,>2>>,>>,,6666668898weeye@XXXXXXXXXXXXXXXXXXXXXXXX:XXXXXXXojlllllllll:XXXXX",
"XXXXXXXXXXXXXXXXXX+%*;31+XXXXXXXXXXXXXXX.XXXXXXXOXOO@@#-;>>>>>:2,66666666666$XXXXXXXXXXooXXXXXXXXXXXXXXXXXXXXX%jkllllllklllj#XXX",
"XXXXXXXXXXXXXX*qklkllllllp+XXXXX XXXXXXXXXXXXXXXXXXXXXXXXXXoO@-2>4666666666oXXXXXXXXo-wiiit5>;;#@XXXXXXXXXXXX,lllllllklllllkkr*X",
"-#XXXXXXXX+3sllllkkllllllldXXXXXXXXXXXXXXXXXXXXXXXXXXXXXXXXXXXXXo$6666666,XXXXXXXXo,igtgigiiggigiiwoXXXXXXXXqlllllllgggkllllklpw",
"6ieoXXo;ellllllllklllllllldXXXXX XXXXXXXXX.XXXXXXXXXXXXXXXXXXXXXXXo66666,XXXXXXXX2gggggggggigfgfiiiyXXXXXX@illllllkgggfgikkkjw6w",
"6tiiiklllllllllllllllkllljrXXXXX3pqplpqpq111;*XXXXXXXXXXXXXXXXXXXXXX>66,oXX XXX;tgiggggggggiggffiiii6XXXXXkllllllkiiigfiiiitw666",
"6tiiggklllllllljgkkkkkklllqXXXXXpllllllllllllllsqpq111*@o.XXXXXXXXXXX,,oXXXXXX9igggggiffgigggfiiiiw66XXXXXllllllliiigfggiiyw66w6",
"6wiiigiikkgyeww6tigiiiigjl*XXXXXllllllllllllllllllllllllllsq1*OXXXXXXXoXXXXXoeiiggggggfiggggfiftww666XXXXXllllllkgiiggiiit66664w",
"6eiiiiiiiiy60666tggiiiiijl@XXXX+lllllllllllllllllllllllllllllllqoXXXXXXXXXXottiigggggigggtfggit66w66eXXXXXlllllggiiiigiiw6660666",
"68gggggfggi66666iiiigggggloXXXX@llllllllllllllllllllllllllllllllp+XXXXXXXXXtgfgfiggggggiiiiiuw66666wkXXXXXllklkiiiiiiiuw66666666",
"66tigfggfgft6669iigiggggklXXXXX:kllllllllllllllllllllllllllllllllpoXXXXXX.egiggigfgiiffgiiiu6666666jkXXXXXlkllkiiiiiit8666666666",
"66tigggfgiii686tgiiggggglsXXXXX0klllllllllllllllllllllllllllllllllrXXXXXXXfffgggggggggfgiiiw666666wlkXXXXXlllkkiiiiii84666666668",
"66etffgggfffe66tfggfggggl0XXXXXjlllkllllllllllllllllllllllllllllllj0XXXXXXgfgggggigigfgiiit666w666yllXXXXXkkklliiiiiw6w666666666",
"668ugfggggfgi88igggfggggl*XXXXXlllld7sllllllllllllldllllkljlllllllllrXXXXoufgigffgigggigii66666666jllXXXXXkllkkkiiggiw6666666666",
"668egggffigiiu8ffiigfggkl+XXXX+lllle66sllldllldlllllllllkd0kllllllllsXXXXOgfgggggfggiiggiw66666666jllXXXXXllllliiiiguw666666666w",
"6688gfgfgggfiiifgiffgggllXXXXX*lllp6766elllllllllldldlllde6edlllllllyXXXXogggigiigifiiiiw666666666elkXXXXXllllkkigigiw6886666666",
"6868tggggfifiigggggggfglpXXXXXqlld666666edllldlllllllllle6666dlllllleXXXXOfgggiigfggiit66666666666wylXXXXXlllllkigggiw6666666666",
"66668uiiifgigfgfigiiikllqXXXXXjjle6606666eklllllllllllle666667dlllllqXXXX@ittiiigfiiy86666w666666wwesXXXXXllllkkgfgfit6666666666",
"666668iigggggfgggiiiilll@XXXXXjll666666666elllllllllls666666666jllll0XXXX@ttetwtw9866666666666666wyyyXXXXXllllllggigit6666666666",
"666666tgggfggggfggiikljjXXXXXOlly6666666666dlllllldp76666666666qdlll1XXXX@666666866666666666666wesyyeXXXXXllllllggigii8666666666",
"666666tiifgifggggiiikllqXXXXX@ljq66666666666dlkspq73666666666666qlll*XXXX$66wte6666666660666666wyysyeXXXXolllllllggfggw666666866",
"66666wggfgggifgggggglll*XXXXX%lp66666666666666666666668666676666qlll+XXXX;6esyyy66666666666666esyssyeXXXXolkllllligigit686666666",
"66666tiigggfgggggigkjlloXXXXX%jw666666666666666666666666666666666plpXXXXX66rsstse666668666666ysysysy0XXXX%lllklllkgggit666666666",
"6666wiiiigfgfggiggkkllqXXXXXX:r0666666666666666666666666666666666pl:XXXXo66eyssye66666666666yyysyyss:XXXXojllllllkgiiii668886866",
"666wiiiifggigifggglljj:XXXXXX*6667666666660666eye6666666606666666p3XXXXX;66esyysyew666666w6eyyssssyg;XXXXX@lklllkkkgiiiwutiiuw66",
"666tiggiggggigigilllkloXXXXXXo06666666666666eyysyy66666666w660602@XXXXXX@j66ryyssyssyyyw66eyyisyssysoXXXXXX1lllkllliiiiiiigigiew",
"668ifgfgggiggggiglllkqXXXXXXXX666666666666weysyyyy066666666660,@XXXXXXXXX:r6wyysyssyyysyyeyysyssyyssoXXXXXXXpllllllkiiiiiigiggt6",
"66tigggfggigggigklllk:XXXXXXXX&6666666w6wwyysyyyyy6666666666,&XXXXXXXXXXXX006esysssyyyssssyissyysyr,XXXXXXXX@kklllllkiiiiiiiiii6",
"6wgfiggfgggggiilllllkXXXXXXXXXX*6866666wtyyysyyyu666666666w&XXXXXXXXXXXXXXX,6wygsiysyssyyyssyyyy000oXXXXXXXXX1llllllllkkiiiiiii6",
"6tw8tigigiiiiillllkk3XXXXXXXXXXX%66666yyyysyssye6066666663@XXXXXXXXo3:XXXXXO606yyyyyyyyysysysyy666;XXXXXoXXXXXqklllllllljgiiiit6",
"XXXXXX@>tiiiikllllkjXXXXX*@XXXXXX&66wyyyyyysyyww6066600ewoXXXXXXXX:dll*XXXXX+e06ysssywyysssyiyweerXXXXXoqXXXXXXpllllllllljiii6&o",
"XXXXXXXX.@6ikllllll@XXXXX66oXXXXXX;eyyyysysyr6666666wrk:XXXXXXXX1dllllj+XXXXX+seessyie6wyyssysklroXXXXXqj:XXXXXXwkklllllklt&XXXX",
"XXXXXXXXXXXo3lllll;XXXXX*666@XXXXXX;yyjyysyw66860666sp@XXXXXXX%jlljllllrXXXXXXoqkssssy66wysyslk1XXXXXX%lll@XXXXXX:kklllll:XXXXXX",
"XXXXXXXXXXXXXo3kj*XXXXXo66666@XXXXXX#yyyye666666660w3oXXXXXXX0lllllkkllkpXXXXXXX1ljyyswwwyysjroXXXXXXojllljoXXXXXX+plllr@XXXXXXX",
"XXooXXXXXXXXXXXooXXXXXX;666666@XXXXXXoerw6606666664@XXXXXXX@jlllllkkkklllqXXXXXXX&jssyysssse%XXXXXXXosllklkjoXXXXXXX0l0XXXXXXXXX",
"566662&oXXXXXXXXXXXXXX&w666666w@XXXXXXXoo+###;;>,>XXXXXXXX,ljlllllkrejklllroXXXXXX+rsysysr:XXXXXXXX+slllklllj*XXXXXXXoXXXXXXXX@;",
"06686666;+XXXXXXXXXXX%6666666666&XXXXXXXXXXXXXXXXXXXXXXXorkljlllksww66rllllj+XXXXXXXXXXXXXXXXXXXXX:kllllllklll1XXXXXXXXXXXXX#666",
"6666666666,@XXXXXXXX*666666666666;XXXXXXXXXXXXXXXXXXXXX*jlllljsew660666wklllj:XXXXXXXXXXXXXXXXXX+rlllllsslllllleoXXXXXXXXXX:6666",
"666666666686,@XXXXX@6666666666w666,XXXXXXXXXXXXXXXXXXXqllklse60666666666wyllll3XXXXXXXXXXXXXXXX,llkksr00wwjllllkj*XXXXXXXo666666",
"66666666666666,+XX%666ww66666666660,oXXXXXXXXXXXXXXXo,rjye06666666666w66660rlljrXXXXXXXXXXXXX&wsjyww660606wrjklkr0*XXXXX#666w666",
"66066666666666666666666666666666666666;;;>##&@++oXo&00666666w6666666666666w60rsp6XXXXXXXXXX+,06660666666w40www066w0,oXX;66666666"
};
