/* XPM */
static char *b9103b76af7d4579b844b4fbd68c5565[] = {
/* columns rows colors chars-per-pixel */
"64 64 61 1 ",
"  c #000000",
". c #0B0B0B",
"X c #141414",
"o c #1B1B1B",
"O c #002C24",
"+ c #003936",
"@ c #232323",
"# c #2C2C2C",
"$ c #343434",
"% c #3B3B3B",
"& c #00413A",
"* c #004B46",
"= c #00574F",
"- c #005B55",
"; c #3B5E5B",
": c #006F6A",
"> c #107570",
", c #444444",
"< c #4A4A4A",
"1 c #545454",
"2 c #5C5C5C",
"3 c #614B4D",
"4 c #625F5F",
"5 c #636363",
"6 c #6B6B6B",
"7 c #747474",
"8 c #7C7C7C",
"9 c #806D70",
"0 c #7C8080",
"q c #5BB0A9",
"w c #43BEB5",
"e c #4BBFB7",
"r c #4CC9BE",
"t c #55CBC2",
"y c #6AD1C6",
"u c #78E2D8",
"i c #848484",
"p c #8E8384",
"a c #8B8B8B",
"s c gray58",
"d c #9B9B9B",
"f c #A3A3A3",
"g c #ACACAC",
"h c #B3AEAF",
"j c #B4B4B4",
"k c #BCB4B5",
"l c #B6B8B7",
"z c #BBBBBB",
"x c #88EFE5",
"c c #88F4EB",
"v c #87F8ED",
"b c #8AFFF6",
"n c #8DFFFC",
"m c #C4C4C4",
"M c #CBCCCC",
"N c #D4D4D4",
"B c #DBDBDB",
"V c #E4E4E4",
"C c #EBEBEB",
"Z c #F4F4F4",
"A c #FEFEFE",
/* pixels */
"                        #$           ##X                        ",
"                      @o  <i888i888i5   #                       ",
"                     @  siMAAAAAAAAAVas% .X                     ",
"                   X# dMAAAAAAAAAAAAAAABl< @                    ",
"                  .  dAAAAAAAAAAAAAAAAAAAM          @#o         ",
"                  o aZAAAAAAAAAAAAAAAAAAAAm%X.     X   o        ",
"                 o 7AAAAAAAAAAAAAAAAAAAAAAAM X.   o <6% @       ",
"                 . gAAAAAAAAAAAAAAAAAAAAAAAV% o  @ 2CAB% o      ",
"                o 8AAAAAAAAAAAAAAAAAAAAAAAAAg @ o 7VAAAV7 X     ",
"                o 8AAAANlmzlCAAAAAAMkkkkZAAAj @.X MAAAAAm #     ",
"                o 8AANg,    sAAAAAm &ew-pmAAj # 8alAAAAAl #     ",
"                o 7AB  o###o#VAAAA7Oxnnv> fAg % iAjMAAAAm #     ",
"                o 8AM ;o .. #CAAAA0tnyqnc*2Aj % 8AZZAAAAz #     ",
"                X 2VV$ o#@@ iAANCAh;unbx: jAs $ iAAAAAAAm #     ",
"                 @ iANd%    MAZ jAA3+tr=9zAB X# aVMMNAAZa o     ",
"                 X 4BAAMjM97CAl 9CAl5khhZAZf .# dm   jml8 o     ",
"                  # sAAAAslAAC%  lAABaMAAAB X.# sm oX  lN $     ",
"                 o 8ZAAlVVZAAZ1  zAAZBZkBAAm @ 2N6 o# dM< .     ",
"                 o aACB8fVAAAAAZAAAAAAVa NAB . dN  X$ jM #      ",
"                 o aAm78V,gBBNBBBNBNNM5 5gAV  7C, @ $ gM o      ",
"               .X@ 6VAAMffBs2sa1dd,s7gN1ZAAg  @z$ o % gN @      ",
"                    fAAAl.BAgZCgAAaCZ%lZAAV dNz  o o 1mi X      ",
"             .o jVm ,VAAANgs5ZVfAAaBs1VAAZ87ZAAN@ X$ iN  .      ",
"             @ sAAAm #BAAAZNdsd8ff6dNAAZZd7CAAgi# .@ am  .      ",
"            . ,mCVAAB2o6VVAAAZAAZZAAACVf 2ZAAd    @ <V6 o       ",
"            o dj ,NVCAj % fVBVVVVVVCm %  dAAd #$. X sM% o       ",
"            @       5ZAm    a    85 X  szZAd     o @V7 #        ",
"           # 8g #X X ijCNj  NVzmmCa   iAAAd  gi $  fl# X        ",
"         .. 5ms  $j@X  dAZMsaAAAAB<2MMVMss  fM5   gz  @         ",
"         o 2N7 # <B$ # 2V5NA8,VCZfmZAV5   % Ng  ,jm  @          ",
"        o  Vs $. ,N% @ 7V jm 2ia6 6BjM $$%  Ng<sVz  @ .         ",
"        X iM< oX ,N    <CgVg ZAAB1sVBN #   MAsgM<  o            ",
"      . . ma $ X %Vs5mjMZmZg ZAAAzVAVN   dBZVf    X             ",
"       o aVi # X  ZAzmmmmi7miVAAAjBmaB fMZM8Mj #.               ",
"       @ mA6 # X <Bs6   8VdAjVAAAzBVZMsza7  mA7 o               ",
"       @ jAi #o  Na  #$ 7AhNlVAAAlNdgNgg  #@#Vd @               ",
"       .. lAs %  V7 @ @ iV1BjVAAAlBgdMgs $.@ Bd @               ",
"        o  mAa  XV8 X o 6mjAjVAAAjNAmdB # .o Bd @               ",
"         o  MZji V8 X  $ fjzlCAAAmMsNMd o .# Nd @               ",
"          Xo zAm V6 ooX$ fgmg6dsa7NdBa      dAs o               ",
"           o  MM CZz     aZAZBBBBBZAB.%$$, iAAa @               ",
"            o $1jCAAN8ia8fCCZVs8ai8VVNBNNNNVAl  .               ",
"             o  %%NVVVVBVM .@       $% %<<#aVi o                ",
"              Xo        .     @#@@@  1d<   26 o                 ",
"                @ 5j dM2  oooo. .  # fAd , jj @.                ",
"               . omf NAa #       . @ dAd # 1Ma X                ",
"               o <B 8Az@ .  o ig%  @ dAs $@ Mj X                ",
"               X <N fAi.@  @ 6Mmz oo dAg @o Ng @                ",
"               o  B aAf o  @ 8NmM #o dAAi # jl@ .               ",
"              .  gj<BV5 X  # 2Nszi # dAAa @@ Bf @               ",
"              o .V1iAd #  .  MZ lM % dAAa @o Bd @               ",
"              o  V68Ag o  . ,Zj mm $ 1NAa @$ Bd @               ",
"              o .V<6Ag $#@# 2B1 zm %$ fA8 #  Nd o               ",
"              o  VsfAf      oV8 Mm    fAd  85Vf @ .             ",
"              X .mNNNzgggggfjM1 dMfggfNAAzgNNB8 o               ",
"               .     fNNNMMNM% # sBMNMMMMNl     o.              ",
"              .     o         X @   <i     o      .             ",
"             X  zVVm jCVN%o$#. . X, dABVVVM  lVM$ .             ",
"            .X fAAAACjBAZ# o     o ,VAAAAZ7sCAAAZj ..           ",
"            o dAAAAAAA8mM  o     @  NBNBBjVZAAAAAAj o           ",
"            @ gAAAAAAAM,ds  .   X @sfdff<CAAAAAAAAs X           ",
"            X iNMMMMMMNiNm  X   X #mBNNN7jNMMMMMNd o.           ",
"             .            .      .                X             ",
"              .XoXXXXX. ..         ..... XXoXXXXXX.             "
};
